<svg width="472" height="20" viewBox="0 0 472 20" fill="none" xmlns="http://www.w3.org/2000/svg">
<path opacity="0.931" fill-rule="evenodd" clip-rule="evenodd" d="M16.8132 0.295776C23.2166 0.295776 29.6201 0.295776 36.0235 0.295776C36.0235 1.27876 36.0235 2.26173 36.0235 3.24471C29.6201 3.24471 23.2166 3.24471 16.8132 3.24471C16.8132 2.26173 16.8132 1.27876 16.8132 0.295776Z" fill="#895047"/>
<path opacity="0.931" fill-rule="evenodd" clip-rule="evenodd" d="M80.8474 0.295776C90.9862 0.295776 101.125 0.295776 111.264 0.295776C111.264 1.27876 111.264 2.26173 111.264 3.24471C101.125 3.24471 90.9862 3.24471 80.8474 3.24471C80.8474 2.26173 80.8474 1.27876 80.8474 0.295776Z" fill="#8A5048"/>
<path opacity="0.944" fill-rule="evenodd" clip-rule="evenodd" d="M147.55 0.295776C150.218 0.295776 152.886 0.295776 155.554 0.295776C155.554 1.27876 155.554 2.26173 155.554 3.24471C151.819 3.24471 148.083 3.24471 144.348 3.24471C144.348 2.37084 144.348 1.4973 144.348 0.623436C145.541 0.720096 146.608 0.610657 147.55 0.295776Z" fill="#8A5048"/>
<path opacity="0.907" fill-rule="evenodd" clip-rule="evenodd" d="M160.89 0.295776C160.89 1.27876 160.89 2.26173 160.89 3.24471C160 3.24471 159.111 3.24471 158.222 3.24471C158.222 2.26173 158.222 1.27876 158.222 0.295776C159.111 0.295776 160 0.295776 160.89 0.295776Z" fill="#5E302C"/>
<path opacity="0.931" fill-rule="evenodd" clip-rule="evenodd" d="M160.89 0.295776C170.139 0.295776 179.389 0.295776 188.638 0.295776C188.638 1.27876 188.638 2.26173 188.638 3.24471C179.389 3.24471 170.139 3.24471 160.89 3.24471C160.89 2.26173 160.89 1.27876 160.89 0.295776Z" fill="#894F47"/>
<path opacity="0.931" fill-rule="evenodd" clip-rule="evenodd" d="M188.638 0.295776C207.137 0.295776 225.636 0.295776 244.134 0.295776C244.134 1.27876 244.134 2.26173 244.134 3.24471C225.636 3.24471 207.137 3.24471 188.638 3.24471C188.638 2.26173 188.638 1.27876 188.638 0.295776Z" fill="#5E302C"/>
<path opacity="0.931" fill-rule="evenodd" clip-rule="evenodd" d="M244.135 0.295776C250.716 0.295776 257.297 0.295776 263.878 0.295776C263.878 1.27876 263.878 2.26173 263.878 3.24471C257.297 3.24471 250.716 3.24471 244.135 3.24471C244.135 2.26173 244.135 1.27876 244.135 0.295776Z" fill="#894F47"/>
<path opacity="0.923" fill-rule="evenodd" clip-rule="evenodd" d="M296.963 0.295776C307.279 0.295776 317.596 0.295776 327.912 0.295776C327.912 1.27876 327.912 2.26173 327.912 3.24471C327.735 3.24471 327.557 3.24471 327.379 3.24471C324.711 3.24471 322.043 3.24471 319.375 3.24471C311.904 3.24471 304.433 3.24471 296.963 3.24471C296.963 2.26173 296.963 1.27876 296.963 0.295776Z" fill="#8A5048"/>
<path opacity="0.945" fill-rule="evenodd" clip-rule="evenodd" d="M335.917 0.295776C336.984 0.732547 338.051 0.732547 339.118 0.295776C339.83 0.295776 340.542 0.295776 341.253 0.295776C341.253 1.27876 341.253 2.26173 341.253 3.24471C337.695 3.24471 334.138 3.24471 330.58 3.24471C330.403 3.24471 330.225 3.24471 330.047 3.24471C330.047 2.26173 330.047 1.27876 330.047 0.295776C332.004 0.295776 333.96 0.295776 335.917 0.295776Z" fill="#5E302C"/>
<path opacity="0.931" fill-rule="evenodd" clip-rule="evenodd" d="M372.203 0.295776C381.452 0.295776 390.702 0.295776 399.951 0.295776C399.951 1.27876 399.951 2.26173 399.951 3.24471C399.061 3.24471 398.172 3.24471 397.283 3.24471C388.923 3.24471 380.563 3.24471 372.203 3.24471C372.203 2.26173 372.203 1.27876 372.203 0.295776Z" fill="#894F47"/>
<path opacity="0.931" fill-rule="evenodd" clip-rule="evenodd" d="M399.951 0.295776C411.868 0.295776 423.786 0.295776 435.703 0.295776C435.703 1.27876 435.703 2.26173 435.703 3.24471C423.786 3.24471 411.868 3.24471 399.951 3.24471C399.951 2.26173 399.951 1.27876 399.951 0.295776Z" fill="#5E302C"/>
<path opacity="0.931" fill-rule="evenodd" clip-rule="evenodd" d="M435.703 0.295776C439.439 0.295776 443.174 0.295776 446.909 0.295776C446.909 1.27876 446.909 2.26173 446.909 3.24471C443.174 3.24471 439.439 3.24471 435.703 3.24471C435.703 2.26173 435.703 1.27876 435.703 0.295776Z" fill="#894F47"/>
<path fill-rule="evenodd" clip-rule="evenodd" d="M36.0234 0.295776C42.4269 0.295776 48.8303 0.295776 55.2337 0.295776C56.3009 0.732547 57.3682 0.732547 58.4354 0.295776C65.906 0.295776 73.3767 0.295776 80.8473 0.295776C80.8473 1.27876 80.8473 2.26173 80.8473 3.24471C78.8906 3.24471 76.9343 3.24471 74.9775 3.24471C61.993 3.24471 49.008 3.24471 36.0234 3.24471C36.0234 2.26173 36.0234 1.27876 36.0234 0.295776Z" fill="#B2764C"/>
<path fill-rule="evenodd" clip-rule="evenodd" d="M111.264 0.295776C122.292 0.295776 133.32 0.295776 144.348 0.295776C144.348 0.404887 144.348 0.514325 144.348 0.623436C144.348 1.4973 144.348 2.37084 144.348 3.24471C143.458 3.24471 142.569 3.24471 141.68 3.24471C133.32 3.24471 124.96 3.24471 116.6 3.24471C114.821 3.24471 113.042 3.24471 111.264 3.24471C111.264 2.26173 111.264 1.27876 111.264 0.295776Z" fill="#B2774C"/>
<path fill-rule="evenodd" clip-rule="evenodd" d="M263.878 0.295776C274.907 0.295776 285.934 0.295776 296.963 0.295776C296.963 1.27876 296.963 2.26173 296.963 3.24471C288.781 3.24471 280.598 3.24471 272.416 3.24471C269.571 3.24471 266.724 3.24471 263.878 3.24471C263.878 2.26173 263.878 1.27876 263.878 0.295776Z" fill="#B2774C"/>
<path fill-rule="evenodd" clip-rule="evenodd" d="M341.253 0.295776C351.569 0.295776 361.886 0.295776 372.203 0.295776C372.203 1.27876 372.203 2.26173 372.203 3.24471C364.732 3.24471 357.261 3.24471 349.791 3.24471C346.945 3.24471 344.099 3.24471 341.253 3.24471C341.253 2.26173 341.253 1.27876 341.253 0.295776Z" fill="#B1764C"/>
<path fill-rule="evenodd" clip-rule="evenodd" d="M446.909 0.295776C453.49 0.295776 460.072 0.295776 466.653 0.295776C466.653 1.27876 466.653 2.26173 466.653 3.24471C460.072 3.24471 453.49 3.24471 446.909 3.24471C446.909 2.26173 446.909 1.27876 446.909 0.295776Z" fill="#B1764C"/>
<path fill-rule="evenodd" clip-rule="evenodd" d="M14.1451 3.24469C14.1451 4.11856 14.1451 4.9921 14.1451 5.86597C15.0344 5.86597 15.9238 5.86597 16.8132 5.86597C16.8132 6.84895 16.8132 7.83192 16.8132 8.8149C15.9238 8.8149 15.0344 8.8149 14.1451 8.8149C14.1451 9.68877 14.1451 10.5623 14.1451 11.4362C15.0344 11.4362 15.9238 11.4362 16.8132 11.4362C16.8132 12.31 16.8132 13.1836 16.8132 14.0575C18.5919 14.0575 20.3706 14.0575 22.1493 14.0575C22.1493 15.0404 22.1493 16.0234 22.1493 17.0064C27.6634 17.0064 33.1775 17.0064 38.6915 17.0064C40.6481 17.0064 42.6047 17.0064 44.5613 17.0064C44.5613 17.8803 44.5613 18.7538 44.5613 19.6277C29.7978 19.6277 15.0344 19.6277 0.270996 19.6277C0.270996 16.0234 0.270996 12.4192 0.270996 8.8149C1.16038 8.8149 2.0497 8.8149 2.93909 8.8149C2.93909 9.68877 2.93909 10.5623 2.93909 11.4362C3.82847 11.4362 4.71779 11.4362 5.60718 11.4362C5.60718 10.5623 5.60718 9.68877 5.60718 8.8149C7.38588 8.8149 9.16465 8.8149 10.9434 8.8149C10.9434 6.95806 10.9434 5.10154 10.9434 3.24469C12.0106 3.24469 13.0778 3.24469 14.1451 3.24469Z" fill="#6C3F39"/>
<path fill-rule="evenodd" clip-rule="evenodd" d="M14.1453 3.24469C15.0346 3.24469 15.924 3.24469 16.8134 3.24469C16.8134 4.11856 16.8134 4.9921 16.8134 5.86597C15.924 5.86597 15.0346 5.86597 14.1453 5.86597C14.1453 4.9921 14.1453 4.11856 14.1453 3.24469Z" fill="#935F50"/>
<path fill-rule="evenodd" clip-rule="evenodd" d="M16.8132 3.24469C23.2166 3.24469 29.6201 3.24469 36.0235 3.24469C36.0235 4.11856 36.0235 4.9921 36.0235 5.86597C49.008 5.86597 61.9931 5.86597 74.9776 5.86597C74.9776 4.9921 74.9776 4.11856 74.9776 3.24469C76.9344 3.24469 78.8906 3.24469 80.8474 3.24469C90.9861 3.24469 101.125 3.24469 111.264 3.24469C113.042 3.24469 114.821 3.24469 116.6 3.24469C116.6 4.11856 116.6 4.9921 116.6 5.86597C124.96 5.86597 133.32 5.86597 141.68 5.86597C141.68 4.9921 141.68 4.11856 141.68 3.24469C142.569 3.24469 143.458 3.24469 144.348 3.24469C148.083 3.24469 151.819 3.24469 155.554 3.24469C155.554 4.11856 155.554 4.9921 155.554 5.86597C155.554 6.84895 155.554 7.83192 155.554 8.8149C153.775 8.8149 151.996 8.8149 150.218 8.8149C150.04 8.8149 149.862 8.8149 149.684 8.8149C146.126 8.8149 142.569 8.8149 139.012 8.8149C137.055 8.8149 135.099 8.8149 133.142 8.8149C133.142 9.68877 133.142 10.5623 133.142 11.4362C120.335 11.4362 107.528 11.4362 94.7214 11.4362C94.7214 10.5623 94.7214 9.68877 94.7214 8.8149C70.5309 8.8149 46.3399 8.8149 22.1494 8.8149C22.1494 7.83192 22.1494 6.84895 22.1494 5.86597C20.3707 5.86597 18.5919 5.86597 16.8132 5.86597C16.8132 4.9921 16.8132 4.11856 16.8132 3.24469Z" fill="#DB9C6F"/>
<path fill-rule="evenodd" clip-rule="evenodd" d="M36.0234 3.24469C49.008 3.24469 61.993 3.24469 74.9775 3.24469C74.9775 4.11856 74.9775 4.9921 74.9775 5.86597C61.993 5.86597 49.008 5.86597 36.0234 5.86597C36.0234 4.9921 36.0234 4.11856 36.0234 3.24469Z" fill="#F6C9A9"/>
<path fill-rule="evenodd" clip-rule="evenodd" d="M116.6 3.24469C124.96 3.24469 133.32 3.24469 141.68 3.24469C141.68 4.11856 141.68 4.9921 141.68 5.86597C133.32 5.86597 124.96 5.86597 116.6 5.86597C116.6 4.9921 116.6 4.11856 116.6 3.24469Z" fill="#F6C9A9"/>
<path fill-rule="evenodd" clip-rule="evenodd" d="M155.554 3.24469C156.443 3.24469 157.333 3.24469 158.222 3.24469C158.222 4.11856 158.222 4.9921 158.222 5.86597C157.333 5.86597 156.443 5.86597 155.554 5.86597C155.554 4.9921 155.554 4.11856 155.554 3.24469Z" fill="#895047"/>
<path fill-rule="evenodd" clip-rule="evenodd" d="M155 1C156.334 1 157.666 1 159 1C159 2.00013 159 2.99987 159 4C157.666 4 156.334 4 155 4C155 2.99987 155 2.00013 155 1Z" fill="#895047"/>
<path fill-rule="evenodd" clip-rule="evenodd" d="M158.222 3.24469C159.111 3.24469 160 3.24469 160.89 3.24469C170.139 3.24469 179.389 3.24469 188.638 3.24469C207.137 3.24469 225.635 3.24469 244.134 3.24469C250.716 3.24469 257.297 3.24469 263.878 3.24469C266.724 3.24469 269.57 3.24469 272.416 3.24469C272.416 4.11856 272.416 4.9921 272.416 5.86597C288.069 5.86597 303.722 5.86597 319.375 5.86597C311.108 6.19232 302.748 6.30175 294.294 6.19363C289.67 6.19363 285.045 6.19363 280.42 6.19363C280.42 6.95806 280.42 7.72281 280.42 8.48724C245.379 8.48724 210.339 8.48724 175.298 8.48724C175.461 7.54195 175.283 6.66808 174.764 5.86597C173.875 5.86597 172.986 5.86597 172.096 5.86597C167.471 5.86597 162.847 5.86597 158.222 5.86597C158.222 4.9921 158.222 4.11856 158.222 3.24469Z" fill="#DC9C6F"/>
<path fill-rule="evenodd" clip-rule="evenodd" d="M272.416 3.24469C280.598 3.24469 288.781 3.24469 296.963 3.24469C304.433 3.24469 311.904 3.24469 319.375 3.24469C319.375 4.11856 319.375 4.9921 319.375 5.86597C303.722 5.86597 288.069 5.86597 272.416 5.86597C272.416 4.9921 272.416 4.11856 272.416 3.24469Z" fill="#F6C9A9"/>
<path fill-rule="evenodd" clip-rule="evenodd" d="M319.374 3.24469C322.043 3.24469 324.711 3.24469 327.379 3.24469C327.379 5.10154 327.379 6.95806 327.379 8.8149C316.35 8.8149 305.323 8.8149 294.294 8.8149C294.294 7.94103 294.294 7.06749 294.294 6.19363C302.748 6.30175 311.108 6.19232 319.374 5.86597C319.374 4.9921 319.374 4.11856 319.374 3.24469Z" fill="#DA9B6E"/>
<path fill-rule="evenodd" clip-rule="evenodd" d="M330.581 3.24469C334.138 3.24469 337.695 3.24469 341.253 3.24469C344.099 3.24469 346.945 3.24469 349.791 3.24469C349.791 4.11856 349.791 4.9921 349.791 5.86597C365.622 5.86597 381.452 5.86597 397.283 5.86597C397.283 4.9921 397.283 4.11856 397.283 3.24469C398.172 3.24469 399.061 3.24469 399.951 3.24469C411.868 3.24469 423.786 3.24469 435.703 3.24469C439.439 3.24469 443.174 3.24469 446.909 3.24469C453.49 3.24469 460.072 3.24469 466.653 3.24469C468.432 3.24469 470.211 3.24469 471.989 3.24469C471.989 4.11856 471.989 4.9921 471.989 5.86597C471.1 5.86597 470.211 5.86597 469.321 5.86597C468.254 5.86597 467.187 5.86597 466.12 5.86597C466.12 6.73983 466.12 7.61337 466.12 8.48724C423.696 8.37813 381.362 8.48757 339.118 8.8149C338.941 8.8149 338.763 8.8149 338.585 8.8149C338.585 7.83192 338.585 6.84894 338.585 5.86597C337.695 5.86597 336.806 5.86597 335.917 5.86597C335.917 6.84894 335.917 7.83192 335.917 8.8149C335.027 8.8149 334.138 8.8149 333.249 8.8149C332.359 8.8149 331.47 8.8149 330.581 8.8149C330.581 6.95806 330.581 5.10154 330.581 3.24469Z" fill="#DC9C6F"/>
<path fill-rule="evenodd" clip-rule="evenodd" d="M349.791 3.24469C357.261 3.24469 364.732 3.24469 372.203 3.24469C380.563 3.24469 388.923 3.24469 397.283 3.24469C397.283 4.11856 397.283 4.9921 397.283 5.86597C381.452 5.86597 365.622 5.86597 349.791 5.86597C349.791 4.9921 349.791 4.11856 349.791 3.24469Z" fill="#F6C9A9"/>
<path fill-rule="evenodd" clip-rule="evenodd" d="M158.222 5.86597C162.847 5.86597 167.471 5.86597 172.096 5.86597C172.096 6.84895 172.096 7.83192 172.096 8.8149C172.986 8.8149 173.875 8.8149 174.764 8.8149C195.219 8.8149 215.675 8.8149 236.13 8.8149C236.13 9.68877 236.13 10.5623 236.13 11.4362C233.284 11.4362 230.438 11.4362 227.592 11.4362C224.924 11.4362 222.256 11.4362 219.588 11.4362C219.588 12.31 219.588 13.1836 219.588 14.0575C204.824 14.0575 190.061 14.0575 175.298 14.0575C175.461 13.1122 175.283 12.2383 174.764 11.4362C173.875 11.4362 172.986 11.4362 172.096 11.4362C172.096 12.31 172.096 13.1836 172.096 14.0575C171.206 14.0575 170.317 14.0575 169.428 14.0575C169.428 13.1836 169.428 12.31 169.428 11.4362C169.428 10.5623 169.428 9.68877 169.428 8.8149C166.76 8.8149 164.092 8.8149 161.424 8.8149C161.246 8.8149 161.068 8.8149 160.89 8.8149C160 8.8149 159.111 8.8149 158.222 8.8149C158.222 7.83192 158.222 6.84895 158.222 5.86597Z" fill="#AE7757"/>
<path fill-rule="evenodd" clip-rule="evenodd" d="M172.096 5.86597C172.985 5.86597 173.874 5.86597 174.764 5.86597C174.764 6.84895 174.764 7.83192 174.764 8.8149C173.874 8.8149 172.985 8.8149 172.096 8.8149C172.096 7.83192 172.096 6.84895 172.096 5.86597Z" fill="#D0BCB3"/>
<path fill-rule="evenodd" clip-rule="evenodd" d="M327.379 3.24469C327.557 3.24469 327.735 3.24469 327.913 3.24469C327.913 4.11856 327.913 4.9921 327.913 5.86597C327.913 6.84895 327.913 7.83192 327.913 8.8149C328.624 8.8149 329.336 8.8149 330.047 8.8149C330.047 9.68877 330.047 10.5623 330.047 11.4362C328.268 11.4362 326.489 11.4362 324.711 11.4362C324.711 12.31 324.711 13.1836 324.711 14.0575C304.433 14.0575 284.156 14.0575 263.878 14.0575C263.878 13.1836 263.878 12.31 263.878 11.4362C259.254 11.4362 254.629 11.4362 250.004 11.4362C248.048 11.4362 246.091 11.4362 244.135 11.4362C244.135 10.5623 244.135 9.68877 244.135 8.8149C256.322 8.92336 268.417 8.81392 280.421 8.48724C280.421 7.72281 280.421 6.95806 280.421 6.19363C285.045 6.19363 289.67 6.19363 294.295 6.19363C294.295 7.06749 294.295 7.94103 294.295 8.8149C305.323 8.8149 316.351 8.8149 327.379 8.8149C327.379 6.95806 327.379 5.10154 327.379 3.24469Z" fill="#AE7756"/>
<path fill-rule="evenodd" clip-rule="evenodd" d="M327.913 5.86597C328.624 5.86597 329.336 5.86597 330.047 5.86597C330.047 6.84895 330.047 7.83192 330.047 8.8149C329.336 8.8149 328.624 8.8149 327.913 8.8149C327.913 7.83192 327.913 6.84895 327.913 5.86597Z" fill="#61332D"/>
<path fill-rule="evenodd" clip-rule="evenodd" d="M338.585 8.8149C337.695 8.8149 336.806 8.8149 335.917 8.8149C335.917 7.83192 335.917 6.84895 335.917 5.86597C336.806 5.86597 337.695 5.86597 338.585 5.86597C338.585 6.84895 338.585 7.83192 338.585 8.8149Z" fill="#D0BCB3"/>
<path fill-rule="evenodd" clip-rule="evenodd" d="M469.321 5.86597C470.211 5.86597 471.1 5.86597 471.989 5.86597C471.989 6.84895 471.989 7.83192 471.989 8.8149C471.1 8.8149 470.211 8.8149 469.321 8.8149C469.321 7.94103 469.321 7.06749 469.321 6.19363C469.321 6.08452 469.321 5.97508 469.321 5.86597Z" fill="#B59D93"/>
<path fill-rule="evenodd" clip-rule="evenodd" d="M174.764 5.86597C175.283 6.66808 175.461 7.54195 175.298 8.48724C210.339 8.48724 245.379 8.48724 280.421 8.48724C268.417 8.81392 256.322 8.92336 244.134 8.8149C241.466 8.8149 238.798 8.8149 236.13 8.8149C215.675 8.8149 195.219 8.8149 174.764 8.8149C174.764 7.83192 174.764 6.84895 174.764 5.86597Z" fill="#CF936A"/>
<path fill-rule="evenodd" clip-rule="evenodd" d="M469.321 5.86597C469.321 5.97508 469.321 6.08452 469.321 6.19363C468.432 6.19363 467.543 6.19363 466.653 6.19363C466.653 7.06749 466.653 7.94103 466.653 8.8149C424.141 8.8149 381.63 8.8149 339.118 8.8149C381.362 8.48757 423.696 8.37813 466.119 8.48724C466.119 7.61338 466.119 6.73983 466.119 5.86597C467.187 5.86597 468.254 5.86597 469.321 5.86597Z" fill="#CF9268"/>
<path fill-rule="evenodd" clip-rule="evenodd" d="M2.93921 8.81488C3.82859 8.81488 4.71792 8.81488 5.6073 8.81488C5.6073 9.68875 5.6073 10.5623 5.6073 11.4362C4.71792 11.4362 3.82859 11.4362 2.93921 11.4362C2.93921 10.5623 2.93921 9.68875 2.93921 8.81488Z" fill="#4F3B3B"/>
<path fill-rule="evenodd" clip-rule="evenodd" d="M16.8134 8.81488C17.7027 8.81488 18.5921 8.81488 19.4814 8.81488C19.4814 9.68875 19.4814 10.5623 19.4814 11.4362C24.1061 11.4362 28.7308 11.4362 33.3555 11.4362C33.3555 12.4191 33.3555 13.4021 33.3555 14.3851C35.1342 14.3851 36.913 14.3851 38.6917 14.3851C38.6917 15.259 38.6917 16.1325 38.6917 17.0064C33.1777 17.0064 27.6636 17.0064 22.1495 17.0064C22.1495 16.0234 22.1495 15.0404 22.1495 14.0574C20.3708 14.0574 18.5921 14.0574 16.8134 14.0574C16.8134 13.1836 16.8134 12.31 16.8134 11.4362C15.924 11.4362 15.0346 11.4362 14.1453 11.4362C14.1453 10.5623 14.1453 9.68875 14.1453 8.81488C15.0346 8.81488 15.924 8.81488 16.8134 8.81488Z" fill="#915D4F"/>
<path fill-rule="evenodd" clip-rule="evenodd" d="M16.8132 5.86597C18.5919 5.86597 20.3707 5.86597 22.1494 5.86597C22.1494 6.84895 22.1494 7.83192 22.1494 8.8149C46.3399 8.8149 70.5309 8.8149 94.7214 8.8149C94.7214 9.68877 94.7214 10.5623 94.7214 11.4362C107.528 11.4362 120.335 11.4362 133.142 11.4362C133.142 10.5623 133.142 9.68877 133.142 8.8149C135.099 8.8149 137.055 8.8149 139.012 8.8149C139.012 9.68877 139.012 10.5623 139.012 11.4362C141.68 11.4362 144.348 11.4362 147.016 11.4362C147.016 12.31 147.016 13.1836 147.016 14.0575C139.817 14.3838 132.525 14.4929 125.138 14.3851C122.292 14.3851 119.446 14.3851 116.6 14.3851C116.6 15.1495 116.6 15.9143 116.6 16.6787C91.6974 16.6787 66.7956 16.6787 41.8933 16.6787C41.8933 15.8049 41.8933 14.9313 41.8933 14.0575C39.9367 14.0575 37.9801 14.0575 36.0235 14.0575C36.0235 13.1836 36.0235 12.31 36.0235 11.4362C35.1341 11.4362 34.2448 11.4362 33.3554 11.4362C28.7307 11.4362 24.106 11.4362 19.4813 11.4362C19.4813 10.5623 19.4813 9.68877 19.4813 8.8149C18.5919 8.8149 17.7026 8.8149 16.8132 8.8149C16.8132 7.83192 16.8132 6.84895 16.8132 5.86597Z" fill="#AE7757"/>
<path fill-rule="evenodd" clip-rule="evenodd" d="M139.012 8.81488C142.569 8.81488 146.126 8.81488 149.684 8.81488C149.684 9.68875 149.684 10.5623 149.684 11.4362C148.973 11.4362 148.261 11.4362 147.55 11.4362C147.713 12.3815 147.535 13.2553 147.016 14.0574C147.016 13.1836 147.016 12.31 147.016 11.4362C144.348 11.4362 141.68 11.4362 139.012 11.4362C139.012 10.5623 139.012 9.68875 139.012 8.81488Z" fill="#A56F57"/>
<path fill-rule="evenodd" clip-rule="evenodd" d="M161.424 8.81488C164.092 8.81488 166.76 8.81488 169.428 8.81488C169.428 9.68875 169.428 10.5623 169.428 11.4362C166.76 11.4362 164.092 11.4362 161.424 11.4362C161.424 10.5623 161.424 9.68875 161.424 8.81488Z" fill="#A67058"/>
<path fill-rule="evenodd" clip-rule="evenodd" d="M236.13 8.81488C238.798 8.81488 241.466 8.81488 244.134 8.81488C244.134 9.68875 244.134 10.5623 244.134 11.4362C241.466 11.4362 238.798 11.4362 236.13 11.4362C236.13 10.5623 236.13 9.68875 236.13 8.81488Z" fill="#915E4F"/>
<path fill-rule="evenodd" clip-rule="evenodd" d="M330.581 8.81488C331.47 8.81488 332.359 8.81488 333.249 8.81488C333.249 9.68875 333.249 10.5623 333.249 11.4362C334.138 11.4362 335.027 11.4362 335.917 11.4362C335.917 12.31 335.917 13.1836 335.917 14.0574C334.138 14.0574 332.359 14.0574 330.581 14.0574C330.581 12.31 330.581 10.5623 330.581 8.81488Z" fill="#5F312C"/>
<path fill-rule="evenodd" clip-rule="evenodd" d="M149.684 8.81488C149.862 8.81488 150.04 8.81488 150.218 8.81488C150.218 9.68875 150.218 10.5623 150.218 11.4362C152.886 11.4362 155.554 11.4362 158.222 11.4362C158.222 13.293 158.222 15.1495 158.222 17.0064C147.194 17.0064 136.166 17.0064 125.138 17.0064C125.138 16.1325 125.138 15.259 125.138 14.3851C132.525 14.4929 139.818 14.3838 147.016 14.0574C147.535 13.2553 147.713 12.3815 147.55 11.4362C148.261 11.4362 148.973 11.4362 149.684 11.4362C149.684 10.5623 149.684 9.68875 149.684 8.81488Z" fill="#915D4F"/>
<path fill-rule="evenodd" clip-rule="evenodd" d="M160.89 8.81488C161.068 8.81488 161.246 8.81488 161.424 8.81488C161.424 9.68875 161.424 10.5623 161.424 11.4362C164.092 11.4362 166.76 11.4362 169.428 11.4362C169.428 12.31 169.428 13.1836 169.428 14.0574C170.318 14.0574 171.207 14.0574 172.096 14.0574C172.096 15.0404 172.096 16.0234 172.096 17.0064C168.361 17.0064 164.625 17.0064 160.89 17.0064C160.89 14.276 160.89 11.5453 160.89 8.81488Z" fill="#915D4F"/>
<path fill-rule="evenodd" clip-rule="evenodd" d="M227.592 11.4362C230.438 11.4362 233.284 11.4362 236.13 11.4362C238.798 11.4362 241.466 11.4362 244.135 11.4362C246.091 11.4362 248.048 11.4362 250.004 11.4362C250.004 12.4191 250.004 13.4021 250.004 14.3851C271.171 14.3851 292.338 14.3851 313.505 14.3851C313.505 15.259 313.505 16.1325 313.505 17.0064C318.13 17.0064 322.754 17.0064 327.379 17.0064C327.216 16.0611 327.393 15.1872 327.913 14.3851C327.913 16.1325 327.913 17.8802 327.913 19.6276C272.239 19.6276 216.564 19.6276 160.89 19.6276C160.89 18.7538 160.89 17.8802 160.89 17.0064C164.625 17.0064 168.361 17.0064 172.096 17.0064C172.986 17.0064 173.875 17.0064 174.764 17.0064C174.764 16.1325 174.764 15.259 174.764 14.3851C189.797 14.4935 204.739 14.3844 219.588 14.0574C222.256 14.0574 224.924 14.0574 227.592 14.0574C227.592 13.1836 227.592 12.31 227.592 11.4362Z" fill="#6C3F39"/>
<path fill-rule="evenodd" clip-rule="evenodd" d="M174.764 11.4362C174.764 12.31 174.764 13.1836 174.764 14.0574C173.874 14.0574 172.985 14.0574 172.096 14.0574C172.096 13.1836 172.096 12.31 172.096 11.4362C172.985 11.4362 173.874 11.4362 174.764 11.4362Z" fill="#6D4039"/>
<path fill-rule="evenodd" clip-rule="evenodd" d="M227.592 11.4362C227.592 12.31 227.592 13.1836 227.592 14.0574C224.924 14.0574 222.256 14.0574 219.588 14.0574C219.588 13.1836 219.588 12.31 219.588 11.4362C222.256 11.4362 224.924 11.4362 227.592 11.4362Z" fill="#925E50"/>
<path fill-rule="evenodd" clip-rule="evenodd" d="M327.913 3.24469C328.624 3.24469 329.336 3.24469 330.047 3.24469C330.225 3.24469 330.403 3.24469 330.581 3.24469C330.581 5.10154 330.581 6.95806 330.581 8.8149C330.581 10.5623 330.581 12.31 330.581 14.0575C332.359 14.0575 334.138 14.0575 335.917 14.0575C338.66 14.3812 341.506 14.4903 344.455 14.3851C344.455 15.259 344.455 16.1325 344.455 17.0064C339.83 17.0064 335.206 17.0064 330.581 17.0064C330.061 16.2043 329.884 15.3304 330.047 14.3851C329.336 14.3851 328.624 14.3851 327.913 14.3851C327.393 15.1872 327.216 16.0611 327.379 17.0064C322.754 17.0064 318.13 17.0064 313.505 17.0064C313.505 16.1325 313.505 15.259 313.505 14.3851C292.338 14.3851 271.171 14.3851 250.004 14.3851C250.004 13.4021 250.004 12.4192 250.004 11.4362C254.629 11.4362 259.254 11.4362 263.878 11.4362C263.878 12.31 263.878 13.1836 263.878 14.0575C284.156 14.0575 304.433 14.0575 324.711 14.0575C324.711 13.1836 324.711 12.31 324.711 11.4362C326.489 11.4362 328.269 11.4362 330.047 11.4362C330.047 10.5623 330.047 9.68877 330.047 8.8149C330.047 7.83192 330.047 6.84894 330.047 5.86597C329.336 5.86597 328.624 5.86597 327.913 5.86597C327.913 4.9921 327.913 4.11856 327.913 3.24469Z" fill="#8F5B4D"/>
<path fill-rule="evenodd" clip-rule="evenodd" d="M441.573 11.4362C442.463 11.4362 443.352 11.4362 444.241 11.4362C444.241 12.31 444.241 13.1836 444.241 14.0574C452.667 14.0044 461.027 14.1135 469.321 14.3851C468.432 14.3851 467.543 14.3851 466.653 14.3851C461.139 14.3851 455.625 14.3851 450.111 14.3851C450.111 15.259 450.111 16.1325 450.111 17.0064C444.419 17.0064 438.727 17.0064 433.035 17.0064C433.035 16.1325 433.035 15.259 433.035 14.3851C435.881 14.3851 438.727 14.3851 441.573 14.3851C441.573 13.4021 441.573 12.4191 441.573 11.4362Z" fill="#935F50"/>
<path fill-rule="evenodd" clip-rule="evenodd" d="M174.764 11.4362C175.283 12.2383 175.461 13.1121 175.298 14.0574C190.061 14.0574 204.824 14.0574 219.588 14.0574C204.739 14.3844 189.797 14.4935 174.764 14.3851C174.764 14.276 174.764 14.1665 174.764 14.0574C174.764 13.1836 174.764 12.31 174.764 11.4362Z" fill="#8D5B48"/>
<path fill-rule="evenodd" clip-rule="evenodd" d="M2.93921 14.3851C3.82859 14.3851 4.71792 14.3851 5.6073 14.3851C5.6073 15.259 5.6073 16.1325 5.6073 17.0064C4.71792 17.0064 3.82859 17.0064 2.93921 17.0064C2.93921 16.1325 2.93921 15.259 2.93921 14.3851Z" fill="#503B3B"/>
<path fill-rule="evenodd" clip-rule="evenodd" d="M172.096 14.0574C172.985 14.0574 173.874 14.0574 174.764 14.0574C174.764 14.1665 174.764 14.276 174.764 14.3851C174.764 15.259 174.764 16.1325 174.764 17.0064C173.874 17.0064 172.985 17.0064 172.096 17.0064C172.096 16.0234 172.096 15.0404 172.096 14.0574Z" fill="#523B3C"/>
<path fill-rule="evenodd" clip-rule="evenodd" d="M344.455 14.3851C349.872 14.0594 355.386 13.95 360.997 14.0575C360.997 15.0404 360.997 16.0234 360.997 17.0064C358.151 17.0064 355.305 17.0064 352.459 17.0064C352.459 16.1325 352.459 15.259 352.459 14.3851C351.569 14.3851 350.68 14.3851 349.791 14.3851C348.901 14.3851 348.012 14.3851 347.123 14.3851C346.233 14.3851 345.344 14.3851 344.455 14.3851Z" fill="#925E4F"/>
<path fill-rule="evenodd" clip-rule="evenodd" d="M383.409 14.3851C389.717 14.0591 396.121 13.95 402.619 14.0574C402.619 15.0404 402.619 16.0234 402.619 17.0064C399.773 17.0064 396.927 17.0064 394.081 17.0064C394.081 16.1325 394.081 15.259 394.081 14.3851C390.523 14.3851 386.966 14.3851 383.409 14.3851Z" fill="#925E4F"/>
<path fill-rule="evenodd" clip-rule="evenodd" d="M33.3555 11.4362C34.2448 11.4362 35.1342 11.4362 36.0236 11.4362C36.0236 12.31 36.0236 13.1836 36.0236 14.0574C37.9802 14.0574 39.9367 14.0574 41.8934 14.0574C41.8934 14.9313 41.8934 15.8048 41.8934 16.6787C66.7957 16.6787 91.6975 16.6787 116.6 16.6787C116.6 15.9143 116.6 15.1495 116.6 14.3851C119.446 14.3851 122.292 14.3851 125.138 14.3851C125.138 15.259 125.138 16.1325 125.138 17.0064C105.75 17.0064 86.3613 17.0064 66.9734 17.0064C59.5027 17.0064 52.0321 17.0064 44.5614 17.0064C42.6048 17.0064 40.6483 17.0064 38.6916 17.0064C38.6916 16.1325 38.6916 15.259 38.6916 14.3851C36.9129 14.3851 35.1342 14.3851 33.3555 14.3851C33.3555 13.4021 33.3555 12.4191 33.3555 11.4362Z" fill="#A67055"/>
<path fill-rule="evenodd" clip-rule="evenodd" d="M44.5613 17.0063C52.0319 17.0063 59.5026 17.0063 66.9732 17.0063C66.9732 17.8802 66.9732 18.7538 66.9732 19.6276C59.5026 19.6276 52.0319 19.6276 44.5613 19.6276C44.5613 18.7538 44.5613 17.8802 44.5613 17.0063Z" fill="#915D4F"/>
<path fill-rule="evenodd" clip-rule="evenodd" d="M66.9734 17.0063C86.3613 17.0063 105.75 17.0063 125.138 17.0063C136.166 17.0063 147.194 17.0063 158.222 17.0063C158.222 17.8802 158.222 18.7538 158.222 19.6276C127.806 19.6276 97.3896 19.6276 66.9734 19.6276C66.9734 18.7538 66.9734 17.8802 66.9734 17.0063Z" fill="#6B3F38"/>
<path fill-rule="evenodd" clip-rule="evenodd" d="M466.653 14.3851C467.543 14.3851 468.432 14.3851 469.321 14.3851C469.321 15.259 469.321 16.1325 469.321 17.0064C468.432 17.0064 467.543 17.0064 466.653 17.0064C466.653 16.1325 466.653 15.259 466.653 14.3851Z" fill="#533C3C"/>
<path fill-rule="evenodd" clip-rule="evenodd" d="M347.123 14.3851C348.012 14.3851 348.901 14.3851 349.791 14.3851C349.791 15.259 349.791 16.1325 349.791 17.0064C348.901 17.0064 348.012 17.0064 347.123 17.0064C347.123 16.1325 347.123 15.259 347.123 14.3851Z" fill="#503B3B"/>
</svg>
