<svg width="400" height="35" viewBox="0 0 400 35" fill="none" xmlns="http://www.w3.org/2000/svg">
<path fill-rule="evenodd" clip-rule="evenodd" d="M2.69312 20.3835C13.9343 20.3835 25.1758 20.3835 36.417 20.3835C36.417 21.1579 36.417 21.9323 36.417 22.7067C25.1758 22.7067 13.9343 22.7067 2.69312 22.7067C2.69312 21.9323 2.69312 21.1579 2.69312 20.3835Z" fill="#895047"/>
<path fill-rule="evenodd" clip-rule="evenodd" d="M36.417 20.3835C39.6378 20.3835 42.8586 20.3835 46.0794 20.3835C46.0794 21.1579 46.0794 21.9323 46.0794 22.7067C43.646 22.6428 41.2461 22.7067 38.88 22.9003C32.4383 22.9003 25.9967 22.9003 19.555 22.9003C14.6922 22.9003 9.8295 22.9003 4.96663 22.9003C4.20879 22.9003 3.45095 22.9003 2.69312 22.9003C2.69312 22.8364 2.69312 22.7706 2.69312 22.7067C13.9343 22.7067 25.1758 22.7067 36.417 22.7067C36.417 21.9323 36.417 21.1579 36.417 20.3835Z" fill="#B17550"/>
<path fill-rule="evenodd" clip-rule="evenodd" d="M63.1309 20.3835C76.0141 20.3835 88.8974 20.3835 101.781 20.3835C101.781 21.1579 101.781 21.9323 101.781 22.7067C109.801 22.7067 117.822 22.7067 125.842 22.7067C125.842 22.7706 125.842 22.8364 125.842 22.9003C114.601 22.9003 103.359 22.9003 92.1182 22.9003C83.2136 22.9003 74.309 22.9003 65.4044 22.9003C64.6465 22.9003 63.8887 22.9003 63.1309 22.9003C63.1309 22.062 63.1309 21.2218 63.1309 20.3835Z" fill="#B4784F"/>
<path fill-rule="evenodd" clip-rule="evenodd" d="M101.781 20.3835C109.801 20.3835 117.822 20.3835 125.842 20.3835C125.842 21.1579 125.842 21.9323 125.842 22.7067C117.822 22.7067 109.801 22.7067 101.781 22.7067C101.781 21.9323 101.781 21.1579 101.781 20.3835Z" fill="#895047"/>
<path fill-rule="evenodd" clip-rule="evenodd" d="M273.242 20.3835C273.242 21.1579 273.242 21.9323 273.242 22.7067C237.813 22.7067 202.384 22.7067 166.955 22.7067C166.955 21.9323 166.955 21.1579 166.955 20.3835C202.384 20.3835 237.813 20.3835 273.242 20.3835Z" fill="#8A5048"/>
<path fill-rule="evenodd" clip-rule="evenodd" d="M273.242 20.3835C293.387 20.3835 313.534 20.3835 333.68 20.3835C333.68 21.1579 333.68 21.9323 333.68 22.7067C344.985 22.7067 356.288 22.7067 367.593 22.7067C367.593 22.7706 367.593 22.8364 367.593 22.9003C353.889 22.9003 340.184 22.9003 326.48 22.9003C311.954 22.9003 297.43 22.9003 282.904 22.9003C244.254 22.9003 205.605 22.9003 166.955 22.9003C166.955 22.8364 166.955 22.7706 166.955 22.7067C202.384 22.7067 237.813 22.7067 273.242 22.7067C273.242 21.9323 273.242 21.1579 273.242 20.3835Z" fill="#B37750"/>
<path fill-rule="evenodd" clip-rule="evenodd" d="M333.68 20.3835C344.985 20.3835 356.288 20.3835 367.593 20.3835C367.593 21.1579 367.593 21.9323 367.593 22.7067C356.288 22.7067 344.985 22.7067 333.68 22.7067C333.68 21.9323 333.68 21.1579 333.68 20.3835Z" fill="#8A5048"/>
<path fill-rule="evenodd" clip-rule="evenodd" d="M367.593 20.3835C374.855 20.3835 382.119 20.3835 389.381 20.3835C389.381 21.1579 389.381 21.9323 389.381 22.7067C390.959 22.7067 392.539 22.7067 394.117 22.7067C394.117 22.7706 394.117 22.8364 394.117 22.9003C391.717 22.9003 389.318 22.9003 386.918 22.9003C380.476 22.9003 374.035 22.9003 367.593 22.9003C367.593 22.8364 367.593 22.7706 367.593 22.7067C367.593 21.9323 367.593 21.1579 367.593 20.3835Z" fill="#B4784E"/>
<path fill-rule="evenodd" clip-rule="evenodd" d="M389.381 20.3835C390.959 20.3835 392.539 20.3835 394.117 20.3835C394.117 21.1579 394.117 21.9323 394.117 22.7067C392.539 22.7067 390.959 22.7067 389.381 22.7067C389.381 21.9323 389.381 21.1579 389.381 20.3835Z" fill="#895047"/>
<path opacity="0.863" fill-rule="evenodd" clip-rule="evenodd" d="M63.131 20.3835C63.131 21.2218 63.131 22.062 63.131 22.9003C60.668 22.9003 58.205 22.9003 55.742 22.9003C54.9842 22.9003 54.2263 22.9003 53.4685 22.9003C56.5931 22.7067 59.7506 22.6428 62.9415 22.7067C62.8814 21.8936 62.9447 21.1192 63.131 20.3835Z" fill="#D0A98B"/>
<path opacity="0.863" fill-rule="evenodd" clip-rule="evenodd" d="M125.842 20.3835C126.028 21.1192 126.092 21.8936 126.032 22.7067C139.673 22.7067 153.314 22.7067 166.955 22.7067C166.955 22.7706 166.955 22.8364 166.955 22.9003C153.314 22.9003 139.673 22.9003 126.032 22.9003C125.968 22.9003 125.905 22.9003 125.842 22.9003C125.842 22.8364 125.842 22.7706 125.842 22.7067C125.842 21.9323 125.842 21.1579 125.842 20.3835Z" fill="#BF9887"/>
<path fill-rule="evenodd" clip-rule="evenodd" d="M394.117 20.3835C394.303 21.1192 394.368 21.8936 394.307 22.7067C395.065 22.7067 395.823 22.7067 396.58 22.7067C396.58 22.7706 396.58 22.8364 396.58 22.9003C395.823 22.9003 395.065 22.9003 394.307 22.9003C394.244 22.9003 394.18 22.9003 394.117 22.9003C394.117 22.8364 394.117 22.7706 394.117 22.7067C394.117 21.9323 394.117 21.1579 394.117 20.3835Z" fill="#D2AD91"/>
<path fill-rule="evenodd" clip-rule="evenodd" d="M2.6932 22.9003C3.45104 22.9003 4.20888 22.9003 4.96672 22.9003C4.96672 23.6746 4.96672 24.449 4.96672 25.2234C9.82959 25.2234 14.6923 25.2234 19.5551 25.2234C19.5551 24.449 19.5551 23.6746 19.5551 22.9003C25.9968 22.9003 32.4384 22.9003 38.8801 22.9003C38.8801 23.6746 38.8801 24.449 38.8801 25.2234C41.2462 25.417 43.6461 25.4809 46.0795 25.417C46.0795 26.1914 46.0795 26.9658 46.0795 27.7402C31.6175 27.7402 17.1552 27.7402 2.6932 27.7402C1.87227 27.7402 1.05115 27.7402 0.230225 27.7402C0.230225 26.9019 0.230225 26.0617 0.230225 25.2234C1.05115 25.2234 1.87227 25.2234 2.6932 25.2234C2.6932 24.449 2.6932 23.6746 2.6932 22.9003Z" fill="#DC9C6F"/>
<path fill-rule="evenodd" clip-rule="evenodd" d="M4.9668 22.9003C9.82966 22.9003 14.6923 22.9003 19.5552 22.9003C19.5552 23.6746 19.5552 24.449 19.5552 25.2234C14.6923 25.2234 9.82966 25.2234 4.9668 25.2234C4.9668 24.449 4.9668 23.6746 4.9668 22.9003Z" fill="#F6C9A9"/>
<path fill-rule="evenodd" clip-rule="evenodd" d="M38.8799 22.9003C41.2798 22.9003 43.6795 22.9003 46.0794 22.9003C46.0794 23.6746 46.0794 24.449 46.0794 25.2234C43.6795 25.2234 41.2798 25.2234 38.8799 25.2234C38.8799 24.449 38.8799 23.6746 38.8799 22.9003Z" fill="#F6C9A9"/>
<path fill-rule="evenodd" clip-rule="evenodd" d="M48.5426 22.9003C48.5426 23.6746 48.5426 24.449 48.5426 25.2234C47.7847 25.2234 47.0269 25.2234 46.269 25.2234C46.269 24.449 46.269 23.6746 46.269 22.9003C47.0269 22.9003 47.7847 22.9003 48.5426 22.9003Z" fill="#B2774C"/>
<path fill-rule="evenodd" clip-rule="evenodd" d="M53.4685 22.9003C54.2263 22.9003 54.9842 22.9003 55.742 22.9003C55.742 23.6746 55.742 24.449 55.742 25.2234C54.9842 25.2234 54.2263 25.2234 53.4685 25.2234C53.4685 24.449 53.4685 23.6746 53.4685 22.9003Z" fill="#895047"/>
<path fill-rule="evenodd" clip-rule="evenodd" d="M55.7419 22.9003C58.2049 22.9003 60.6679 22.9003 63.1309 22.9003C63.1309 23.6746 63.1309 24.449 63.1309 25.2234C60.6679 25.2234 58.2049 25.2234 55.7419 25.2234C55.7419 24.449 55.7419 23.6746 55.7419 22.9003Z" fill="#B2764D"/>
<path fill-rule="evenodd" clip-rule="evenodd" d="M63.131 22.9003C63.8888 22.9003 64.6466 22.9003 65.4045 22.9003C65.4045 23.6746 65.4045 24.449 65.4045 25.2234C74.3091 25.2234 83.2137 25.2234 92.1183 25.2234C92.1183 24.449 92.1183 23.6746 92.1183 22.9003C103.36 22.9003 114.601 22.9003 125.842 22.9003C125.842 23.7385 125.842 24.5787 125.842 25.417C139.578 25.4809 153.283 25.417 166.955 25.2234C166.955 24.449 166.955 23.6746 166.955 22.9003C205.605 22.9003 244.255 22.9003 282.904 22.9003C282.904 23.6746 282.904 24.449 282.904 25.2234C297.43 25.2234 311.954 25.2234 326.48 25.2234C326.48 24.449 326.48 23.6746 326.48 22.9003C340.184 22.9003 353.889 22.9003 367.593 22.9003C374.035 22.9003 380.476 22.9003 386.918 22.9003C386.918 23.6746 386.918 24.449 386.918 25.2234C389.318 25.2234 391.717 25.2234 394.117 25.2234C394.117 24.449 394.117 23.6746 394.117 22.9003C394.18 22.9003 394.244 22.9003 394.307 22.9003C394.307 23.6746 394.307 24.449 394.307 25.2234C395.065 25.2234 395.823 25.2234 396.58 25.2234C396.58 26.0617 396.58 26.9019 396.58 27.7402C282.209 27.7402 167.839 27.7402 53.4685 27.7402C53.4685 26.9658 53.4685 26.1914 53.4685 25.417C53.4685 25.3531 53.4685 25.2873 53.4685 25.2234C54.2263 25.2234 54.9842 25.2234 55.742 25.2234C58.205 25.2234 60.668 25.2234 63.131 25.2234C63.131 24.449 63.131 23.6746 63.131 22.9003Z" fill="#DC9C6F"/>
<path fill-rule="evenodd" clip-rule="evenodd" d="M65.4043 22.9003C74.3089 22.9003 83.2135 22.9003 92.1181 22.9003C92.1181 23.6746 92.1181 24.449 92.1181 25.2234C83.2135 25.2234 74.3089 25.2234 65.4043 25.2234C65.4043 24.449 65.4043 23.6746 65.4043 22.9003Z" fill="#F6C9A9"/>
<path fill-rule="evenodd" clip-rule="evenodd" d="M126.031 22.9003C139.673 22.9003 153.314 22.9003 166.955 22.9003C166.955 23.6746 166.955 24.449 166.955 25.2234C153.314 25.2234 139.673 25.2234 126.031 25.2234C126.031 24.449 126.031 23.6746 126.031 22.9003Z" fill="#895047"/>
<path fill-rule="evenodd" clip-rule="evenodd" d="M282.904 22.9003C297.43 22.9003 311.954 22.9003 326.48 22.9003C326.48 23.6746 326.48 24.449 326.48 25.2234C311.954 25.2234 297.43 25.2234 282.904 25.2234C282.904 24.449 282.904 23.6746 282.904 22.9003Z" fill="#F6C9A9"/>
<path fill-rule="evenodd" clip-rule="evenodd" d="M386.918 22.9003C389.318 22.9003 391.717 22.9003 394.117 22.9003C394.117 23.6746 394.117 24.449 394.117 25.2234C391.717 25.2234 389.318 25.2234 386.918 25.2234C386.918 24.449 386.918 23.6746 386.918 22.9003Z" fill="#F6CAA9"/>
<path fill-rule="evenodd" clip-rule="evenodd" d="M394.307 22.9003C395.065 22.9003 395.823 22.9003 396.58 22.9003C396.58 23.6746 396.58 24.449 396.58 25.2234C395.823 25.2234 395.065 25.2234 394.307 25.2234C394.307 24.449 394.307 23.6746 394.307 22.9003Z" fill="#B2774C"/>
<path fill-rule="evenodd" clip-rule="evenodd" d="M46.0794 20.3835C46.2656 21.1192 46.3289 21.8936 46.2688 22.7067C47.0649 22.6447 47.8228 22.7106 48.5423 22.9003C47.7845 22.9003 47.0267 22.9003 46.2688 22.9003C46.2688 23.6747 46.2688 24.449 46.2688 25.2234C47.0267 25.2234 47.7845 25.2234 48.5423 25.2234C48.5423 25.2873 48.5423 25.3531 48.5423 25.417C47.7214 25.417 46.9003 25.417 46.0794 25.417C43.6459 25.4809 41.246 25.417 38.8799 25.2234C41.2798 25.2234 43.6795 25.2234 46.0794 25.2234C46.0794 24.449 46.0794 23.6747 46.0794 22.9003C43.6795 22.9003 41.2798 22.9003 38.8799 22.9003C41.246 22.7067 43.6459 22.6428 46.0794 22.7067C46.0794 21.9323 46.0794 21.1579 46.0794 20.3835Z" fill="#D7A37E"/>
<path opacity="0.918" fill-rule="evenodd" clip-rule="evenodd" d="M53.4684 22.9003C53.4684 23.6746 53.4684 24.449 53.4684 25.2234C53.4684 25.2873 53.4684 25.3531 53.4684 25.417C53.4053 25.417 53.3421 25.417 53.279 25.417C51.7002 25.417 50.1213 25.417 48.5425 25.417C48.5425 25.3531 48.5425 25.2873 48.5425 25.2234C50.1213 25.2234 51.7002 25.2234 53.279 25.2234C53.2189 24.4103 53.2822 23.6359 53.4684 22.9003Z" fill="#AE8172"/>
<path fill-rule="evenodd" clip-rule="evenodd" d="M125.842 22.9003C125.905 22.9003 125.968 22.9003 126.032 22.9003C126.032 23.6746 126.032 24.449 126.032 25.2234C139.673 25.2234 153.314 25.2234 166.955 25.2234C153.282 25.417 139.578 25.4809 125.842 25.417C125.842 24.5787 125.842 23.7385 125.842 22.9003Z" fill="#BC7F5F"/>
<path fill-rule="evenodd" clip-rule="evenodd" d="M46.0796 25.417C46.9005 25.417 47.7216 25.417 48.5426 25.417C48.5426 26.1914 48.5426 26.9658 48.5426 27.7401C47.7216 27.7401 46.9005 27.7401 46.0796 27.7401C46.0796 26.9658 46.0796 26.1914 46.0796 25.417Z" fill="#F6C8A8"/>
<path fill-rule="evenodd" clip-rule="evenodd" d="M48.5425 25.417C50.1213 25.417 51.7002 25.417 53.279 25.417C53.279 26.1914 53.279 26.9658 53.279 27.7401C51.7002 27.7401 50.1213 27.7401 48.5425 27.7401C48.5425 26.9658 48.5425 26.1914 48.5425 25.417Z" fill="#8A5048"/>
<path fill-rule="evenodd" clip-rule="evenodd" d="M53.2791 25.417C53.3421 25.417 53.4054 25.417 53.4685 25.417C53.4685 26.1914 53.4685 26.9658 53.4685 27.7401C167.839 27.7401 282.209 27.7401 396.58 27.7401C396.58 27.804 396.58 27.8698 396.58 27.9337C282.114 27.9976 167.681 27.9337 53.2791 27.7401C53.2791 26.9658 53.2791 26.1914 53.2791 25.417Z" fill="#B37B59"/>
<path fill-rule="evenodd" clip-rule="evenodd" d="M0.230225 27.7402C1.05115 27.7402 1.87227 27.7402 2.6932 27.7402C2.6932 28.5785 2.6932 29.4187 2.6932 30.257C17.9764 30.257 33.2593 30.257 48.5425 30.257C48.5425 31.0952 48.5425 31.9354 48.5425 32.7737C34.0805 32.7737 19.6182 32.7737 5.15618 32.7737C3.51413 32.7737 1.87227 32.7737 0.230225 32.7737C0.230225 31.0952 0.230225 29.4187 0.230225 27.7402Z" fill="#915D4F"/>
<path fill-rule="evenodd" clip-rule="evenodd" d="M2.69312 27.7402C17.1552 27.7402 31.6174 27.7402 46.0794 27.7402C46.9004 27.7402 47.7215 27.7402 48.5424 27.7402C50.1212 27.7402 51.7001 27.7402 53.2789 27.7402C167.681 27.9338 282.114 27.9977 396.58 27.9338C396.58 29.5465 396.58 31.1611 396.58 32.7737C394.938 32.7737 393.297 32.7737 391.654 32.7737C391.654 31.9354 391.654 31.0952 391.654 30.257C383.635 30.257 375.613 30.257 367.593 30.257C367.593 31.0952 367.593 31.9354 367.593 32.7737C357.11 32.7737 346.625 32.7737 336.143 32.7737C336.143 31.9354 336.143 31.0952 336.143 30.257C330.521 30.257 324.902 30.257 319.281 30.257C319.281 31.0952 319.281 31.9354 319.281 32.7737C299.135 32.7737 278.988 32.7737 258.843 32.7737C258.843 31.9354 258.843 31.0952 258.843 30.257C239.518 30.257 220.193 30.257 200.868 30.257C200.868 31.0314 200.868 31.8057 200.868 32.5801C182.364 32.5801 163.86 32.5801 145.356 32.5801C145.417 31.767 145.353 30.9926 145.167 30.257C127.484 30.257 109.801 30.257 92.1182 30.257C92.1182 31.0952 92.1182 31.9354 92.1182 32.7737C77.5929 32.7737 63.0677 32.7737 48.5424 32.7737C48.5424 31.9354 48.5424 31.0952 48.5424 30.257C33.2593 30.257 17.9763 30.257 2.69312 30.257C2.69312 29.4187 2.69312 28.5785 2.69312 27.7402Z" fill="#AE7756"/>
<path fill-rule="evenodd" clip-rule="evenodd" d="M145.167 30.257C145.167 31.0952 145.167 31.9354 145.167 32.7737C127.484 32.7737 109.801 32.7737 92.1182 32.7737C92.1182 31.9354 92.1182 31.0952 92.1182 30.257C109.801 30.257 127.484 30.257 145.167 30.257Z" fill="#915D4F"/>
<path fill-rule="evenodd" clip-rule="evenodd" d="M258.843 32.7737C239.518 32.7737 220.193 32.7737 200.868 32.7737C200.868 32.7098 200.868 32.644 200.868 32.5801C200.868 31.8057 200.868 31.0313 200.868 30.257C220.193 30.257 239.518 30.257 258.843 30.257C258.843 31.0952 258.843 31.9354 258.843 32.7737Z" fill="#915D4F"/>
<path fill-rule="evenodd" clip-rule="evenodd" d="M336.143 32.7737C330.521 32.7737 324.902 32.7737 319.281 32.7737C319.281 31.9354 319.281 31.0952 319.281 30.257C324.902 30.257 330.521 30.257 336.143 30.257C336.143 31.0952 336.143 31.9354 336.143 32.7737Z" fill="#915D4F"/>
<path fill-rule="evenodd" clip-rule="evenodd" d="M391.654 32.7737C383.635 32.7737 375.613 32.7737 367.593 32.7737C367.593 31.9354 367.593 31.0952 367.593 30.257C375.613 30.257 383.635 30.257 391.654 30.257C391.654 31.0952 391.654 31.9354 391.654 32.7737Z" fill="#915D4F"/>
<path fill-rule="evenodd" clip-rule="evenodd" d="M145.167 30.257C145.353 30.9926 145.417 31.767 145.356 32.5801C163.86 32.5801 182.364 32.5801 200.868 32.5801C200.868 32.644 200.868 32.7098 200.868 32.7737C182.301 32.7737 163.734 32.7737 145.167 32.7737C145.167 31.9354 145.167 31.0952 145.167 30.257Z" fill="#A06951"/>
<path opacity="0.932" fill-rule="evenodd" clip-rule="evenodd" d="M398.854 0.636841C398.917 0.636841 398.981 0.636841 399.043 0.636841C399.043 1.41122 399.043 2.1856 399.043 2.95998C399.043 3.02387 399.043 3.08969 399.043 3.15358C399.043 12.9631 399.043 22.7706 399.043 32.5801C399.043 32.644 399.043 32.7098 399.043 32.7737C399.043 33.4842 399.043 34.1927 399.043 34.9032C267.748 34.9032 136.452 34.9032 5.15625 34.9032C5.15625 34.1927 5.15625 33.4842 5.15625 32.7737C19.6183 32.7737 34.0805 32.7737 48.5426 32.7737C63.0679 32.7737 77.593 32.7737 92.1184 32.7737C109.801 32.7737 127.484 32.7737 145.167 32.7737C163.734 32.7737 182.301 32.7737 200.868 32.7737C220.193 32.7737 239.518 32.7737 258.843 32.7737C278.988 32.7737 299.136 32.7737 319.281 32.7737C324.902 32.7737 330.521 32.7737 336.143 32.7737C346.626 32.7737 357.11 32.7737 367.593 32.7737C375.613 32.7737 383.635 32.7737 391.655 32.7737C393.297 32.7737 394.938 32.7737 396.58 32.7737C397.338 32.7737 398.096 32.7737 398.854 32.7737C398.854 30.2569 398.854 27.7402 398.854 25.2234C398.854 17.0286 398.854 8.83173 398.854 0.636841Z" fill="#8A5048"/>
</svg>
