<svg width="11" height="11" viewBox="0 0 11 11" fill="none" xmlns="http://www.w3.org/2000/svg">
<path d="M5.8894 0.860107C3.128 0.860107 0.889404 3.0987 0.889404 5.86011C0.889404 8.62167 3.128 10.8601 5.8894 10.8601C8.65097 10.8601 10.8894 8.62167 10.8894 5.86011C10.8894 3.0987 8.65097 0.860107 5.8894 0.860107ZM5.8894 10.245C3.47706 10.245 1.5144 8.27245 1.5144 5.86009C1.5144 3.44774 3.47706 1.48509 5.8894 1.48509C8.30175 1.48509 10.2644 3.44775 10.2644 5.86009C10.2644 8.27242 8.30175 10.245 5.8894 10.245ZM7.88487 4.03058L4.95127 6.98261L3.63018 5.66151C3.50814 5.53948 3.31033 5.53948 3.18814 5.66151C3.06611 5.78355 3.06611 5.98136 3.18814 6.10339L4.73486 7.65026C4.85689 7.77214 5.05471 7.77214 5.17689 7.65026C5.19096 7.6362 5.203 7.62088 5.21394 7.60495L8.32706 4.4726C8.44894 4.35057 8.44894 4.15275 8.32706 4.03058C8.20487 3.90855 8.00706 3.90855 7.88487 4.03058Z" fill="#7B2E2E"/>
</svg>
