<svg width="16" height="16" viewBox="0 0 16 16" fill="none" xmlns="http://www.w3.org/2000/svg">
<path d="M12.2 3.80669C12.1384 3.74489 12.0651 3.69586 11.9844 3.66241C11.9038 3.62895 11.8173 3.61173 11.73 3.61173C11.6427 3.61173 11.5563 3.62895 11.4756 3.66241C11.395 3.69586 11.3217 3.74489 11.26 3.80669L8.00003 7.06003L4.74003 3.80003C4.67831 3.73831 4.60503 3.68935 4.52439 3.65594C4.44375 3.62254 4.35731 3.60535 4.27003 3.60535C4.18274 3.60535 4.09631 3.62254 4.01566 3.65594C3.93502 3.68935 3.86175 3.73831 3.80003 3.80003C3.73831 3.86175 3.68935 3.93502 3.65594 4.01566C3.62254 4.09631 3.60535 4.18274 3.60535 4.27003C3.60535 4.35731 3.62254 4.44375 3.65594 4.52439C3.68935 4.60503 3.73831 4.67831 3.80003 4.74003L7.06003 8.00003L3.80003 11.26C3.73831 11.3217 3.68935 11.395 3.65594 11.4757C3.62254 11.5563 3.60535 11.6427 3.60535 11.73C3.60535 11.8173 3.62254 11.9037 3.65594 11.9844C3.68935 12.065 3.73831 12.1383 3.80003 12.2C3.86175 12.2617 3.93502 12.3107 4.01566 12.3441C4.09631 12.3775 4.18274 12.3947 4.27003 12.3947C4.35731 12.3947 4.44375 12.3775 4.52439 12.3441C4.60503 12.3107 4.67831 12.2617 4.74003 12.2L8.00003 8.94003L11.26 12.2C11.3217 12.2617 11.395 12.3107 11.4757 12.3441C11.5563 12.3775 11.6427 12.3947 11.73 12.3947C11.8173 12.3947 11.9037 12.3775 11.9844 12.3441C12.065 12.3107 12.1383 12.2617 12.2 12.2C12.2617 12.1383 12.3107 12.065 12.3441 11.9844C12.3775 11.9037 12.3947 11.8173 12.3947 11.73C12.3947 11.6427 12.3775 11.5563 12.3441 11.4757C12.3107 11.395 12.2617 11.3217 12.2 11.26L8.94003 8.00003L12.2 4.74003C12.4534 4.48669 12.4534 4.06003 12.2 3.80669Z" fill="#7B2E2E"/>
</svg>
