<svg width="37" height="37" viewBox="0 0 37 37" fill="none" xmlns="http://www.w3.org/2000/svg">
<path d="M18.0947 0.240723C28.0394 0.240723 36.0947 8.29608 36.0947 18.2407C36.0947 28.1854 28.0394 36.2407 18.0947 36.2407C8.15009 36.2407 0.0947266 28.1854 0.0947266 18.2407C0.0947266 8.29608 8.15009 0.240723 18.0947 0.240723Z" fill="#0052FF"/>
<path d="M18.1155 24.5729C14.6277 24.5729 11.7834 21.7494 11.7834 18.2407C11.7834 14.7321 14.6069 11.9085 18.1155 11.9085C21.2505 11.9085 23.8456 14.1923 24.3439 17.1819H30.7176C30.1778 10.6836 24.7384 5.57635 18.0948 5.57635C11.0982 5.57635 5.43042 11.2442 5.43042 18.2407C5.43042 25.2373 11.0982 30.9051 18.0948 30.9051C24.7384 30.9051 30.1778 25.7978 30.7176 19.2995H24.3439C23.8456 22.2892 21.2505 24.5729 18.1155 24.5729Z" fill="white"/>
</svg>
