<svg width="15" height="47" viewBox="0 0 15 47" fill="none" xmlns="http://www.w3.org/2000/svg">
<path fill-rule="evenodd" clip-rule="evenodd" d="M0.401367 0.338257C1.29073 0.338257 2.18009 0.338257 3.06946 0.338257C3.06946 2.19501 3.06946 4.05172 3.06946 5.90847C3.06946 6.78224 3.06946 7.65598 3.06946 8.52975C3.06946 10.3865 3.06946 12.2432 3.06946 14.1C3.95884 14.1 4.84817 14.1 5.73755 14.1C5.56092 22.3479 5.73877 30.5393 6.27116 38.6744C6.27116 41.4048 6.27116 44.1355 6.27116 46.8659C4.31455 46.8659 2.35797 46.8659 0.401367 46.8659C0.401367 31.3568 0.401367 15.8475 0.401367 0.338257Z" fill="#6B3E38"/>
<path fill-rule="evenodd" clip-rule="evenodd" d="M8.93909 0.338257C9.82847 0.338257 10.7178 0.338257 11.6072 0.338257C11.6072 1.21203 11.6072 2.08576 11.6072 2.95953C12.4966 2.95953 13.3859 2.95953 14.2753 2.95953C14.2753 3.06874 14.2753 3.17798 14.2753 3.28719C13.3859 3.28719 12.4966 3.28719 11.6072 3.28719C11.6072 4.16096 11.6072 5.0347 11.6072 5.90847C10.7178 5.90847 9.82847 5.90847 8.93909 5.90847C8.93909 6.78224 8.93909 7.65598 8.93909 8.52975C8.93909 9.51272 8.93909 10.4957 8.93909 11.4787C9.82847 11.4787 10.7178 11.4787 11.6072 11.4787C11.6072 16.9397 11.6072 22.4007 11.6072 27.8617C10.7178 27.8617 9.82847 27.8617 8.93909 27.8617C8.93909 23.2744 8.93909 18.6872 8.93909 14.1C8.0497 14.1 7.16038 14.1 6.271 14.1C6.271 10.4957 6.271 6.89145 6.271 3.28719C7.16038 3.28719 8.0497 3.28719 8.93909 3.28719C8.93909 2.30421 8.93909 1.32124 8.93909 0.338257Z" fill="#AE7757"/>
<path fill-rule="evenodd" clip-rule="evenodd" d="M3.06934 0.338257C5.02595 0.338257 6.98252 0.338257 8.93913 0.338257C8.93913 1.32124 8.93913 2.30421 8.93913 3.28719C8.04975 3.28719 7.16042 3.28719 6.27104 3.28719C6.27104 6.89145 6.27104 10.4957 6.27104 14.1C7.16042 14.1 8.04975 14.1 8.93913 14.1C8.93913 18.6872 8.93913 23.2744 8.93913 27.8617C8.04975 27.8617 7.16042 27.8617 6.27104 27.8617C6.27104 31.4659 6.27104 35.0702 6.27104 38.6744C5.73865 30.5393 5.5608 22.3479 5.73743 14.1C4.84804 14.1 3.95872 14.1 3.06934 14.1C3.06934 12.2432 3.06934 10.3865 3.06934 8.52975C3.95872 8.52975 4.84804 8.52975 5.73743 8.52975C5.73743 7.65598 5.73743 6.78224 5.73743 5.90847C4.84804 5.90847 3.95872 5.90847 3.06934 5.90847C3.06934 4.05172 3.06934 2.19501 3.06934 0.338257Z" fill="#915D4E"/>
<path fill-rule="evenodd" clip-rule="evenodd" d="M8.93921 41.6234C9.82859 41.6234 10.7179 41.6234 11.6073 41.6234C11.6073 42.4973 11.6073 43.3708 11.6073 44.2447C10.7179 44.2447 9.82859 44.2447 8.93921 44.2447C8.93921 43.3708 8.93921 42.4973 8.93921 41.6234Z" fill="#AE7856"/>
<path fill-rule="evenodd" clip-rule="evenodd" d="M3.06934 41.2958C3.95872 41.2958 4.84804 41.2958 5.73743 41.2958C5.73743 42.2788 5.73743 43.2617 5.73743 44.2447C4.84804 44.2447 3.95872 44.2447 3.06934 44.2447C3.06934 43.2617 3.06934 42.2788 3.06934 41.2958Z" fill="#523B3B"/>
<path fill-rule="evenodd" clip-rule="evenodd" d="M8.93921 38.6744C9.82859 38.6744 10.7179 38.6744 11.6073 38.6744C11.6073 39.6574 11.6073 40.6404 11.6073 41.6234C10.7179 41.6234 9.82859 41.6234 8.93921 41.6234C8.93921 40.6404 8.93921 39.6574 8.93921 38.6744Z" fill="#B39C92"/>
<path fill-rule="evenodd" clip-rule="evenodd" d="M6.271 38.6744C7.16038 38.6744 8.0497 38.6744 8.93909 38.6744C8.93909 39.6574 8.93909 40.6404 8.93909 41.6234C8.93909 42.4972 8.93909 43.3708 8.93909 44.2447C9.82847 44.2447 10.7178 44.2447 11.6072 44.2447C11.6072 45.1185 11.6072 45.9921 11.6072 46.8659C9.82847 46.8659 8.0497 46.8659 6.271 46.8659C6.271 44.1355 6.271 41.4048 6.271 38.6744Z" fill="#925F50"/>
<path fill-rule="evenodd" clip-rule="evenodd" d="M8.93909 27.8617C8.93909 30.5921 8.93909 33.3228 8.93909 36.0532C9.82847 36.0532 10.7178 36.0532 11.6072 36.0532C11.6072 36.9271 11.6072 37.8006 11.6072 38.6745C10.7178 38.6745 9.82847 38.6745 8.93909 38.6745C8.0497 38.6745 7.16038 38.6745 6.271 38.6745C6.271 35.0702 6.271 31.4659 6.271 27.8617C7.16038 27.8617 8.0497 27.8617 8.93909 27.8617Z" fill="#B07857"/>
<path fill-rule="evenodd" clip-rule="evenodd" d="M11.6073 5.90857C11.6073 6.78234 11.6073 7.65608 11.6073 8.52985C10.7179 8.52985 9.82859 8.52985 8.93921 8.52985C8.93921 7.65608 8.93921 6.78234 8.93921 5.90857C9.82859 5.90857 10.7179 5.90857 11.6073 5.90857Z" fill="#B39F96"/>
<path fill-rule="evenodd" clip-rule="evenodd" d="M3.06934 5.90857C3.95872 5.90857 4.84804 5.90857 5.73743 5.90857C5.73743 6.78234 5.73743 7.65608 5.73743 8.52985C4.84804 8.52985 3.95872 8.52985 3.06934 8.52985C3.06934 7.65608 3.06934 6.78234 3.06934 5.90857Z" fill="#513B3B"/>
<path fill-rule="evenodd" clip-rule="evenodd" d="M14.2754 3.28723C14.2754 16.9397 14.2754 30.5921 14.2754 44.2447C13.386 44.2447 12.4967 44.2447 11.6073 44.2447C11.6073 43.3708 11.6073 42.4973 11.6073 41.6234C11.6073 40.6404 11.6073 39.6574 11.6073 38.6745C11.6073 37.8006 11.6073 36.9271 11.6073 36.0532C10.7179 36.0532 9.82859 36.0532 8.93921 36.0532C8.93921 33.3228 8.93921 30.5921 8.93921 27.8617C9.82859 27.8617 10.7179 27.8617 11.6073 27.8617C11.6073 22.4007 11.6073 16.9397 11.6073 11.4787C10.7179 11.4787 9.82859 11.4787 8.93921 11.4787C8.93921 10.4957 8.93921 9.51276 8.93921 8.52978C9.82859 8.52978 10.7179 8.52978 11.6073 8.52978C11.6073 7.65601 11.6073 6.78228 11.6073 5.90851C11.6073 5.03474 11.6073 4.161 11.6073 3.28723C12.4967 3.28723 13.386 3.28723 14.2754 3.28723Z" fill="#DB9B6F"/>
</svg>
