<svg width="25" height="265" viewBox="0 0 25 265" fill="none" xmlns="http://www.w3.org/2000/svg">
<path fill-rule="evenodd" clip-rule="evenodd" d="M-0.0947266 1.03271C0.726266 1.03271 1.54726 1.03271 2.36825 1.03271C2.36825 23.2317 2.36825 45.4305 2.36825 67.6295C2.30511 67.6295 2.24194 67.6295 2.17879 67.6295C1.42095 67.6295 0.663113 67.6295 -0.0947266 67.6295C-0.0947266 45.4305 -0.0947266 23.2317 -0.0947266 1.03271Z" fill="#6C3F39"/>
<path fill-rule="evenodd" clip-rule="evenodd" d="M2.36816 0.839111C7.16781 0.839111 11.9675 0.839111 16.7671 0.839111C16.7671 0.903642 16.7671 0.968181 16.7671 1.03271C14.3673 1.03271 11.9675 1.03271 9.56764 1.03271C9.56764 1.80709 9.56764 2.58147 9.56764 3.35585C8.74665 3.35585 7.92565 3.35585 7.10466 3.35585C7.04163 19.844 7.10479 36.2996 7.29412 52.7227C8.05196 52.7227 8.8098 52.7227 9.56764 52.7227C9.56764 57.6917 9.56764 62.6605 9.56764 67.6295C7.16781 67.6295 4.768 67.6295 2.36816 67.6295C2.36816 45.4305 2.36816 23.2317 2.36816 1.03271C2.36816 0.968181 2.36816 0.903642 2.36816 0.839111Z" fill="#915D4F"/>
<path fill-rule="evenodd" clip-rule="evenodd" d="M16.7672 1.03271C16.7672 4.25931 16.7672 7.48589 16.7672 10.7125C15.9462 10.7125 15.1252 10.7125 14.3042 10.7125C14.3042 14.8425 14.3042 18.9726 14.3042 23.1026C14.3042 24.7805 14.3042 26.4582 14.3042 28.1361C13.5464 28.1361 12.7885 28.1361 12.0307 28.1361C12.0307 28.9104 12.0307 29.6848 12.0307 30.4592C12.0307 30.5237 12.0307 30.5883 12.0307 30.6528C11.2097 30.6528 10.3887 30.6528 9.56771 30.6528C9.56771 33.1051 9.56771 35.5572 9.56771 38.0094C10.3255 38.0094 11.0834 38.0094 11.8412 38.0094C11.7794 36.2963 11.8426 34.6184 12.0307 32.9759C12.0307 34.6538 12.0307 36.3315 12.0307 38.0094C12.0307 38.7838 12.0307 39.5582 12.0307 40.3326C12.0307 40.397 12.0307 40.4617 12.0307 40.5262C12.0307 42.1394 12.0307 43.7528 12.0307 45.366C12.7885 45.366 13.5464 45.366 14.3042 45.366C14.3042 52.7871 14.3042 60.2084 14.3042 67.6295C12.7254 67.6295 11.1465 67.6295 9.56771 67.6295C9.56771 62.6605 9.56771 57.6917 9.56771 52.7227C8.80987 52.7227 8.05203 52.7227 7.29419 52.7227C7.29419 36.3315 7.29419 19.9406 7.29419 3.54945C8.09022 3.61079 8.84806 3.54624 9.56771 3.35586C9.56771 2.58148 9.56771 1.8071 9.56771 1.03271C11.9675 1.03271 14.3674 1.03271 16.7672 1.03271Z" fill="#AF7857"/>
<path fill-rule="evenodd" clip-rule="evenodd" d="M9.56765 3.35583C8.848 3.54622 8.09016 3.61076 7.29413 3.54943C7.29413 19.9406 7.29413 36.3315 7.29413 52.7226C7.1048 36.2996 7.04163 19.844 7.10467 3.35583C7.92565 3.35583 8.74666 3.35583 9.56765 3.35583Z" fill="#A77154"/>
<path fill-rule="evenodd" clip-rule="evenodd" d="M16.7672 10.7125C16.7672 10.777 16.7672 10.8416 16.7672 10.9061C16.0093 10.9061 15.2515 10.9061 14.4937 10.9061C14.4937 14.9716 14.4937 19.0371 14.4937 23.1026C14.4305 23.1026 14.3673 23.1026 14.3042 23.1026C14.3042 18.9727 14.3042 14.8426 14.3042 10.7125C15.1252 10.7125 15.9462 10.7125 16.7672 10.7125Z" fill="#C48962"/>
<path fill-rule="evenodd" clip-rule="evenodd" d="M16.7672 10.9061C16.7672 14.1972 16.7672 17.4884 16.7672 20.7795C16.7672 21.5539 16.7672 22.3283 16.7672 23.1026C16.0093 23.1026 15.2515 23.1026 14.4937 23.1026C14.4937 19.0371 14.4937 14.9716 14.4937 10.9061C15.2515 10.9061 16.0093 10.9061 16.7672 10.9061Z" fill="#DB9C6E"/>
<path fill-rule="evenodd" clip-rule="evenodd" d="M14.3043 23.1027C14.3674 23.1027 14.4306 23.1027 14.4937 23.1027C14.4937 24.7806 14.4937 26.4582 14.4937 28.1361C14.4937 28.9105 14.4937 29.6849 14.4937 30.4593C15.2516 30.4593 16.0094 30.4593 16.7673 30.4593C16.0476 30.6496 15.2898 30.7142 14.4937 30.6529C14.4937 33.1052 14.4937 35.5572 14.4937 38.0095C14.554 38.8869 14.4909 39.7259 14.3043 40.5262C13.5464 40.5262 12.7886 40.5262 12.0308 40.5262C12.0308 40.4618 12.0308 40.3971 12.0308 40.3326C12.7886 40.3326 13.5464 40.3326 14.3043 40.3326C14.3043 39.5583 14.3043 38.7839 14.3043 38.0095C14.3043 36.3316 14.3043 34.6539 14.3043 32.976C14.3043 32.2016 14.3043 31.4273 14.3043 30.6529C13.5464 30.6529 12.7886 30.6529 12.0308 30.6529C12.0308 30.5884 12.0308 30.5238 12.0308 30.4593C12.7886 30.4593 13.5464 30.4593 14.3043 30.4593C14.3043 29.6849 14.3043 28.9105 14.3043 28.1361C14.3043 26.4582 14.3043 24.7806 14.3043 23.1027Z" fill="#D0A080"/>
<path fill-rule="evenodd" clip-rule="evenodd" d="M14.4937 23.1027C15.2515 23.1027 16.0093 23.1027 16.7672 23.1027C16.7672 24.7806 16.7672 26.4582 16.7672 28.1361C16.0093 28.1361 15.2515 28.1361 14.4937 28.1361C14.4937 26.4582 14.4937 24.7806 14.4937 23.1027Z" fill="#F6C8A8"/>
<path fill-rule="evenodd" clip-rule="evenodd" d="M14.3043 28.1361C14.3043 28.9105 14.3043 29.6849 14.3043 30.4593C13.5464 30.4593 12.7886 30.4593 12.0308 30.4593C12.0308 29.6849 12.0308 28.9105 12.0308 28.1361C12.7886 28.1361 13.5464 28.1361 14.3043 28.1361Z" fill="#F6CAA9"/>
<path fill-rule="evenodd" clip-rule="evenodd" d="M14.4937 28.1361C15.2515 28.1361 16.0093 28.1361 16.7672 28.1361C16.7672 28.9105 16.7672 29.6849 16.7672 30.4593C16.0093 30.4593 15.2515 30.4593 14.4937 30.4593C14.4937 29.6849 14.4937 28.9105 14.4937 28.1361Z" fill="#B2774C"/>
<path fill-rule="evenodd" clip-rule="evenodd" d="M12.0306 30.6528C12.0306 31.4272 12.0306 32.2016 12.0306 32.976C11.8425 34.6184 11.7793 36.2963 11.8411 38.0095C11.0833 38.0095 10.3255 38.0095 9.56763 38.0095C9.56763 35.5572 9.56763 33.1051 9.56763 30.6528C10.3886 30.6528 11.2096 30.6528 12.0306 30.6528Z" fill="#DB9B6E"/>
<path fill-rule="evenodd" clip-rule="evenodd" d="M12.0308 30.6528C12.7886 30.6528 13.5464 30.6528 14.3043 30.6528C14.3043 31.4272 14.3043 32.2016 14.3043 32.976C13.5464 32.976 12.7886 32.976 12.0308 32.976C12.0308 32.2016 12.0308 31.4272 12.0308 30.6528Z" fill="#B2774C"/>
<path fill-rule="evenodd" clip-rule="evenodd" d="M12.0308 32.976C12.7886 32.976 13.5464 32.976 14.3043 32.976C14.3043 34.6538 14.3043 36.3315 14.3043 38.0094C13.5464 38.0094 12.7886 38.0094 12.0308 38.0094C12.0308 36.3315 12.0308 34.6538 12.0308 32.976Z" fill="#8B5148"/>
<path fill-rule="evenodd" clip-rule="evenodd" d="M12.0308 38.0095C12.7886 38.0095 13.5464 38.0095 14.3043 38.0095C14.3043 38.7839 14.3043 39.5583 14.3043 40.3327C13.5464 40.3327 12.7886 40.3327 12.0308 40.3327C12.0308 39.5583 12.0308 38.7839 12.0308 38.0095Z" fill="#F6CAA9"/>
<path fill-rule="evenodd" clip-rule="evenodd" d="M14.4937 38.0095C15.2515 38.0095 16.0093 38.0095 16.7672 38.0095C16.7672 39.6228 16.7672 41.2362 16.7672 42.8494C16.0093 42.8494 15.2515 42.8494 14.4937 42.8494C14.4937 43.6883 14.4937 44.5273 14.4937 45.3661C14.4305 45.3661 14.3673 45.3661 14.3042 45.3661C14.3042 43.7529 14.3042 42.1395 14.3042 40.5263C14.4908 39.7259 14.5539 38.8869 14.4937 38.0095Z" fill="#B3774E"/>
<path fill-rule="evenodd" clip-rule="evenodd" d="M12.0308 40.5262C12.7886 40.5262 13.5464 40.5262 14.3043 40.5262C14.3043 42.1395 14.3043 43.7529 14.3043 45.3661C13.5464 45.3661 12.7886 45.3661 12.0308 45.3661C12.0308 43.7529 12.0308 42.1395 12.0308 40.5262Z" fill="#DB9C6E"/>
<path fill-rule="evenodd" clip-rule="evenodd" d="M16.7672 42.8494C16.7672 43.6882 16.7672 44.5273 16.7672 45.3661C16.0093 45.3661 15.2515 45.3661 14.4937 45.3661C14.4937 44.5273 14.4937 43.6882 14.4937 42.8494C15.2515 42.8494 16.0093 42.8494 16.7672 42.8494Z" fill="#8B5048"/>
<path fill-rule="evenodd" clip-rule="evenodd" d="M14.4937 45.3661C15.2515 45.3661 16.0093 45.3661 16.7672 45.3661C16.7672 48.6572 16.7672 51.9483 16.7672 55.2395C16.0093 55.2395 15.2515 55.2395 14.4937 55.2395C14.4937 51.9483 14.4937 48.6572 14.4937 45.3661Z" fill="#F6C9A9"/>
<path fill-rule="evenodd" clip-rule="evenodd" d="M14.3042 45.3661C14.3673 45.3661 14.4305 45.3661 14.4937 45.3661C14.4937 48.6572 14.4937 51.9483 14.4937 55.2395C15.2515 55.2395 16.0093 55.2395 16.7672 55.2395C16.7672 57.6917 16.7672 60.1438 16.7672 62.5961C16.7672 64.274 16.7672 65.9517 16.7672 67.6296C15.9462 67.6296 15.1252 67.6296 14.3042 67.6296C14.3042 60.2085 14.3042 52.7872 14.3042 45.3661Z" fill="#D99A6E"/>
<path fill-rule="evenodd" clip-rule="evenodd" d="M-0.0947266 67.6295C0.663113 67.6295 1.42095 67.6295 2.17879 67.6295C2.17879 68.4039 2.17879 69.1783 2.17879 69.9527C1.42095 69.9527 0.663113 69.9527 -0.0947266 69.9527C-0.0947266 69.1783 -0.0947266 68.4039 -0.0947266 67.6295Z" fill="#E7D0B5"/>
<path fill-rule="evenodd" clip-rule="evenodd" d="M2.36816 67.6295C4.768 67.6295 7.16781 67.6295 9.56764 67.6295C9.56764 68.4684 9.56764 69.3074 9.56764 70.1463C7.98881 70.1463 6.40997 70.1463 4.83114 70.1463C4.768 70.1463 4.70483 70.1463 4.64168 70.1463C3.88384 70.1463 3.126 70.1463 2.36816 70.1463C2.36816 69.3074 2.36816 68.4684 2.36816 67.6295Z" fill="#6D3F39"/>
<path fill-rule="evenodd" clip-rule="evenodd" d="M9.56763 67.6295C11.1465 67.6295 12.7253 67.6295 14.3041 67.6295C15.1251 67.6295 15.9461 67.6295 16.7671 67.6295C16.7671 68.4684 16.7671 69.3074 16.7671 70.1463C15.1883 70.1463 13.6094 70.1463 12.0306 70.1463C11.2096 70.1463 10.3886 70.1463 9.56763 70.1463C9.56763 69.3074 9.56763 68.4684 9.56763 67.6295Z" fill="#8B5148"/>
<path fill-rule="evenodd" clip-rule="evenodd" d="M2.17879 67.6295C2.24194 67.6295 2.30511 67.6295 2.36825 67.6295C2.36825 68.4684 2.36825 69.3074 2.36825 70.1463C1.54726 70.1463 0.726266 70.1463 -0.0947266 70.1463C-0.0947266 70.0818 -0.0947266 70.0171 -0.0947266 69.9527C0.663113 69.9527 1.42095 69.9527 2.17879 69.9527C2.17879 69.1783 2.17879 68.4039 2.17879 67.6295Z" fill="#C7A995"/>
<path fill-rule="evenodd" clip-rule="evenodd" d="M-0.0947266 70.1462C0.726266 70.1462 1.54726 70.1462 2.36825 70.1462C2.36825 73.3729 2.36825 76.5994 2.36825 79.826C2.36825 79.8905 2.36825 79.9551 2.36825 80.0196C2.36825 83.3107 2.36825 86.6018 2.36825 89.893C2.36825 93.1841 2.36825 96.4752 2.36825 99.7663C3.12609 99.7663 3.88393 99.7663 4.64177 99.7663C5.46276 99.7663 6.28376 99.7663 7.10475 99.7663C7.10475 100.541 7.10475 101.315 7.10475 102.089C5.46276 102.089 3.82078 102.089 2.17879 102.089C2.1157 140.002 2.17885 177.882 2.36825 215.73C3.94708 215.73 5.52592 215.73 7.10475 215.73C7.10475 216.568 7.10475 217.408 7.10475 218.247C6.28376 218.247 5.46276 218.247 4.64177 218.247C3.88393 218.247 3.12609 218.247 2.36825 218.247C2.36825 220.7 2.36825 223.15 2.36825 225.603C2.36825 226.442 2.36825 227.282 2.36825 228.12C1.54726 228.12 0.726266 228.12 -0.0947266 228.12C-0.0947266 175.462 -0.0947266 122.804 -0.0947266 70.1462Z" fill="#6C3F39"/>
<path fill-rule="evenodd" clip-rule="evenodd" d="M2.36816 70.1462C3.126 70.1462 3.88384 70.1462 4.64168 70.1462C4.64168 73.3729 4.64168 76.5994 4.64168 79.826C3.88384 79.826 3.126 79.826 2.36816 79.826C2.36816 76.5994 2.36816 73.3729 2.36816 70.1462Z" fill="#915E4F"/>
<path fill-rule="evenodd" clip-rule="evenodd" d="M4.64168 70.1462C4.70483 70.1462 4.768 70.1462 4.83114 70.1462C4.83114 73.4374 4.83114 76.7285 4.83114 80.0196C4.01016 80.0196 3.18915 80.0196 2.36816 80.0196C2.36816 79.9551 2.36816 79.8905 2.36816 79.826C3.126 79.826 3.88384 79.826 4.64168 79.826C4.64168 76.5994 4.64168 73.3729 4.64168 70.1462Z" fill="#9E6A52"/>
<path fill-rule="evenodd" clip-rule="evenodd" d="M4.83114 70.1462C6.40997 70.1462 7.98882 70.1462 9.56764 70.1462C10.3886 70.1462 11.2096 70.1462 12.0306 70.1462C12.0306 80.0196 12.0306 89.893 12.0306 99.7663C11.9675 99.7663 11.9043 99.7663 11.8412 99.7663C10.2623 99.7663 8.68349 99.7663 7.10466 99.7663C6.28368 99.7663 5.46267 99.7663 4.64168 99.7663C4.64168 96.4752 4.64168 93.1841 4.64168 89.893C3.88384 89.893 3.126 89.893 2.36816 89.893C2.36816 86.6018 2.36816 83.3107 2.36816 80.0196C3.18915 80.0196 4.01016 80.0196 4.83114 80.0196C4.83114 76.7285 4.83114 73.4374 4.83114 70.1462Z" fill="#AF7857"/>
<path fill-rule="evenodd" clip-rule="evenodd" d="M12.0308 70.1462C13.6096 70.1462 15.1884 70.1462 16.7673 70.1462C16.7673 73.4374 16.7673 76.7285 16.7673 80.0196C16.0094 80.0196 15.2516 80.0196 14.4937 80.0196C14.3049 83.2768 14.2418 86.568 14.3043 89.893C15.1253 89.893 15.9463 89.893 16.7673 89.893C16.7673 91.5062 16.7673 93.1196 16.7673 94.7328C16.7673 96.4107 16.7673 98.0884 16.7673 99.7663C16.0094 99.7663 15.2516 99.7663 14.4937 99.7663C14.4937 100.541 14.4937 101.315 14.4937 102.089C15.2898 102.028 16.0476 102.093 16.7673 102.283C16.7673 115.448 16.7673 128.612 16.7673 141.777C16.7673 143.39 16.7673 145.003 16.7673 146.616C15.9463 146.616 15.1253 146.616 14.3043 146.616C14.2727 155.651 14.3043 164.686 14.399 173.72C15.1693 173.906 15.9587 173.971 16.7673 173.913C16.7673 176.366 16.7673 178.818 16.7673 181.27C16.7673 182.044 16.7673 182.819 16.7673 183.593C15.9587 183.536 15.1693 183.6 14.399 183.787C14.2727 187.013 14.2727 190.24 14.399 193.466C15.1693 193.652 15.9587 193.718 16.7673 193.66C16.7673 196.113 16.7673 198.564 16.7673 201.017C16.7673 203.47 16.7673 205.92 16.7673 208.373C17.5882 208.373 18.4093 208.373 19.2302 208.373C19.2302 210.826 19.2302 213.277 19.2302 215.73C18.4093 215.73 17.5882 215.73 16.7673 215.73C15.1884 215.73 13.6096 215.73 12.0308 215.73C12.0308 177.914 12.0308 140.099 12.0308 102.283C12.0308 101.444 12.0308 100.605 12.0308 99.7663C12.0308 89.893 12.0308 80.0196 12.0308 70.1462Z" fill="#DB9B6E"/>
<path fill-rule="evenodd" clip-rule="evenodd" d="M14.4938 80.0197C14.4938 83.2463 14.4938 86.4728 14.4938 89.6994C15.2516 89.6994 16.0095 89.6994 16.7673 89.6994C16.7673 89.7639 16.7673 89.8285 16.7673 89.893C15.9463 89.893 15.1253 89.893 14.3043 89.893C14.2418 86.568 14.305 83.2769 14.4938 80.0197Z" fill="#EAB48E"/>
<path fill-rule="evenodd" clip-rule="evenodd" d="M14.4937 80.0197C15.2515 80.0197 16.0093 80.0197 16.7672 80.0197C16.7672 83.2463 16.7672 86.4728 16.7672 89.6994C16.0093 89.6994 15.2515 89.6994 14.4937 89.6994C14.4937 86.4728 14.4937 83.2463 14.4937 80.0197Z" fill="#F6CAA9"/>
<path fill-rule="evenodd" clip-rule="evenodd" d="M2.36816 89.8931C3.126 89.8931 3.88384 89.8931 4.64168 89.8931C4.64168 93.1842 4.64168 96.4753 4.64168 99.7664C3.88384 99.7664 3.126 99.7664 2.36816 99.7664C2.36816 96.4753 2.36816 93.1842 2.36816 89.8931Z" fill="#915D4F"/>
<path fill-rule="evenodd" clip-rule="evenodd" d="M16.7672 94.7329C17.5882 94.7329 18.4092 94.7329 19.2302 94.7329C19.2302 110.35 19.2302 125.966 19.2302 141.583C18.4723 141.583 17.7145 141.583 16.9566 141.583C17.0196 128.45 16.9565 115.35 16.7672 102.283C16.0475 102.093 15.2897 102.028 14.4937 102.09C14.4937 101.315 14.4937 100.541 14.4937 99.7664C15.2515 99.7664 16.0093 99.7664 16.7672 99.7664C16.7672 98.0885 16.7672 96.4108 16.7672 94.7329Z" fill="#8A5048"/>
<path fill-rule="evenodd" clip-rule="evenodd" d="M7.10474 99.7664C8.68356 99.7664 10.2624 99.7664 11.8412 99.7664C11.8412 100.541 11.8412 101.315 11.8412 102.09C10.2624 102.09 8.68356 102.09 7.10474 102.09C7.10474 101.315 7.10474 100.541 7.10474 99.7664Z" fill="#894F47"/>
<path fill-rule="evenodd" clip-rule="evenodd" d="M7.10463 102.089C7.10463 102.154 7.10463 102.219 7.10463 102.283C5.52581 102.283 3.94696 102.283 2.36814 102.283C2.36814 140.099 2.36814 177.914 2.36814 215.73C2.17873 177.882 2.11559 140.002 2.17868 102.089C3.82067 102.089 5.46264 102.089 7.10463 102.089Z" fill="#76473F"/>
<path fill-rule="evenodd" clip-rule="evenodd" d="M7.10466 102.283C7.10466 140.099 7.10466 177.914 7.10466 215.73C5.52584 215.73 3.94699 215.73 2.36816 215.73C2.36816 177.914 2.36816 140.099 2.36816 102.283C3.94699 102.283 5.52584 102.283 7.10466 102.283Z" fill="#915E4F"/>
<path fill-rule="evenodd" clip-rule="evenodd" d="M11.8412 99.7664C11.9044 99.7664 11.9675 99.7664 12.0307 99.7664C12.0307 100.605 12.0307 101.444 12.0307 102.283C10.4519 102.283 8.87302 102.283 7.2942 102.283C7.2942 140.099 7.2942 177.914 7.2942 215.73C7.23105 215.73 7.16788 215.73 7.10474 215.73C7.10474 177.914 7.10474 140.099 7.10474 102.283C7.10474 102.219 7.10474 102.154 7.10474 102.09C8.68356 102.09 10.2624 102.09 11.8412 102.09C11.8412 101.315 11.8412 100.541 11.8412 99.7664Z" fill="#A77154"/>
<path fill-rule="evenodd" clip-rule="evenodd" d="M12.0307 102.283C12.0307 140.099 12.0307 177.914 12.0307 215.73C10.4519 215.73 8.87302 215.73 7.29419 215.73C7.29419 177.914 7.29419 140.099 7.29419 102.283C8.87302 102.283 10.4519 102.283 12.0307 102.283Z" fill="#AF7857"/>
<path fill-rule="evenodd" clip-rule="evenodd" d="M16.7673 146.616C16.7673 153.199 16.7673 159.781 16.7673 166.363C16.7673 168.88 16.7673 171.397 16.7673 173.913C15.9588 173.971 15.1694 173.906 14.3991 173.72C14.3043 164.686 14.2727 155.651 14.3043 146.616C15.1253 146.616 15.9463 146.616 16.7673 146.616Z" fill="#F5C8A7"/>
<path fill-rule="evenodd" clip-rule="evenodd" d="M16.7672 183.593C16.7672 186.949 16.7672 190.305 16.7672 193.66C15.9587 193.718 15.1693 193.652 14.3989 193.467C14.2726 190.24 14.2726 187.013 14.3989 183.787C15.1693 183.6 15.9587 183.536 16.7672 183.593Z" fill="#F5C7A6"/>
<path fill-rule="evenodd" clip-rule="evenodd" d="M7.10474 215.73C7.16788 215.73 7.23105 215.73 7.2942 215.73C8.87302 215.73 10.4519 215.73 12.0307 215.73C13.6095 215.73 15.1884 215.73 16.7672 215.73C16.7672 216.568 16.7672 217.408 16.7672 218.247C15.9462 218.247 15.1252 218.247 14.3042 218.247C12.7254 218.247 11.1465 218.247 9.56772 218.247C8.74673 218.247 7.92572 218.247 7.10474 218.247C7.10474 217.408 7.10474 216.568 7.10474 215.73Z" fill="#8B5148"/>
<path fill-rule="evenodd" clip-rule="evenodd" d="M4.64168 218.247C4.64168 220.7 4.64168 223.15 4.64168 225.603C3.88384 225.603 3.126 225.603 2.36816 225.603C2.36816 223.15 2.36816 220.7 2.36816 218.247C3.126 218.247 3.88384 218.247 4.64168 218.247Z" fill="#915E4F"/>
<path fill-rule="evenodd" clip-rule="evenodd" d="M4.64168 218.247C5.46267 218.247 6.28368 218.247 7.10466 218.247C7.92565 218.247 8.74665 218.247 9.56764 218.247C9.56764 224.829 9.56764 231.411 9.56764 237.993C10.3886 237.993 11.2096 237.993 12.0306 237.993C12.0306 246.188 12.0306 254.385 12.0306 262.58C10.4518 262.58 8.87295 262.58 7.29412 262.58C7.35414 261.767 7.29098 260.993 7.10466 260.257C7.10466 259.419 7.10466 258.578 7.10466 257.74C6.34682 257.74 5.58898 257.74 4.83114 257.74C4.83114 252.771 4.83114 247.803 4.83114 242.833C4.01016 242.833 3.18915 242.833 2.36816 242.833C2.36816 237.93 2.36816 233.024 2.36816 228.12C2.36816 227.282 2.36816 226.442 2.36816 225.603C3.126 225.603 3.88384 225.603 4.64168 225.603C4.64168 223.15 4.64168 220.7 4.64168 218.247Z" fill="#AF7857"/>
<path fill-rule="evenodd" clip-rule="evenodd" d="M9.56763 218.247C11.1465 218.247 12.7253 218.247 14.3041 218.247C14.3041 220.7 14.3041 223.15 14.3041 225.603C15.1251 225.603 15.9461 225.603 16.7671 225.603C16.7671 228.056 16.7671 230.507 16.7671 232.96C16.7671 237.089 16.7671 241.221 16.7671 245.35C15.9461 245.35 15.1251 245.35 14.3041 245.35C14.3041 247.867 14.3041 250.384 14.3041 252.9C15.1251 252.9 15.9461 252.9 16.7671 252.9C16.7671 256.128 16.7671 259.353 16.7671 262.58C15.1883 262.58 13.6094 262.58 12.0306 262.58C12.0306 254.385 12.0306 246.188 12.0306 237.993C11.2096 237.993 10.3886 237.993 9.56763 237.993C9.56763 231.411 9.56763 224.829 9.56763 218.247Z" fill="#DC9C6F"/>
<path fill-rule="evenodd" clip-rule="evenodd" d="M14.3042 218.247C15.1252 218.247 15.9462 218.247 16.7672 218.247C16.7672 220.7 16.7672 223.15 16.7672 225.603C15.9462 225.603 15.1252 225.603 14.3042 225.603C14.3042 223.15 14.3042 220.7 14.3042 218.247Z" fill="#F6C8A7"/>
<path fill-rule="evenodd" clip-rule="evenodd" d="M-0.0947266 228.12C0.726266 228.12 1.54726 228.12 2.36825 228.12C2.36825 233.024 2.36825 237.93 2.36825 242.833C2.36825 242.897 2.36825 242.963 2.36825 243.027C2.36825 246.318 2.36825 249.609 2.36825 252.9C1.54726 252.9 0.726266 252.9 -0.0947266 252.9C-0.0947266 244.64 -0.0947266 236.381 -0.0947266 228.12Z" fill="#8A5048"/>
<path fill-rule="evenodd" clip-rule="evenodd" d="M2.36825 243.027C3.12609 243.027 3.88393 243.027 4.64177 243.027C4.57904 247.965 4.64221 252.869 4.83123 257.74C5.58907 257.74 6.34691 257.74 7.10475 257.74C7.10475 258.578 7.10475 259.419 7.10475 260.257C7.29106 260.993 7.35423 261.767 7.29421 262.58C8.87304 262.58 10.4519 262.58 12.0307 262.58C13.6095 262.58 15.1884 262.58 16.7672 262.58C16.7672 259.353 16.7672 256.127 16.7672 252.9C16.7672 252.836 16.7672 252.771 16.7672 252.707C16.7672 251.094 16.7672 249.479 16.7672 247.867C16.8304 247.867 16.8935 247.867 16.9567 247.867C16.9567 252.836 16.9567 257.804 16.9567 262.774C13.7358 262.774 10.515 262.774 7.29421 262.774C7.29421 263.484 7.29421 264.193 7.29421 264.903C7.23106 264.903 7.1679 264.903 7.10475 264.903C7.10475 264.193 7.10475 263.484 7.10475 262.774C6.34691 262.774 5.58907 262.774 4.83123 262.774C4.83123 263.484 4.83123 264.193 4.83123 264.903C4.76808 264.903 4.70492 264.903 4.64177 264.903C4.64177 264.193 4.64177 263.484 4.64177 262.774C3.88393 262.774 3.12609 262.774 2.36825 262.774C1.54726 262.774 0.726266 262.774 -0.0947266 262.774C-0.0947266 262.71 -0.0947266 262.644 -0.0947266 262.58C0.726266 262.58 1.54726 262.58 2.36825 262.58C2.36825 259.353 2.36825 256.127 2.36825 252.9C2.36825 249.609 2.36825 246.318 2.36825 243.027Z" fill="#915E4F"/>
<path fill-rule="evenodd" clip-rule="evenodd" d="M2.36816 243.027C2.36816 242.963 2.36816 242.897 2.36816 242.833C3.18915 242.833 4.01016 242.833 4.83114 242.833C4.83114 247.803 4.83114 252.771 4.83114 257.74C4.64212 252.869 4.57895 247.966 4.64168 243.027C3.88384 243.027 3.126 243.027 2.36816 243.027Z" fill="#A06B53"/>
<path fill-rule="evenodd" clip-rule="evenodd" d="M16.7672 245.35C16.7672 245.414 16.7672 245.48 16.7672 245.544C16.0093 245.544 15.2515 245.544 14.4937 245.544C14.4937 247.931 14.4937 250.32 14.4937 252.707C15.2515 252.707 16.0093 252.707 16.7672 252.707C16.7672 252.771 16.7672 252.836 16.7672 252.9C15.9462 252.9 15.1252 252.9 14.3042 252.9C14.3042 250.384 14.3042 247.867 14.3042 245.35C15.1252 245.35 15.9462 245.35 16.7672 245.35Z" fill="#EAB48D"/>
<path fill-rule="evenodd" clip-rule="evenodd" d="M16.7672 245.544C16.7672 246.318 16.7672 247.092 16.7672 247.867C16.7672 249.479 16.7672 251.094 16.7672 252.707C16.0093 252.707 15.2515 252.707 14.4937 252.707C14.4937 250.32 14.4937 247.931 14.4937 245.544C15.2515 245.544 16.0093 245.544 16.7672 245.544Z" fill="#F6CAA9"/>
<path opacity="0.965" fill-rule="evenodd" clip-rule="evenodd" d="M16.9566 247.867C17.7145 247.867 18.4723 247.867 19.2302 247.867C19.2302 249.479 19.2302 251.094 19.2302 252.707C19.2302 252.771 19.2302 252.836 19.2302 252.9C19.2302 253.675 19.2302 254.449 19.2302 255.223C19.2302 256.062 19.2302 256.902 19.2302 257.74C19.2302 259.419 19.2302 261.095 19.2302 262.774C20.8722 262.774 22.5141 262.774 24.1561 262.774C24.1561 263.484 24.1561 264.193 24.1561 264.903C18.5355 264.903 12.9148 264.903 7.29419 264.903C7.29419 264.193 7.29419 263.484 7.29419 262.774C10.515 262.774 13.7358 262.774 16.9566 262.774C16.9566 257.804 16.9566 252.836 16.9566 247.867Z" fill="#6C3F39"/>
<path fill-rule="evenodd" clip-rule="evenodd" d="M-0.0947266 252.9C0.726266 252.9 1.54726 252.9 2.36825 252.9C2.36825 256.128 2.36825 259.353 2.36825 262.58C1.54726 262.58 0.726266 262.58 -0.0947266 262.58C-0.0947266 259.353 -0.0947266 256.128 -0.0947266 252.9Z" fill="#6C3F39"/>
<path fill-rule="evenodd" clip-rule="evenodd" d="M7.10482 260.257C7.10482 261.031 7.10482 261.806 7.10482 262.58C6.34698 262.58 5.58914 262.58 4.8313 262.58C4.8313 261.806 4.8313 261.031 4.8313 260.257C5.58914 260.257 6.34698 260.257 7.10482 260.257Z" fill="#6B3F38"/>
<path opacity="0.78" fill-rule="evenodd" clip-rule="evenodd" d="M-0.0947266 262.774C0.726266 262.774 1.54726 262.774 2.36825 262.774C2.36825 263.484 2.36825 264.193 2.36825 264.903C1.54726 264.903 0.726266 264.903 -0.0947266 264.903C-0.0947266 264.193 -0.0947266 263.484 -0.0947266 262.774Z" fill="#E7D0B6"/>
<path opacity="0.932" fill-rule="evenodd" clip-rule="evenodd" d="M2.36816 262.774C3.126 262.774 3.88384 262.774 4.64168 262.774C4.64168 263.484 4.64168 264.193 4.64168 264.903C3.88384 264.903 3.126 264.903 2.36816 264.903C2.36816 264.193 2.36816 263.484 2.36816 262.774Z" fill="#6C3F39"/>
<path opacity="0.78" fill-rule="evenodd" clip-rule="evenodd" d="M7.10482 264.903C6.34698 264.903 5.58914 264.903 4.8313 264.903C4.8313 264.193 4.8313 263.484 4.8313 262.774C5.58914 262.774 6.34698 262.774 7.10482 262.774C7.10482 263.484 7.10482 264.193 7.10482 264.903Z" fill="#E9D2B8"/>
</svg>
