<svg width="34" height="32" viewBox="0 0 34 32" fill="none" xmlns="http://www.w3.org/2000/svg">
<g clip-path="url(#clip0_1_3097)">
<path d="M33.2119 0L18.6229 10.7949L21.3358 4.43315L33.2119 0Z" fill="#E17726"/>
<path d="M0.822237 0.0127563L12.6666 4.43395L15.2426 10.8791L0.822237 0.0127563ZM27.3408 22.9577L33.789 23.0804L31.5354 30.736L23.6672 28.5697L27.3408 22.9577ZM6.65908 22.9577L10.319 28.5697L2.46406 30.7361L0.224182 23.0804L6.65908 22.9577Z" fill="#E27625"/>
<path d="M14.8924 9.23736L15.1559 17.7484L7.27069 17.3897L9.51363 14.0059L9.54205 13.9733L14.8924 9.23736ZM19.0259 9.1424L24.458 13.9736L24.4861 14.006L26.729 17.3898L18.8456 17.7484L19.0259 9.1424ZM10.55 22.9824L14.8555 26.3371L9.85403 28.7518L10.55 22.9824ZM23.4508 22.9819L24.1323 28.7519L19.1448 26.3368L23.4508 22.9819Z" fill="#E27625"/>
<path d="M19.2549 26.0209L24.316 28.4715L19.6082 30.7089L19.6571 29.2302L19.2549 26.0209ZM14.7437 26.0219L14.3573 29.206L14.3891 30.7072L9.67023 28.4715L14.7437 26.0219Z" fill="#D5BFB2"/>
<path d="M13.2822 18.8593L14.6047 21.6388L10.102 20.3197L13.2822 18.8593ZM20.7177 18.8595L23.9129 20.3197L19.3954 21.6384L20.7177 18.8595Z" fill="#233447"/>
<path d="M10.8941 22.954L10.1662 28.9359L6.26514 23.0848L10.8941 22.954ZM23.1062 22.9541L27.7352 23.0848L23.8195 28.9361L23.1062 22.9541ZM26.843 17.0514L23.4742 20.4847L20.8768 19.2978L19.6332 21.9121L18.818 17.4165L26.843 17.0514ZM7.15525 17.0514L15.1818 17.4165L14.3664 21.9121L13.1226 19.2982L10.539 20.4849L7.15525 17.0514Z" fill="#CC6228"/>
<path d="M6.92828 16.3468L10.7397 20.2144L10.8718 24.0327L6.92828 16.3468ZM27.0755 16.3399L23.1249 24.0394L23.2736 20.2144L27.0755 16.3399ZM14.9954 16.5824L15.1488 17.548L15.5279 19.9533L15.2842 27.341L14.132 21.4063L14.1316 21.3449L14.9954 16.5824ZM19.0025 16.569L19.8686 21.3449L19.8682 21.4063L18.7131 27.3559L18.6674 25.8677L18.4872 19.9095L19.0025 16.569Z" fill="#E27525"/>
<path d="M23.6125 20.0608L23.4835 23.3782L19.4628 26.5108L18.6499 25.9365L19.561 21.2436L23.6125 20.0608ZM10.4015 20.0608L14.4389 21.2436L15.3499 25.9365L14.5371 26.5108L10.5162 23.3779L10.4015 20.0608Z" fill="#F5841F"/>
<path d="M8.90082 27.739L14.0449 30.1763L14.0231 29.1355L14.4536 28.7576H19.5448L19.9908 29.1341L19.9579 30.1742L25.0694 27.7451L22.5821 29.8005L19.5746 31.8661H14.4123L11.4067 29.792L8.90082 27.739Z" fill="#C0AC9D"/>
<path d="M18.8864 25.6964L19.6137 26.2103L20.0399 29.6108L19.4231 29.09H14.5787L13.9736 29.6213L14.3858 26.2105L15.1134 25.6964H18.8864Z" fill="#161616"/>
<path d="M32.2487 0.298828L34 5.55249L32.9063 10.8646L33.6851 11.4653L32.6312 12.2694L33.4233 12.8811L32.3745 13.8361L33.0184 14.3024L31.3096 16.2981L24.3011 14.2574L24.2404 14.2249L19.1899 9.96452L32.2487 0.298828ZM1.75127 0.298828L14.8102 9.96452L9.75959 14.2249L9.6989 14.2574L2.69038 16.2981L0.981617 14.3024L1.62496 13.8365L0.576805 12.8811L1.3673 12.27L0.297633 11.4637L1.1058 10.8626L0 5.55276L1.75127 0.298828Z" fill="#763E1A"/>
<path d="M23.9583 13.8112L31.3843 15.9732L33.7968 23.4089H27.4319L23.0464 23.4641L26.2358 17.2474L23.9583 13.8112ZM10.0417 13.8112L7.76382 17.2474L10.9536 23.4641L6.5701 23.4089H0.216614L2.61561 15.9734L10.0417 13.8112ZM21.6994 4.39771L19.6224 10.0076L19.1816 17.5859L19.0129 19.9612L18.9995 26.0291H15.0004L14.9874 19.9726L14.8182 17.5839L14.3772 10.0076L12.3004 4.39771H21.6994Z" fill="#F5841F"/>
</g>
<defs>
<clipPath id="clip0_1_3097">
<rect width="34" height="31.875" fill="white"/>
</clipPath>
</defs>
</svg>
