<svg width="34" height="35" viewBox="0 0 34 35" fill="none" xmlns="http://www.w3.org/2000/svg">
<mask id="mask0_1_3116" style="mask-type:luminance" maskUnits="userSpaceOnUse" x="0" y="0" width="34" height="35">
<path d="M34 17.875C34 8.48616 26.3888 0.875 17 0.875C7.61116 0.875 0 8.48616 0 17.875C0 27.2638 7.61116 34.875 17 34.875C26.3888 34.875 34 27.2638 34 17.875Z" fill="white"/>
</mask>
<g mask="url(#mask0_1_3116)">
<path d="M34 0.875H0V34.875H34V0.875Z" fill="#AB9FF2"/>
<path fill-rule="evenodd" clip-rule="evenodd" d="M14.7962 22.5447C13.4612 24.5903 11.2242 27.179 8.24754 27.179C6.8404 27.179 5.48737 26.5998 5.48737 24.0835C5.48737 17.675 14.2369 7.7547 22.3551 7.7547C26.9734 7.7547 28.8136 10.9589 28.8136 14.5976C28.8136 19.2681 25.7828 24.6084 22.77 24.6084C21.8139 24.6084 21.3448 24.0835 21.3448 23.2507C21.3448 23.0335 21.3809 22.7982 21.4531 22.5447C20.4248 24.3007 18.4403 25.93 16.5822 25.93C15.2292 25.93 14.5436 25.0791 14.5436 23.8843C14.5436 23.4499 14.6338 22.9973 14.7962 22.5447ZM21.7893 14.4714C21.7893 15.5317 21.1638 16.0618 20.464 16.0618C19.7536 16.0618 19.1386 15.5317 19.1386 14.4714C19.1386 13.4111 19.7536 12.8809 20.464 12.8809C21.1638 12.8809 21.7893 13.4111 21.7893 14.4714ZM25.7654 14.4714C25.7654 15.5317 25.1398 16.0618 24.4401 16.0618C23.7297 16.0618 23.1147 15.5317 23.1147 14.4714C23.1147 13.4111 23.7297 12.881 24.4401 12.881C25.1398 12.881 25.7654 13.4111 25.7654 14.4714Z" fill="#FFFDF8"/>
</g>
</svg>
