<svg width="496" height="72" viewBox="0 0 496 72" fill="none" xmlns="http://www.w3.org/2000/svg">
<path opacity="0.885" fill-rule="evenodd" clip-rule="evenodd" d="M489.195 2.76813C488.128 2.76813 487.061 2.76813 485.994 2.76813C485.994 1.89437 485.994 1.02061 485.994 0.146851C487.061 0.146851 488.128 0.146851 489.195 0.146851C489.195 1.02061 489.195 1.89437 489.195 2.76813Z" fill="#5D302C"/>
<path opacity="0.943" fill-rule="evenodd" clip-rule="evenodd" d="M100.188 5.38934C164.222 5.38934 228.256 5.38934 292.29 5.38934C293.002 5.38934 293.714 5.38934 294.425 5.38934C294.425 4.51557 294.425 3.64184 294.425 2.76807C333.557 2.76807 372.689 2.76807 411.821 2.76807C411.821 3.64184 411.821 4.51557 411.821 5.38934C413.422 5.38934 415.022 5.38934 416.623 5.38934C416.623 4.51557 416.623 3.64184 416.623 2.76807C439.747 2.76807 462.87 2.76807 485.994 2.76807C485.994 3.75105 485.994 4.73402 485.994 5.717C485.282 5.717 484.571 5.717 483.859 5.717C482.792 5.717 481.725 5.717 480.657 5.717C480.657 7.57375 480.657 9.43047 480.657 11.2872C480.657 12.161 480.657 13.0347 480.657 13.9085C479.768 13.9085 478.879 13.9085 477.989 13.9085C477.989 12.0517 477.989 10.195 477.989 8.33828C477.989 7.46451 477.989 6.59077 477.989 5.717C458.601 5.717 439.213 5.717 419.825 5.717C419.825 6.59077 419.825 7.46451 419.825 8.33828C418.758 8.33828 417.691 8.33828 416.623 8.33828C416.623 10.195 416.623 12.0517 416.623 13.9085C417.691 13.9085 418.758 13.9085 419.825 13.9085C423.56 13.9085 427.296 13.9085 431.031 13.9085C432.81 13.9085 434.589 13.9085 436.367 13.9085C437.257 13.9085 438.146 13.9085 439.035 13.9085C439.925 13.9085 440.814 13.9085 441.703 13.9085C441.703 14.8915 441.703 15.8744 441.703 16.8574C428.897 16.8574 416.09 16.8574 403.283 16.8574C403.283 15.8744 403.283 14.8915 403.283 13.9085C405.951 13.9085 408.619 13.9085 411.287 13.9085C412.177 13.9085 413.066 13.9085 413.955 13.9085C413.955 12.0517 413.955 10.195 413.955 8.33828C413.066 8.33828 412.177 8.33828 411.287 8.33828C411.287 7.46451 411.287 6.59077 411.287 5.717C375.179 5.717 339.071 5.717 302.963 5.717C302.963 6.59077 302.963 7.46451 302.963 8.33828C300.295 8.33828 297.627 8.33828 294.958 8.33828C294.958 9.21205 294.958 10.0858 294.958 10.9596C294.958 11.0688 294.958 11.178 294.958 11.2872C293.891 11.2872 292.824 11.2872 291.757 11.2872C291.757 11.178 291.757 11.0688 291.757 10.9596C291.757 10.0858 291.757 9.21205 291.757 8.33828C290.867 8.33828 289.978 8.33828 289.089 8.33828C289.089 7.46451 289.089 6.59077 289.089 5.717C284.464 5.717 279.839 5.717 275.215 5.717C217.05 5.717 158.886 5.717 100.722 5.717C100.722 6.59077 100.722 7.46451 100.722 8.33828C103.39 8.33828 106.058 8.33828 108.726 8.33828C108.726 9.21205 108.726 10.0858 108.726 10.9596C105.777 10.8542 102.931 10.9635 100.188 11.2872C99.2984 11.2872 98.4094 11.2872 97.5198 11.2872C97.5198 9.43047 97.5198 7.57375 97.5198 5.717C96.6303 5.717 95.7413 5.717 94.8517 5.717C92.006 5.717 89.1596 5.717 86.3139 5.717C62.301 5.717 38.2882 5.717 14.2754 5.717C14.2754 7.46451 14.2754 9.21205 14.2754 10.9596C13.3861 10.9596 12.4967 10.9596 11.6073 10.9596C11.6073 10.0858 11.6073 9.21205 11.6073 8.33828C10.718 8.33828 9.82863 8.33828 8.93925 8.33828C6.98264 8.33828 5.02607 8.33828 3.06946 8.33828C2.18009 8.33828 1.29073 8.33828 0.401367 8.33828C0.401367 7.3553 0.401367 6.37232 0.401367 5.38934C5.02607 5.38934 9.65073 5.38934 14.2754 5.38934C14.2754 4.51557 14.2754 3.64184 14.2754 2.76807C42.2014 2.76807 70.1276 2.76807 98.0534 2.76807C98.0534 3.64184 98.0534 4.51557 98.0534 5.38934C98.7648 5.38934 99.4766 5.38934 100.188 5.38934Z" fill="#5E312C"/>
<path fill-rule="evenodd" clip-rule="evenodd" d="M485.994 2.76807C487.061 2.76807 488.128 2.76807 489.195 2.76807C489.195 3.75105 489.195 4.73402 489.195 5.717C489.195 6.59077 489.195 7.46451 489.195 8.33828C488.306 8.33828 487.417 8.33828 486.527 8.33828C486.527 9.32126 486.527 10.3042 486.527 11.2872C486.527 12.161 486.527 13.0347 486.527 13.9085C486.527 17.5127 486.527 21.117 486.527 24.7213C485.995 19.3176 485.818 13.8566 485.994 8.33828C485.282 8.33828 484.57 8.33828 483.859 8.33828C483.859 7.46451 483.859 6.59077 483.859 5.717C484.57 5.717 485.282 5.717 485.994 5.717C485.994 4.73402 485.994 3.75105 485.994 2.76807Z" fill="#8D5A4C"/>
<path fill-rule="evenodd" clip-rule="evenodd" d="M489.195 5.71704C490.085 5.71704 490.974 5.71704 491.863 5.71704C491.863 22.1 491.863 38.483 491.863 54.866C490.085 54.866 488.306 54.866 486.527 54.866C484.57 54.866 482.614 54.866 480.657 54.866C480.657 53.9921 480.657 53.1186 480.657 52.2447C481.547 52.2447 482.436 52.2447 483.326 52.2447C484.215 52.2447 485.104 52.2447 485.994 52.2447C486.521 50.4508 486.699 48.5939 486.527 46.6745C487.417 46.6745 488.306 46.6745 489.195 46.6745C489.195 45.8006 489.195 44.9271 489.195 44.0532C488.306 44.0532 487.417 44.0532 486.527 44.0532C486.527 42.1964 486.527 40.3398 486.527 38.483C487.417 38.483 488.306 38.483 489.195 38.483C489.195 33.8958 489.195 29.3085 489.195 24.7213C488.306 24.7213 487.417 24.7213 486.527 24.7213C486.527 21.117 486.527 17.5128 486.527 13.9085C487.417 13.9085 488.306 13.9085 489.195 13.9085C489.195 13.0348 489.195 12.161 489.195 11.2873C488.306 11.2873 487.417 11.2873 486.527 11.2873C486.527 10.3043 486.527 9.3213 486.527 8.33832C487.417 8.33832 488.306 8.33832 489.195 8.33832C489.195 7.46455 489.195 6.59081 489.195 5.71704Z" fill="#6B3E38"/>
<path fill-rule="evenodd" clip-rule="evenodd" d="M480.657 11.2872C481.547 11.2872 482.436 11.2872 483.326 11.2872C483.326 12.161 483.326 13.0347 483.326 13.9085C482.436 13.9085 481.547 13.9085 480.657 13.9085C480.657 13.0347 480.657 12.161 480.657 11.2872Z" fill="#B29C94"/>
<path fill-rule="evenodd" clip-rule="evenodd" d="M486.527 11.2872C487.417 11.2872 488.306 11.2872 489.195 11.2872C489.195 12.161 489.195 13.0347 489.195 13.9085C488.306 13.9085 487.417 13.9085 486.527 13.9085C486.527 13.0347 486.527 12.161 486.527 11.2872Z" fill="#513B3B"/>
<path opacity="0.964" fill-rule="evenodd" clip-rule="evenodd" d="M475.321 8.33826C476.211 8.33826 477.1 8.33826 477.989 8.33826C477.989 10.195 477.989 12.0517 477.989 13.9085C478.879 13.9085 479.768 13.9085 480.658 13.9085C480.658 14.7822 480.658 15.656 480.658 16.5297C480.658 19.2602 480.658 21.9908 480.658 24.7212C479.768 24.7212 478.879 24.7212 477.989 24.7212C477.989 22.1 477.989 19.4787 477.989 16.8574C474.254 16.8574 470.519 16.8574 466.783 16.8574C466.783 15.8744 466.783 14.8914 466.783 13.9085C467.673 13.9085 468.562 13.9085 469.452 13.9085C471.408 13.9085 473.365 13.9085 475.321 13.9085C475.321 13.0347 475.321 12.161 475.321 11.2872C475.321 10.3042 475.321 9.32124 475.321 8.33826Z" fill="#8B5249"/>
<path fill-rule="evenodd" clip-rule="evenodd" d="M483.859 5.71704C483.859 6.59081 483.859 7.46455 483.859 8.33832C484.57 8.33832 485.282 8.33832 485.994 8.33832C485.818 13.8567 485.995 19.3177 486.527 24.7213C486.527 29.3085 486.527 33.8958 486.527 38.483C485.638 38.483 484.749 38.483 483.859 38.483C483.681 38.483 483.503 38.483 483.326 38.483C483.326 33.8958 483.326 29.3085 483.326 24.7213C483.326 21.9908 483.326 19.2603 483.326 16.5298C482.436 16.5298 481.547 16.5298 480.657 16.5298C480.657 15.656 480.657 14.7823 480.657 13.9085C481.547 13.9085 482.436 13.9085 483.326 13.9085C483.326 13.0348 483.326 12.161 483.326 11.2873C482.436 11.2873 481.547 11.2873 480.657 11.2873C480.657 9.43051 480.657 7.57379 480.657 5.71704C481.725 5.71704 482.792 5.71704 483.859 5.71704Z" fill="#AE7859"/>
<path fill-rule="evenodd" clip-rule="evenodd" d="M480.657 16.5298C481.547 16.5298 482.436 16.5298 483.326 16.5298C483.326 19.2603 483.326 21.9908 483.326 24.7213C482.436 24.7213 481.547 24.7213 480.657 24.7213C480.657 21.9908 480.657 19.2603 480.657 16.5298Z" fill="#D9996D"/>
<path fill-rule="evenodd" clip-rule="evenodd" d="M477.989 24.7213C478.879 24.7213 479.768 24.7213 480.657 24.7213C480.657 30.2915 480.657 35.8617 480.657 41.432C480.657 42.3058 480.657 43.1794 480.657 44.0532C479.768 44.0532 478.879 44.0532 477.989 44.0532C477.989 37.6091 477.989 31.1653 477.989 24.7213Z" fill="#B2764C"/>
<path fill-rule="evenodd" clip-rule="evenodd" d="M480.657 24.7213C481.547 24.7213 482.436 24.7213 483.326 24.7213C483.326 29.3085 483.326 33.8958 483.326 38.483C483.326 39.466 483.326 40.449 483.326 41.432C482.436 41.432 481.547 41.432 480.657 41.432C480.657 35.8617 480.657 30.2915 480.657 24.7213Z" fill="#F5C7A7"/>
<path fill-rule="evenodd" clip-rule="evenodd" d="M486.527 24.7213C487.417 24.7213 488.306 24.7213 489.195 24.7213C489.195 29.3085 489.195 33.8958 489.195 38.483C488.306 38.483 487.417 38.483 486.527 38.483C486.527 33.8958 486.527 29.3085 486.527 24.7213Z" fill="#905C4E"/>
<path fill-rule="evenodd" clip-rule="evenodd" d="M483.859 38.483C484.749 38.483 485.638 38.483 486.527 38.483C486.527 40.3398 486.527 42.1963 486.527 44.0532C486.527 44.9271 486.527 45.8006 486.527 46.6745C486.699 48.5939 486.521 50.4507 485.994 52.2447C485.994 49.5143 485.994 46.7836 485.994 44.0532C485.282 44.0532 484.57 44.0532 483.859 44.0532C483.859 42.1963 483.859 40.3398 483.859 38.483Z" fill="#8E5B4D"/>
<path fill-rule="evenodd" clip-rule="evenodd" d="M480.657 41.4319C481.547 41.4319 482.436 41.4319 483.326 41.4319C483.326 42.3058 483.326 43.1793 483.326 44.0532C482.436 44.0532 481.547 44.0532 480.657 44.0532C480.657 43.1793 480.657 42.3058 480.657 41.4319Z" fill="#DB9B6E"/>
<path fill-rule="evenodd" clip-rule="evenodd" d="M477.989 44.0532C478.879 44.0532 479.768 44.0532 480.657 44.0532C480.657 44.9271 480.657 45.8006 480.657 46.6745C480.657 47.6575 480.657 48.6405 480.657 49.6234C479.635 49.7165 478.746 49.6074 477.989 49.2958C477.989 47.5484 477.989 45.8006 477.989 44.0532Z" fill="#894F47"/>
<path fill-rule="evenodd" clip-rule="evenodd" d="M480.657 44.0532C481.547 44.0532 482.436 44.0532 483.326 44.0532C483.326 44.9271 483.326 45.8006 483.326 46.6745C482.436 46.6745 481.547 46.6745 480.657 46.6745C480.657 45.8006 480.657 44.9271 480.657 44.0532Z" fill="#B39D95"/>
<path fill-rule="evenodd" clip-rule="evenodd" d="M483.325 38.483C483.503 38.483 483.681 38.483 483.859 38.483C483.859 40.3398 483.859 42.1963 483.859 44.0532C484.57 44.0532 485.282 44.0532 485.994 44.0532C485.994 46.7836 485.994 49.5143 485.994 52.2447C485.104 52.2447 484.215 52.2447 483.325 52.2447C483.325 50.3878 483.325 48.5313 483.325 46.6745C483.325 45.8006 483.325 44.9271 483.325 44.0532C483.325 43.1793 483.325 42.3058 483.325 41.4319C483.325 40.4489 483.325 39.4659 483.325 38.483Z" fill="#A9735A"/>
<path fill-rule="evenodd" clip-rule="evenodd" d="M486.527 44.0532C487.417 44.0532 488.306 44.0532 489.195 44.0532C489.195 44.9271 489.195 45.8006 489.195 46.6745C488.306 46.6745 487.417 46.6745 486.527 46.6745C486.527 45.8006 486.527 44.9271 486.527 44.0532Z" fill="#513B3B"/>
<path fill-rule="evenodd" clip-rule="evenodd" d="M480.657 46.6744C481.547 46.6744 482.436 46.6744 483.326 46.6744C483.326 48.5313 483.326 50.3878 483.326 52.2447C482.436 52.2447 481.547 52.2447 480.657 52.2447C480.657 51.3708 480.657 50.4972 480.657 49.6234C480.657 48.6404 480.657 47.6574 480.657 46.6744Z" fill="#D9996D"/>
<path opacity="0.952" fill-rule="evenodd" clip-rule="evenodd" d="M472.653 49.2958C474.432 49.2958 476.211 49.2958 477.989 49.2958C478.746 49.6074 479.635 49.7165 480.657 49.6234C480.657 50.4973 480.657 51.3708 480.657 52.2447C479.768 52.2447 478.879 52.2447 477.989 52.2447C476.211 52.2447 474.432 52.2447 472.653 52.2447C472.653 51.2617 472.653 50.2788 472.653 49.2958Z" fill="#5E302C"/>
<path fill-rule="evenodd" clip-rule="evenodd" d="M477.989 52.2447C478.879 52.2447 479.768 52.2447 480.657 52.2447C480.657 53.1186 480.657 53.9921 480.657 54.866C479.768 54.866 478.879 54.866 477.989 54.866C477.989 53.9921 477.989 53.1186 477.989 52.2447Z" fill="#AE7856"/>
<path fill-rule="evenodd" clip-rule="evenodd" d="M475.321 55.1936C475.321 56.0675 475.321 56.941 475.321 57.8149C476.211 57.8149 477.1 57.8149 477.989 57.8149C480.657 57.8149 483.325 57.8149 485.993 57.8149C485.993 59.5623 485.993 61.31 485.993 63.0574C484.972 62.9644 484.083 63.0735 483.325 63.3851C480.657 63.3851 477.989 63.3851 475.321 63.3851C467.027 63.1135 458.667 63.0044 450.241 63.0574C450.241 62.1836 450.241 61.31 450.241 60.4362C449.352 60.4362 448.463 60.4362 447.573 60.4362C434.588 60.4362 421.603 60.4362 408.619 60.4362C408.619 61.31 408.619 62.1836 408.619 63.0574C402.12 62.95 395.717 63.0591 389.409 63.3851C389.409 64.259 389.409 65.1325 389.409 66.0064C381.938 66.0064 374.467 66.0064 366.997 66.0064C366.997 65.0234 366.997 64.0404 366.997 63.0574C361.386 62.95 355.872 63.0594 350.455 63.3851C347.506 63.4903 344.659 63.3812 341.917 63.0574C341.917 62.1836 341.917 61.31 341.917 60.4362C341.027 60.4362 340.138 60.4362 339.249 60.4362C339.249 59.5623 339.249 58.6887 339.249 57.8149C340.138 57.8149 341.027 57.8149 341.917 57.8149C342.806 57.8149 343.695 57.8149 344.585 57.8149C344.762 57.8149 344.941 57.8149 345.118 57.8149C387.63 57.8149 430.141 57.8149 472.653 57.8149C472.653 56.941 472.653 56.0675 472.653 55.1936C473.543 55.1936 474.432 55.1936 475.321 55.1936Z" fill="#AE7756"/>
<path fill-rule="evenodd" clip-rule="evenodd" d="M477.989 54.866C478.879 54.866 479.768 54.866 480.657 54.866C482.325 55.1867 484.103 55.2962 485.994 55.1936C485.994 56.0675 485.994 56.941 485.994 57.8149C483.325 57.8149 480.657 57.8149 477.989 57.8149C477.989 56.8319 477.989 55.8489 477.989 54.866Z" fill="#DA9A6E"/>
<path fill-rule="evenodd" clip-rule="evenodd" d="M480.657 54.866C482.614 54.866 484.57 54.866 486.527 54.866C486.527 57.7058 486.527 60.5453 486.527 63.3851C485.46 63.3851 484.393 63.3851 483.326 63.3851C484.083 63.0735 484.972 62.9644 485.994 63.0575C485.994 61.31 485.994 59.5623 485.994 57.8149C485.994 56.941 485.994 56.0675 485.994 55.1936C484.104 55.2962 482.325 55.1867 480.657 54.866Z" fill="#8B5845"/>
<path fill-rule="evenodd" clip-rule="evenodd" d="M447.573 60.4362C447.573 61.4191 447.573 62.4021 447.573 63.3851C444.727 63.3851 441.881 63.3851 439.035 63.3851C439.035 64.259 439.035 65.1325 439.035 66.0064C444.727 66.0064 450.419 66.0064 456.111 66.0064C456.111 65.1325 456.111 64.259 456.111 63.3851C461.625 63.3851 467.139 63.3851 472.653 63.3851C472.653 64.259 472.653 65.1325 472.653 66.0064C473.543 66.0064 474.432 66.0064 475.321 66.0064C477.1 66.0064 478.879 66.0064 480.657 66.0064C480.657 66.8802 480.657 67.7538 480.657 68.6276C432.632 68.6276 384.606 68.6276 336.581 68.6276C336.581 67.7538 336.581 66.8802 336.581 66.0064C341.205 66.0064 345.83 66.0064 350.455 66.0064C350.455 65.1325 350.455 64.259 350.455 63.3851C351.344 63.3851 352.233 63.3851 353.123 63.3851C353.123 64.259 353.123 65.1325 353.123 66.0064C354.012 66.0064 354.901 66.0064 355.791 66.0064C355.791 65.1325 355.791 64.259 355.791 63.3851C356.68 63.3851 357.569 63.3851 358.459 63.3851C358.459 64.259 358.459 65.1325 358.459 66.0064C361.305 66.0064 364.151 66.0064 366.997 66.0064C374.467 66.0064 381.938 66.0064 389.409 66.0064C389.409 65.1325 389.409 64.259 389.409 63.3851C392.966 63.3851 396.523 63.3851 400.081 63.3851C400.081 64.259 400.081 65.1325 400.081 66.0064C402.927 66.0064 405.773 66.0064 408.619 66.0064C408.619 65.0234 408.619 64.0404 408.619 63.0574C408.619 62.1836 408.619 61.31 408.619 60.4362C421.604 60.4362 434.589 60.4362 447.573 60.4362Z" fill="#6C3F39"/>
<path opacity="0.937" fill-rule="evenodd" clip-rule="evenodd" d="M489.195 2.76807C491.152 2.76807 493.108 2.76807 495.065 2.76807C495.065 20.2432 495.065 37.7185 495.065 55.1936C493.998 55.1936 492.931 55.1936 491.863 55.1936C491.863 56.0675 491.863 56.941 491.863 57.8149C490.974 57.8149 490.085 57.8149 489.195 57.8149C489.195 60.5453 489.195 63.276 489.195 66.0064C487.417 66.0064 485.638 66.0064 483.859 66.0064C483.859 66.9893 483.859 67.9723 483.859 68.9553C482.97 68.9553 482.081 68.9553 481.191 68.9553C481.191 69.8292 481.191 70.7027 481.191 71.5766C432.81 71.5766 384.429 71.5766 336.047 71.5766C336.047 70.7027 336.047 69.8292 336.047 68.9553C335.336 68.9553 334.624 68.9553 333.913 68.9553C278.149 69.0644 222.474 68.955 166.89 68.6276C222.564 68.6276 278.239 68.6276 333.913 68.6276C333.913 66.8802 333.913 65.1325 333.913 63.3851C334.624 63.3851 335.336 63.3851 336.047 63.3851C335.884 64.3304 336.061 65.2043 336.581 66.0064C336.581 66.8802 336.581 67.7538 336.581 68.6276C384.606 68.6276 432.632 68.6276 480.658 68.6276C480.658 67.7538 480.658 66.8802 480.658 66.0064C481.547 66.0064 482.436 66.0064 483.326 66.0064C483.326 65.1325 483.326 64.259 483.326 63.3851C484.393 63.3851 485.46 63.3851 486.527 63.3851C486.527 60.5453 486.527 57.7058 486.527 54.8659C488.306 54.8659 490.085 54.8659 491.863 54.8659C491.863 38.483 491.863 22.1 491.863 5.717C490.974 5.717 490.085 5.717 489.195 5.717C489.195 4.73402 489.195 3.75105 489.195 2.76807Z" fill="#5E312C"/>
<path fill-rule="evenodd" clip-rule="evenodd" d="M475.321 63.3851C477.989 63.3851 480.657 63.3851 483.326 63.3851C483.326 64.259 483.326 65.1325 483.326 66.0064C482.436 66.0064 481.547 66.0064 480.657 66.0064C478.879 66.0064 477.1 66.0064 475.321 66.0064C475.321 65.1325 475.321 64.259 475.321 63.3851Z" fill="#915D4F"/>
</svg>
