<svg width="22" height="266" viewBox="0 0 22 266" fill="none" xmlns="http://www.w3.org/2000/svg">
<path fill-rule="evenodd" clip-rule="evenodd" d="M2.58041 1.83911C3.40077 1.83911 4.22303 1.83911 5.04339 1.83911C5.04339 1.90364 5.04339 1.96818 5.04339 2.03271C5.04339 2.80709 5.04339 3.58147 5.04339 4.35585C5.04339 5.19476 5.04339 6.03368 5.04339 6.87259C5.04339 7.7115 5.04339 8.55042 5.04339 9.38933C5.04339 12.6805 5.04339 15.9716 5.04339 19.2627C4.22303 19.2627 3.40077 19.2627 2.58041 19.2627C2.58041 15.9716 2.58041 12.6805 2.58041 9.38933C1.76005 9.38933 0.937793 9.38933 0.117432 9.38933C0.117432 8.55042 0.117432 7.7115 0.117432 6.87259C0.117432 6.09821 0.117432 5.32383 0.117432 4.54945C0.117432 4.48492 0.117432 4.42038 0.117432 4.35585C0.304997 5.93363 0.369413 7.54692 0.306892 9.19573C1.06473 9.19573 1.82257 9.19573 2.58041 9.19573C2.58041 6.80807 2.58041 4.42038 2.58041 2.03271C2.58041 1.96818 2.58041 1.90364 2.58041 1.83911Z" fill="#8A5148"/>
<path fill-rule="evenodd" clip-rule="evenodd" d="M5.04346 4.35583C5.86382 4.35583 6.68607 4.35583 7.50644 4.35583C7.50644 5.19474 7.50644 6.03367 7.50644 6.87257C6.68607 6.87257 5.86382 6.87257 5.04346 6.87257C5.04346 6.03367 5.04346 5.19474 5.04346 4.35583Z" fill="#D9996D"/>
<path fill-rule="evenodd" clip-rule="evenodd" d="M5.04346 9.3894C5.8013 9.3894 6.55914 9.3894 7.31698 9.3894C7.31698 14.2938 7.31698 19.1982 7.31698 24.1027C6.55914 24.1027 5.8013 24.1027 5.04346 24.1027C5.04346 22.4894 5.04346 20.876 5.04346 19.2628C5.04346 15.9716 5.04346 12.6805 5.04346 9.3894Z" fill="#DB9C6E"/>
<path fill-rule="evenodd" clip-rule="evenodd" d="M2.58032 19.2627C3.40068 19.2627 4.22294 19.2627 5.0433 19.2627C5.0433 20.8759 5.0433 22.4893 5.0433 24.1026C5.0433 25.7805 5.0433 27.4582 5.0433 29.1361C4.22294 29.1361 3.40068 29.1361 2.58032 29.1361C2.58032 25.8449 2.58032 22.5538 2.58032 19.2627Z" fill="#B4784E"/>
<path fill-rule="evenodd" clip-rule="evenodd" d="M5.04346 24.1027C5.8013 24.1027 6.55914 24.1027 7.31698 24.1027C7.31698 25.7806 7.31698 27.4582 7.31698 29.1361C6.55914 29.1361 5.8013 29.1361 5.04346 29.1361C5.04346 27.4582 5.04346 25.7806 5.04346 24.1027Z" fill="#F6C8A8"/>
<path fill-rule="evenodd" clip-rule="evenodd" d="M5.04346 29.1361C5.8013 29.1361 6.55914 29.1361 7.31698 29.1361C7.31698 29.9105 7.31698 30.6849 7.31698 31.4593C6.55914 31.4593 5.8013 31.4593 5.04346 31.4593C5.04346 30.6849 5.04346 29.9105 5.04346 29.1361Z" fill="#B2774C"/>
<path fill-rule="evenodd" clip-rule="evenodd" d="M7.50635 29.1361C8.26419 29.1361 9.02203 29.1361 9.77987 29.1361C9.77987 29.9105 9.77987 30.6849 9.77987 31.4593C9.02203 31.4593 8.26419 31.4593 7.50635 31.4593C7.50635 30.6849 7.50635 29.9105 7.50635 29.1361Z" fill="#DB9C6E"/>
<path fill-rule="evenodd" clip-rule="evenodd" d="M7.31698 9.3894C7.50644 15.9386 7.56896 22.5208 7.50644 29.1361C7.50644 29.9105 7.50644 30.6849 7.50644 31.4593C8.26428 31.4593 9.02212 31.4593 9.77996 31.4593C10.6382 31.3977 11.4605 31.4622 12.2429 31.6529C11.4226 31.6529 10.6003 31.6529 9.77996 31.6529C9.02212 31.6529 8.26428 31.6529 7.50644 31.6529C7.50644 32.4272 7.50644 33.2016 7.50644 33.976C7.50644 35.6539 7.50644 37.3316 7.50644 39.0095C7.50644 40.6227 7.50644 42.2361 7.50644 43.8494C7.44391 43.8494 7.3795 43.8494 7.31698 43.8494C7.31698 42.2361 7.31698 40.6227 7.31698 39.0095C7.31698 36.5572 7.31698 34.1051 7.31698 31.6529C6.52124 31.7142 5.7634 31.6496 5.04346 31.4593C5.8013 31.4593 6.55914 31.4593 7.31698 31.4593C7.31698 30.6849 7.31698 29.9105 7.31698 29.1361C7.31698 27.4582 7.31698 25.7805 7.31698 24.1026C7.31698 19.1982 7.31698 14.2938 7.31698 9.3894Z" fill="#C8926E"/>
<path fill-rule="evenodd" clip-rule="evenodd" d="M9.77987 31.6528C9.77987 32.4272 9.77987 33.2016 9.77987 33.976C9.02203 33.976 8.26419 33.976 7.50635 33.976C7.50635 33.2016 7.50635 32.4272 7.50635 31.6528C8.26419 31.6528 9.02203 31.6528 9.77987 31.6528Z" fill="#B2774C"/>
<path fill-rule="evenodd" clip-rule="evenodd" d="M9.77979 31.6528C10.6001 31.6528 11.4224 31.6528 12.2428 31.6528C12.2428 32.4272 12.2428 33.2016 12.2428 33.976C11.4849 33.976 10.7271 33.976 9.96925 33.976C9.90672 33.976 9.84231 33.976 9.77979 33.976C9.77979 33.2016 9.77979 32.4272 9.77979 31.6528Z" fill="#F5C8A8"/>
<path fill-rule="evenodd" clip-rule="evenodd" d="M7.50635 33.976C8.26419 33.976 9.02203 33.976 9.77987 33.976C9.77987 35.6538 9.77987 37.3315 9.77987 39.0094C9.02203 39.0094 8.26419 39.0094 7.50635 39.0094C7.50635 37.3315 7.50635 35.6538 7.50635 33.976Z" fill="#8B5148"/>
<path fill-rule="evenodd" clip-rule="evenodd" d="M9.96924 33.976C10.7271 33.976 11.4849 33.976 12.2428 33.976C12.2428 35.6538 12.2428 37.3315 12.2428 39.0094C11.4849 39.0094 10.7271 39.0094 9.96924 39.0094C9.96924 37.3315 9.96924 35.6538 9.96924 33.976Z" fill="#DC9C6F"/>
<path fill-rule="evenodd" clip-rule="evenodd" d="M7.31698 39.0095C7.31698 40.6228 7.31698 42.2362 7.31698 43.8494C6.55914 43.8494 5.8013 43.8494 5.04346 43.8494C5.04346 42.2362 5.04346 40.6228 5.04346 39.0095C5.8013 39.0095 6.55914 39.0095 7.31698 39.0095Z" fill="#B2774C"/>
<path fill-rule="evenodd" clip-rule="evenodd" d="M7.50635 39.0095C8.26419 39.0095 9.02203 39.0095 9.77987 39.0095C9.77987 40.6228 9.77987 42.2362 9.77987 43.8494C9.02203 43.8494 8.26419 43.8494 7.50635 43.8494C7.50635 42.2362 7.50635 40.6228 7.50635 39.0095Z" fill="#F6CAA9"/>
<path fill-rule="evenodd" clip-rule="evenodd" d="M9.77987 33.976C9.84239 33.976 9.90681 33.976 9.96933 33.976C9.96933 35.6538 9.96933 37.3315 9.96933 39.0094C9.96933 40.6873 9.96933 42.365 9.96933 44.0429C9.14897 44.0429 8.32671 44.0429 7.50635 44.0429C7.50635 43.9784 7.50635 43.9138 7.50635 43.8493C8.26419 43.8493 9.02203 43.8493 9.77987 43.8493C9.77987 42.2361 9.77987 40.6227 9.77987 39.0094C9.77987 37.3315 9.77987 35.6538 9.77987 33.976Z" fill="#C48C6B"/>
<path fill-rule="evenodd" clip-rule="evenodd" d="M5.0433 43.8494C5.0433 44.6882 5.0433 45.5273 5.0433 46.3661C5.0433 48.8184 5.0433 51.2705 5.0433 53.7227C5.0433 57.0138 5.0433 60.305 5.0433 63.5961C4.22294 63.5961 3.40068 63.5961 2.58032 63.5961C2.58032 57.0138 2.58032 50.4316 2.58032 43.8494C3.40068 43.8494 4.22294 43.8494 5.0433 43.8494Z" fill="#B3774E"/>
<path fill-rule="evenodd" clip-rule="evenodd" d="M5.04346 43.8494C5.8013 43.8494 6.55914 43.8494 7.31698 43.8494C7.3795 43.8494 7.44391 43.8494 7.50644 43.8494C7.50644 43.9138 7.50644 43.9785 7.50644 44.043C7.50644 44.8173 7.50644 45.5917 7.50644 46.3661C7.44391 46.3661 7.3795 46.3661 7.31698 46.3661C6.55914 46.3661 5.8013 46.3661 5.04346 46.3661C5.04346 45.5273 5.04346 44.6882 5.04346 43.8494Z" fill="#8C5248"/>
<path fill-rule="evenodd" clip-rule="evenodd" d="M5.04346 46.3661C5.8013 46.3661 6.55914 46.3661 7.31698 46.3661C7.31698 48.8184 7.31698 51.2704 7.31698 53.7227C6.55914 53.7227 5.8013 53.7227 5.04346 53.7227C5.04346 51.2704 5.04346 48.8184 5.04346 46.3661Z" fill="#F6C9A9"/>
<path fill-rule="evenodd" clip-rule="evenodd" d="M5.04346 53.7227C5.8013 53.7227 6.55914 53.7227 7.31698 53.7227C7.31698 57.0138 7.31698 60.3049 7.31698 63.596C6.55914 63.596 5.8013 63.596 5.04346 63.596C5.04346 60.3049 5.04346 57.0138 5.04346 53.7227Z" fill="#DC9C6F"/>
<path fill-rule="evenodd" clip-rule="evenodd" d="M7.31698 46.3661C7.3795 46.3661 7.44391 46.3661 7.50644 46.3661C7.56896 52.2071 7.50644 58.0149 7.31698 63.7897C6.55914 63.7897 5.8013 63.7897 5.04346 63.7897C5.04346 63.7252 5.04346 63.6605 5.04346 63.5961C5.8013 63.5961 6.55914 63.5961 7.31698 63.5961C7.31698 60.305 7.31698 57.0138 7.31698 53.7227C7.31698 51.2704 7.31698 48.8184 7.31698 46.3661Z" fill="#C9906A"/>
<path fill-rule="evenodd" clip-rule="evenodd" d="M2.58032 63.5961C3.40068 63.5961 4.22294 63.5961 5.0433 63.5961C5.0433 63.6605 5.0433 63.7252 5.0433 63.7897C5.0433 65.4029 5.0433 67.0163 5.0433 68.6295C4.22294 68.6295 3.40068 68.6295 2.58032 68.6295C2.58032 66.9517 2.58032 65.274 2.58032 63.5961Z" fill="#8B5148"/>
<path fill-rule="evenodd" clip-rule="evenodd" d="M5.04346 63.7897C5.8013 63.7897 6.55914 63.7897 7.31698 63.7897C7.31698 65.4029 7.31698 67.0163 7.31698 68.6296C7.31698 69.4684 7.31698 70.3074 7.31698 71.1463C6.55914 71.1463 5.8013 71.1463 5.04346 71.1463C5.04346 70.3074 5.04346 69.4684 5.04346 68.6296C5.04346 67.0163 5.04346 65.4029 5.04346 63.7897Z" fill="#B3774D"/>
<path fill-rule="evenodd" clip-rule="evenodd" d="M5.0433 71.1462C5.0433 71.9206 5.0433 72.695 5.0433 73.4694C5.0433 76.825 5.0433 80.1808 5.0433 83.5363C4.22294 83.5363 3.40068 83.5363 2.58032 83.5363C2.58032 79.4064 2.58032 75.2762 2.58032 71.1462C3.40068 71.1462 4.22294 71.1462 5.0433 71.1462Z" fill="#B3784E"/>
<path fill-rule="evenodd" clip-rule="evenodd" d="M5.04346 71.1462C5.8013 71.1462 6.55914 71.1462 7.31698 71.1462C8.13734 71.1462 8.95959 71.1462 9.77996 71.1462C9.77996 80.9551 9.77996 90.7638 9.77996 100.573C9.77996 100.637 9.77996 100.702 9.77996 100.766C8.20175 100.766 6.62166 100.766 5.04346 100.766C5.04346 95.7973 5.04346 90.8285 5.04346 85.8595C5.86382 85.8595 6.68607 85.8595 7.50644 85.8595C7.53864 81.7934 7.50644 77.7279 7.41171 73.663C6.6406 73.4764 5.85245 73.4119 5.04346 73.4694C5.04346 72.695 5.04346 71.9206 5.04346 71.1462Z" fill="#DB9B6E"/>
<path fill-rule="evenodd" clip-rule="evenodd" d="M5.04346 73.4694C5.85245 73.4119 6.6406 73.4764 7.41171 73.663C7.50644 77.7279 7.53864 81.7934 7.50644 85.8595C6.68607 85.8595 5.86382 85.8595 5.04346 85.8595C5.04346 85.0851 5.04346 84.3108 5.04346 83.5364C5.04346 80.1808 5.04346 76.825 5.04346 73.4694Z" fill="#F5C8A7"/>
<path fill-rule="evenodd" clip-rule="evenodd" d="M12.2428 103.283C12.2428 136.194 12.2428 169.105 12.2428 202.017C11.4224 202.017 10.6002 202.017 9.7798 202.017C9.7798 206.92 9.7798 211.826 9.7798 216.73C8.95944 216.73 8.13718 216.73 7.31682 216.73C6.55898 216.73 5.80114 216.73 5.0433 216.73C4.22294 216.73 3.40068 216.73 2.58032 216.73C2.58032 211.826 2.58032 206.92 2.58032 202.017C3.40068 202.017 4.22294 202.017 5.0433 202.017C5.0433 192.982 5.0433 183.948 5.0433 174.913C5.8523 174.971 6.64045 174.906 7.41155 174.72C7.50628 166.524 7.53849 158.329 7.50628 150.133C6.68592 150.133 5.86366 150.133 5.0433 150.133C5.0433 149.294 5.0433 148.455 5.0433 147.616C5.86366 147.616 6.68592 147.616 7.50628 147.616C7.50628 146.778 7.50628 145.939 7.50628 145.1C6.68592 145.1 5.86366 145.1 5.0433 145.1C5.0433 143.486 5.0433 141.873 5.0433 140.26C5.86366 140.26 6.68592 140.26 7.50628 140.26C7.50628 132.839 7.50628 125.417 7.50628 117.996C6.68592 117.996 5.86366 117.996 5.0433 117.996C5.0433 115.544 5.0433 113.092 5.0433 110.64C5.0433 108.187 5.0433 105.735 5.0433 103.283C7.44376 103.283 9.84232 103.283 12.2428 103.283Z" fill="#DB9B6E"/>
<path fill-rule="evenodd" clip-rule="evenodd" d="M5.04346 117.996C5.86382 117.996 6.68607 117.996 7.50644 117.996C7.50644 125.417 7.50644 132.839 7.50644 140.26C6.68607 140.26 5.86382 140.26 5.04346 140.26C5.04346 132.839 5.04346 125.417 5.04346 117.996Z" fill="#F5C8A7"/>
<path fill-rule="evenodd" clip-rule="evenodd" d="M5.04346 145.1C5.86382 145.1 6.68607 145.1 7.50644 145.1C7.50644 145.939 7.50644 146.778 7.50644 147.616C6.68607 147.616 5.86382 147.616 5.04346 147.616C5.04346 146.778 5.04346 145.939 5.04346 145.1Z" fill="#B5794F"/>
<path fill-rule="evenodd" clip-rule="evenodd" d="M5.0433 147.616C5.0433 148.455 5.0433 149.294 5.0433 150.133C5.0433 154.263 5.0433 158.393 5.0433 162.523C4.98078 162.523 4.91636 162.523 4.85384 162.523C4.096 162.523 3.33816 162.523 2.58032 162.523C2.58032 157.554 2.58032 152.585 2.58032 147.616C3.40068 147.616 4.22294 147.616 5.0433 147.616Z" fill="#B4784E"/>
<path fill-rule="evenodd" clip-rule="evenodd" d="M5.04346 150.133C5.86382 150.133 6.68607 150.133 7.50644 150.133C7.53864 158.329 7.50644 166.525 7.41171 174.72C6.6406 174.906 5.85245 174.971 5.04346 174.913C5.04346 170.783 5.04346 166.653 5.04346 162.523C5.04346 158.393 5.04346 154.263 5.04346 150.133Z" fill="#F5C8A7"/>
<path fill-rule="evenodd" clip-rule="evenodd" d="M2.58032 162.523C3.33816 162.523 4.096 162.523 4.85384 162.523C4.85384 175.623 4.85384 188.723 4.85384 201.823C4.096 201.823 3.33816 201.823 2.58032 201.823C2.58032 188.723 2.58032 175.623 2.58032 162.523Z" fill="#895047"/>
<path fill-rule="evenodd" clip-rule="evenodd" d="M2.58041 202.017C2.58041 206.92 2.58041 211.826 2.58041 216.73C1.76005 216.73 0.937793 216.73 0.117432 216.73C0.117432 211.826 0.117432 206.92 0.117432 202.017C0.937793 202.017 1.76005 202.017 2.58041 202.017Z" fill="#8B5249"/>
<path fill-rule="evenodd" clip-rule="evenodd" d="M5.04346 216.73C5.8013 216.73 6.55914 216.73 7.31698 216.73C7.31698 217.568 7.31698 218.408 7.31698 219.247C6.55914 219.247 5.8013 219.247 5.04346 219.247C5.04346 218.408 5.04346 217.568 5.04346 216.73Z" fill="#B3774D"/>
<path fill-rule="evenodd" clip-rule="evenodd" d="M7.31689 216.73C8.13726 216.73 8.95951 216.73 9.77987 216.73C10.6002 216.73 11.4225 216.73 12.2429 216.73C12.2429 217.568 12.2429 218.408 12.2429 219.247C10.6002 219.247 8.95951 219.247 7.31689 219.247C7.31689 218.408 7.31689 217.568 7.31689 216.73Z" fill="#8B5148"/>
<path fill-rule="evenodd" clip-rule="evenodd" d="M5.0433 219.247C5.0433 220.085 5.0433 220.925 5.0433 221.763C5.0433 225.055 5.0433 228.346 5.0433 231.637C4.98078 231.637 4.91636 231.637 4.85384 231.637C4.096 231.637 3.33816 231.637 2.58032 231.637C2.58032 227.507 2.58032 223.376 2.58032 219.247C3.40068 219.247 4.22294 219.247 5.0433 219.247Z" fill="#B4784E"/>
<path fill-rule="evenodd" clip-rule="evenodd" d="M5.04346 219.247C5.8013 219.247 6.55914 219.247 7.31698 219.247C8.95959 219.247 10.6003 219.247 12.2429 219.247C12.2429 224.991 12.2429 230.733 12.2429 236.477C11.4226 236.477 10.6003 236.477 9.77996 236.477C9.77996 240.606 9.77996 244.737 9.77996 248.867C10.6003 248.867 11.4226 248.867 12.2429 248.867C12.2429 253.771 12.2429 258.676 12.2429 263.58C9.84248 263.58 7.44391 263.58 5.04346 263.58C5.04346 253.771 5.04346 243.963 5.04346 234.154C5.86382 234.154 6.68607 234.154 7.50644 234.154C7.56896 229.989 7.50644 225.86 7.31698 221.763C6.55914 221.763 5.8013 221.763 5.04346 221.763C5.04346 220.925 5.04346 220.085 5.04346 219.247Z" fill="#DC9C6F"/>
<path fill-rule="evenodd" clip-rule="evenodd" d="M5.04346 221.763C5.8013 221.763 6.55914 221.763 7.31698 221.763C7.31698 225.829 7.31698 229.894 7.31698 233.96C6.55914 233.96 5.8013 233.96 5.04346 233.96C5.04346 233.186 5.04346 232.411 5.04346 231.637C5.04346 228.346 5.04346 225.055 5.04346 221.763Z" fill="#F6CAA9"/>
<path fill-rule="evenodd" clip-rule="evenodd" d="M7.31698 221.763C7.50644 225.86 7.56896 229.989 7.50644 234.154C6.68607 234.154 5.86382 234.154 5.04346 234.154C5.04346 234.09 5.04346 234.024 5.04346 233.96C5.8013 233.96 6.55914 233.96 7.31698 233.96C7.31698 229.894 7.31698 225.829 7.31698 221.763Z" fill="#E9B38C"/>
<path fill-rule="evenodd" clip-rule="evenodd" d="M2.58032 231.637C3.33816 231.637 4.096 231.637 4.85384 231.637C4.85384 239.832 4.85384 248.029 4.85384 256.223C4.096 256.223 3.33816 256.223 2.58032 256.223C2.58032 255.449 2.58032 254.675 2.58032 253.9C2.58032 253.836 2.58032 253.771 2.58032 253.707C2.58032 246.35 2.58032 238.993 2.58032 231.637Z" fill="#895047"/>
<path fill-rule="evenodd" clip-rule="evenodd" d="M2.58032 256.223C3.33816 256.223 4.096 256.223 4.85384 256.223C4.85384 258.74 4.85384 261.257 4.85384 263.774C4.096 263.774 3.33816 263.774 2.58032 263.774C2.58032 262.161 2.58032 260.546 2.58032 258.934C2.58032 258.87 2.58032 258.804 2.58032 258.74C2.58032 257.902 2.58032 257.062 2.58032 256.223Z" fill="#6C3F39"/>
<path fill-rule="evenodd" clip-rule="evenodd" d="M2.58032 -0.0968018C7.37934 -0.0968018 12.1803 -0.0968018 16.9793 -0.0968018C16.9793 0.548515 16.9793 1.19383 16.9793 1.83915C13.0006 1.83915 9.02196 1.83915 5.0433 1.83915C4.22294 1.83915 3.40068 1.83915 2.58032 1.83915C2.58032 1.19383 2.58032 0.548515 2.58032 -0.0968018Z" fill="#6B3F38"/>
<path fill-rule="evenodd" clip-rule="evenodd" d="M5.04346 2.03271C9.08464 2.03271 13.1277 2.03271 17.1689 2.03271C17.1689 4.48493 17.1689 6.93712 17.1689 9.38934C16.3485 9.38934 15.5263 9.38934 14.7059 9.38934C14.7059 15.9716 14.7059 22.5538 14.7059 29.1361C15.4638 29.1361 16.2216 29.1361 16.9794 29.1361C16.9794 34.0404 16.9794 38.945 16.9794 43.8493C16.1591 43.8493 15.3368 43.8493 14.5165 43.8493C14.4539 48.013 14.5165 52.1429 14.7059 56.2394C15.5263 56.2394 16.3485 56.2394 17.1689 56.2394C17.1689 60.3694 17.1689 64.4995 17.1689 68.6295C16.3485 68.6295 15.5263 68.6295 14.7059 68.6295C12.2429 68.6295 9.77996 68.6295 7.31698 68.6295C7.31698 67.0163 7.31698 65.4029 7.31698 63.7896C7.50644 58.0149 7.56896 52.207 7.50644 46.366C7.50644 45.5917 7.50644 44.8173 7.50644 44.0429C8.3268 44.0429 9.14905 44.0429 9.96942 44.0429C9.96942 42.365 9.96942 40.6873 9.96942 39.0094C10.7273 39.0094 11.4851 39.0094 12.2429 39.0094C12.2429 37.3315 12.2429 35.6538 12.2429 33.9759C12.2429 33.2016 12.2429 32.4272 12.2429 31.6528C11.4605 31.4621 10.6382 31.3976 9.77996 31.4592C9.77996 30.6848 9.77996 29.9104 9.77996 29.1361C9.02212 29.1361 8.26428 29.1361 7.50644 29.1361C7.56896 22.5207 7.50644 15.9385 7.31698 9.38934C6.55914 9.38934 5.8013 9.38934 5.04346 9.38934C5.04346 8.55043 5.04346 7.71151 5.04346 6.8726C5.86382 6.8726 6.68607 6.8726 7.50644 6.8726C7.50644 6.03369 7.50644 5.19477 7.50644 4.35586C6.68607 4.35586 5.86382 4.35586 5.04346 4.35586C5.04346 3.58148 5.04346 2.8071 5.04346 2.03271Z" fill="#AE7756"/>
<path fill-rule="evenodd" clip-rule="evenodd" d="M5.04346 2.03271C5.04346 1.96818 5.04346 1.90364 5.04346 1.83911C9.02212 1.83911 13.0008 1.83911 16.9794 1.83911C17.7998 1.83911 18.622 1.83911 19.4424 1.83911C19.4424 1.90364 19.4424 1.96818 19.4424 2.03271C19.4424 19.2627 19.4424 36.4927 19.4424 53.7227C19.4424 58.6917 19.4424 63.6605 19.4424 68.6295C18.6846 68.6295 17.9267 68.6295 17.1689 68.6295C17.1689 64.4995 17.1689 60.3694 17.1689 56.2394C16.3485 56.2394 15.5263 56.2394 14.7059 56.2394C14.7059 52.1739 14.7059 48.1084 14.7059 44.0429C15.5263 44.0429 16.3485 44.0429 17.1689 44.0429C17.2314 39.0406 17.1689 34.0718 16.9794 29.1361C16.2216 29.1361 15.4638 29.1361 14.7059 29.1361C14.7059 22.5538 14.7059 15.9716 14.7059 9.38933C15.5263 9.38933 16.3485 9.38933 17.1689 9.38933C17.1689 6.93712 17.1689 4.48492 17.1689 2.03271C13.1277 2.03271 9.08464 2.03271 5.04346 2.03271Z" fill="#915D4F"/>
<path fill-rule="evenodd" clip-rule="evenodd" d="M19.4424 2.03271C20.2627 2.03271 21.085 2.03271 21.9054 2.03271C21.9054 19.2627 21.9054 36.4927 21.9054 53.7227C21.085 53.7227 20.2627 53.7227 19.4424 53.7227C19.4424 36.4927 19.4424 19.2627 19.4424 2.03271Z" fill="#8A5048"/>
<path fill-rule="evenodd" clip-rule="evenodd" d="M16.9793 29.1361C17.1688 34.0718 17.2313 39.0406 17.1688 44.043C16.3484 44.043 15.5262 44.043 14.7058 44.043C14.7058 48.1085 14.7058 52.174 14.7058 56.2395C14.5163 52.143 14.4538 48.013 14.5163 43.8494C15.3367 43.8494 16.159 43.8494 16.9793 43.8494C16.9793 38.945 16.9793 34.0405 16.9793 29.1361Z" fill="#A46E54"/>
<path fill-rule="evenodd" clip-rule="evenodd" d="M19.4424 53.7227C20.2627 53.7227 21.085 53.7227 21.9054 53.7227C21.9054 58.6917 21.9054 63.6605 21.9054 68.6295C21.1475 68.6295 20.3897 68.6295 19.6318 68.6295C19.5693 68.6295 19.5049 68.6295 19.4424 68.6295C19.4424 63.6605 19.4424 58.6917 19.4424 53.7227Z" fill="#6C3F39"/>
<path fill-rule="evenodd" clip-rule="evenodd" d="M7.31689 68.6295C9.77987 68.6295 12.2429 68.6295 14.7058 68.6295C14.7058 69.4684 14.7058 70.3074 14.7058 71.1463C13.0632 71.1463 11.4225 71.1463 9.77987 71.1463C8.95951 71.1463 8.13726 71.1463 7.31689 71.1463C7.31689 70.3074 7.31689 69.4684 7.31689 68.6295Z" fill="#8A5148"/>
<path fill-rule="evenodd" clip-rule="evenodd" d="M14.7058 68.6295C15.5262 68.6295 16.3484 68.6295 17.1688 68.6295C17.9266 68.6295 18.6845 68.6295 19.4423 68.6295C19.4423 69.4684 19.4423 70.3074 19.4423 71.1463C18.6845 71.1463 17.9266 71.1463 17.1688 71.1463C17.1063 71.1463 17.0419 71.1463 16.9793 71.1463C16.2215 71.1463 15.4637 71.1463 14.7058 71.1463C14.7058 70.3074 14.7058 69.4684 14.7058 68.6295Z" fill="#6C3F39"/>
<path opacity="0.78" fill-rule="evenodd" clip-rule="evenodd" d="M19.6318 68.6295C20.3897 68.6295 21.1475 68.6295 21.9054 68.6295C21.9054 69.4039 21.9054 70.1783 21.9054 70.9527C21.1475 70.9527 20.3897 70.9527 19.6318 70.9527C19.6318 70.1783 19.6318 69.4039 19.6318 68.6295Z" fill="#E9D3B7"/>
<path opacity="0.835" fill-rule="evenodd" clip-rule="evenodd" d="M19.4424 68.6295C19.5049 68.6295 19.5693 68.6295 19.6318 68.6295C19.6318 69.4039 19.6318 70.1783 19.6318 70.9527C20.3897 70.9527 21.1475 70.9527 21.9054 70.9527C21.9054 71.0171 21.9054 71.0818 21.9054 71.1463C21.085 71.1463 20.2627 71.1463 19.4424 71.1463C19.4424 70.3074 19.4424 69.4684 19.4424 68.6295Z" fill="#C3A791"/>
<path fill-rule="evenodd" clip-rule="evenodd" d="M9.77979 71.1462C11.4224 71.1462 13.0631 71.1462 14.7057 71.1462C15.4636 71.1462 16.2214 71.1462 16.9793 71.1462C16.9793 80.9551 16.9793 90.7638 16.9793 100.573C14.5788 100.573 12.1802 100.573 9.77979 100.573C9.77979 90.7638 9.77979 80.9551 9.77979 71.1462Z" fill="#AF7857"/>
<path fill-rule="evenodd" clip-rule="evenodd" d="M16.9793 71.1462C17.0418 71.1462 17.1062 71.1462 17.1687 71.1462C17.1687 81.0196 17.1687 90.893 17.1687 100.766C14.7057 100.766 12.2428 100.766 9.77979 100.766C9.77979 100.702 9.77979 100.637 9.77979 100.573C12.1802 100.573 14.5788 100.573 16.9793 100.573C16.9793 90.7638 16.9793 80.9551 16.9793 71.1462Z" fill="#A06B53"/>
<path fill-rule="evenodd" clip-rule="evenodd" d="M17.1687 71.1462C17.9265 71.1462 18.6844 71.1462 19.4422 71.1462C19.4422 76.0506 19.4422 80.9551 19.4422 85.8595C19.4422 87.5374 19.4422 89.2151 19.4422 90.893C19.4422 97.4752 19.4422 104.057 19.4422 110.64C19.4422 117.996 19.4422 125.353 19.4422 132.71C18.6844 132.71 17.9265 132.71 17.1687 132.71C17.1687 122.836 17.1687 112.963 17.1687 103.089C17.1687 102.315 17.1687 101.541 17.1687 100.766C17.1687 90.893 17.1687 81.0196 17.1687 71.1462Z" fill="#915E4F"/>
<path fill-rule="evenodd" clip-rule="evenodd" d="M19.4424 71.1462C20.2627 71.1462 21.085 71.1462 21.9054 71.1462C21.9054 76.0506 21.9054 80.9551 21.9054 85.8595C21.085 85.8595 20.2627 85.8595 19.4424 85.8595C19.4424 80.9551 19.4424 76.0506 19.4424 71.1462Z" fill="#6C3F39"/>
<path fill-rule="evenodd" clip-rule="evenodd" d="M2.58032 83.5364C3.40068 83.5364 4.22294 83.5364 5.0433 83.5364C5.0433 84.3108 5.0433 85.0851 5.0433 85.8595C5.0433 90.8285 5.0433 95.7974 5.0433 100.766C6.6215 100.766 8.2016 100.766 9.7798 100.766C12.2428 100.766 14.7058 100.766 17.1687 100.766C17.1687 101.541 17.1687 102.315 17.1687 103.09C13.0631 103.09 8.95944 103.09 4.85384 103.09C4.85384 105.542 4.85384 107.994 4.85384 110.446C4.096 110.446 3.33816 110.446 2.58032 110.446C2.58032 101.476 2.58032 92.5062 2.58032 83.5364Z" fill="#8A5048"/>
<path fill-rule="evenodd" clip-rule="evenodd" d="M19.4424 85.8595C20.2627 85.8595 21.085 85.8595 21.9054 85.8595C21.9054 87.5374 21.9054 89.2151 21.9054 90.893C21.085 90.893 20.2627 90.893 19.4424 90.893C19.4424 89.2151 19.4424 87.5374 19.4424 85.8595Z" fill="#894F47"/>
<path fill-rule="evenodd" clip-rule="evenodd" d="M19.4424 90.8931C20.2627 90.8931 21.085 90.8931 21.9054 90.8931C21.9054 97.4753 21.9054 104.058 21.9054 110.64C21.085 110.64 20.2627 110.64 19.4424 110.64C19.4424 104.058 19.4424 97.4753 19.4424 90.8931Z" fill="#6C3F39"/>
<path fill-rule="evenodd" clip-rule="evenodd" d="M12.2428 103.283C13.821 103.283 15.4011 103.283 16.9793 103.283C16.9793 113.156 16.9793 123.03 16.9793 132.903C17.7996 132.903 18.6219 132.903 19.4422 132.903C19.4422 143.551 19.4422 154.199 19.4422 164.846C18.6219 164.846 17.7996 164.846 16.9793 164.846C16.9793 171.493 16.9793 178.14 16.9793 184.787C17.7996 184.787 18.6219 184.787 19.4422 184.787C19.4422 189.691 19.4422 194.596 19.4422 199.5C18.6844 199.5 17.9266 199.5 17.1687 199.5C17.1687 203.629 17.1687 207.761 17.1687 211.89C16.3484 211.89 15.5261 211.89 14.7057 211.89C14.7057 213.503 14.7057 215.117 14.7057 216.73C13.8854 216.73 13.0631 216.73 12.2428 216.73C11.4224 216.73 10.6001 216.73 9.77979 216.73C9.77979 211.826 9.77979 206.92 9.77979 202.017C10.6001 202.017 11.4224 202.017 12.2428 202.017C12.2428 169.105 12.2428 136.194 12.2428 103.283Z" fill="#AE7757"/>
<path fill-rule="evenodd" clip-rule="evenodd" d="M17.1687 103.089C17.1687 112.963 17.1687 122.836 17.1687 132.71C17.9266 132.71 18.6844 132.71 19.4423 132.71C19.4423 132.774 19.4423 132.839 19.4423 132.903C18.6219 132.903 17.7996 132.903 16.9793 132.903C16.9793 123.03 16.9793 113.156 16.9793 103.283C15.4011 103.283 13.821 103.283 12.2428 103.283C9.84232 103.283 7.44376 103.283 5.0433 103.283C5.0433 105.735 5.0433 108.187 5.0433 110.64C4.22294 110.64 3.40068 110.64 2.58032 110.64C2.58032 110.575 2.58032 110.511 2.58032 110.446C3.33816 110.446 4.096 110.446 4.85384 110.446C4.85384 107.994 4.85384 105.542 4.85384 103.089C8.95944 103.089 13.0631 103.089 17.1687 103.089Z" fill="#A16A53"/>
<path fill-rule="evenodd" clip-rule="evenodd" d="M19.4424 110.64C20.2627 110.64 21.085 110.64 21.9054 110.64C21.9054 142.712 21.9054 174.784 21.9054 206.857C21.085 206.857 20.2627 206.857 19.4424 206.857C19.4424 204.404 19.4424 201.953 19.4424 199.5C19.4424 194.596 19.4424 189.691 19.4424 184.787C19.4424 184.722 19.4424 184.658 19.4424 184.593C19.4424 178.075 19.4424 171.558 19.4424 165.04C19.4424 164.976 19.4424 164.911 19.4424 164.846C19.4424 154.199 19.4424 143.551 19.4424 132.903C19.4424 132.839 19.4424 132.774 19.4424 132.71C19.4424 125.353 19.4424 117.996 19.4424 110.64Z" fill="#8A5048"/>
<path fill-rule="evenodd" clip-rule="evenodd" d="M19.4422 164.846C19.4422 164.911 19.4422 164.976 19.4422 165.04C18.6844 165.04 17.9265 165.04 17.1687 165.04C17.1687 171.558 17.1687 178.075 17.1687 184.593C17.9265 184.593 18.6844 184.593 19.4422 184.593C19.4422 184.658 19.4422 184.722 19.4422 184.787C18.6219 184.787 17.7996 184.787 16.9792 184.787C16.9792 178.14 16.9792 171.493 16.9792 164.846C17.7996 164.846 18.6219 164.846 19.4422 164.846Z" fill="#9F6A52"/>
<path fill-rule="evenodd" clip-rule="evenodd" d="M19.4422 165.04C19.4422 171.558 19.4422 178.075 19.4422 184.593C18.6844 184.593 17.9265 184.593 17.1687 184.593C17.1687 178.075 17.1687 171.558 17.1687 165.04C17.9265 165.04 18.6844 165.04 19.4422 165.04Z" fill="#915E4F"/>
<path fill-rule="evenodd" clip-rule="evenodd" d="M19.4423 199.5C19.4423 201.953 19.4423 204.404 19.4423 206.857C19.4423 210.148 19.4423 213.439 19.4423 216.73C17.8641 216.73 16.284 216.73 14.7058 216.73C14.7058 215.117 14.7058 213.503 14.7058 211.89C15.5262 211.89 16.3484 211.89 17.1688 211.89C17.1688 207.761 17.1688 203.629 17.1688 199.5C17.9266 199.5 18.6845 199.5 19.4423 199.5Z" fill="#915E4F"/>
<path fill-rule="evenodd" clip-rule="evenodd" d="M19.4424 206.857C20.2628 206.857 21.085 206.857 21.9054 206.857C21.9054 214.277 21.9054 221.7 21.9054 229.12C21.085 229.12 20.2628 229.12 19.4424 229.12C19.4424 225.829 19.4424 222.538 19.4424 219.247C17.8642 219.247 16.2841 219.247 14.7059 219.247C13.8855 219.247 13.0633 219.247 12.2429 219.247C12.2429 218.409 12.2429 217.568 12.2429 216.73C13.0633 216.73 13.8855 216.73 14.7059 216.73C16.2841 216.73 17.8642 216.73 19.4424 216.73C19.4424 213.439 19.4424 210.148 19.4424 206.857Z" fill="#6C3F39"/>
<path fill-rule="evenodd" clip-rule="evenodd" d="M12.2428 219.247C13.0631 219.247 13.8854 219.247 14.7057 219.247C14.7057 220.085 14.7057 220.925 14.7057 221.763C15.5261 221.763 16.3484 221.763 17.1687 221.763C17.2312 234.961 17.1687 248.125 16.9793 261.257C16.2214 261.257 15.4636 261.257 14.7057 261.257C14.5201 261.993 14.4557 262.767 14.5163 263.58C13.7584 263.58 13.0006 263.58 12.2428 263.58C12.2428 258.676 12.2428 253.771 12.2428 248.867C11.4224 248.867 10.6001 248.867 9.77979 248.867C9.77979 244.737 9.77979 240.606 9.77979 236.477C10.6001 236.477 11.4224 236.477 12.2428 236.477C12.2428 230.733 12.2428 224.991 12.2428 219.247Z" fill="#AE7756"/>
<path fill-rule="evenodd" clip-rule="evenodd" d="M14.7059 219.247C16.2841 219.247 17.8642 219.247 19.4424 219.247C19.4424 222.538 19.4424 225.829 19.4424 229.12C19.4424 234.864 19.4424 240.606 19.4424 246.35C19.4424 252.094 19.4424 257.836 19.4424 263.58C18.6846 263.58 17.9267 263.58 17.1689 263.58C17.1689 264.354 17.1689 265.129 17.1689 265.903C17.1064 265.903 17.042 265.903 16.9794 265.903C16.9794 265.193 16.9794 264.484 16.9794 263.774C16.2216 263.774 15.4638 263.774 14.7059 263.774C14.7059 264.484 14.7059 265.193 14.7059 265.903C14.6434 265.903 14.579 265.903 14.5165 265.903C14.5165 265.193 14.5165 264.484 14.5165 263.774C11.3582 263.774 8.20175 263.774 5.04346 263.774C5.04346 263.71 5.04346 263.644 5.04346 263.58C7.44391 263.58 9.84248 263.58 12.2429 263.58C13.0008 263.58 13.7586 263.58 14.5165 263.58C14.4558 262.767 14.5202 261.993 14.7059 261.257C14.7059 262.031 14.7059 262.806 14.7059 263.58C15.4638 263.58 16.2216 263.58 16.9794 263.58C16.9794 262.806 16.9794 262.031 16.9794 261.257C17.1689 248.125 17.2314 234.961 17.1689 221.763C16.3485 221.763 15.5263 221.763 14.7059 221.763C14.7059 220.925 14.7059 220.085 14.7059 219.247Z" fill="#925E50"/>
<path fill-rule="evenodd" clip-rule="evenodd" d="M19.4424 229.12C20.2627 229.12 21.085 229.12 21.9054 229.12C21.9054 234.864 21.9054 240.606 21.9054 246.35C21.085 246.35 20.2627 246.35 19.4424 246.35C19.4424 240.606 19.4424 234.864 19.4424 229.12Z" fill="#8A5048"/>
<path opacity="0.986" fill-rule="evenodd" clip-rule="evenodd" d="M19.4422 246.35C20.2626 246.35 21.0848 246.35 21.9052 246.35C21.9052 252.868 21.9052 259.385 21.9052 265.903C20.327 265.903 18.7469 265.903 17.1687 265.903C17.1687 265.129 17.1687 264.354 17.1687 263.58C17.9265 263.58 18.6844 263.58 19.4422 263.58C19.4422 257.836 19.4422 252.094 19.4422 246.35Z" fill="#6C3F39"/>
<path fill-rule="evenodd" clip-rule="evenodd" d="M14.7058 261.257C15.4637 261.257 16.2215 261.257 16.9793 261.257C16.9793 262.031 16.9793 262.806 16.9793 263.58C16.2215 263.58 15.4637 263.58 14.7058 263.58C14.7058 262.806 14.7058 262.031 14.7058 261.257Z" fill="#6B3F38"/>
<path opacity="0.932" fill-rule="evenodd" clip-rule="evenodd" d="M5.04346 263.774C8.20175 263.774 11.3582 263.774 14.5165 263.774C14.5165 264.484 14.5165 265.193 14.5165 265.903C11.3582 265.903 8.20175 265.903 5.04346 265.903C5.04346 265.193 5.04346 264.484 5.04346 263.774Z" fill="#6C3F39"/>
<path opacity="0.78" fill-rule="evenodd" clip-rule="evenodd" d="M16.9793 265.903C16.2215 265.903 15.4637 265.903 14.7058 265.903C14.7058 265.193 14.7058 264.484 14.7058 263.774C15.4637 263.774 16.2215 263.774 16.9793 263.774C16.9793 264.484 16.9793 265.193 16.9793 265.903Z" fill="#E9D2B8"/>
</svg>
