<svg width="499" height="72" viewBox="0 0 499 72" fill="none" xmlns="http://www.w3.org/2000/svg">
<path fill-rule="evenodd" clip-rule="evenodd" d="M475.12 8.33826C476.187 8.33826 477.254 8.33826 478.321 8.33826C478.321 9.32124 478.321 10.3042 478.321 11.2872C477.254 11.2872 476.187 11.2872 475.12 11.2872C475.12 10.3042 475.12 9.32124 475.12 8.33826Z" fill="#B0978E"/>
<path opacity="0.936" fill-rule="evenodd" clip-rule="evenodd" d="M295.29 5.38934C231.256 5.38934 167.222 5.38934 103.188 5.38934C103.188 4.51557 103.188 3.64184 103.188 2.76807C167.222 2.76807 231.256 2.76807 295.29 2.76807C295.29 3.64184 295.29 4.51557 295.29 5.38934Z" fill="#5D302B"/>
<path fill-rule="evenodd" clip-rule="evenodd" d="M89.3138 5.71704C89.3138 6.59081 89.3138 7.46455 89.3138 8.33832C82.0209 8.33832 74.7284 8.33832 67.4355 8.33832C65.6569 8.33832 63.8778 8.33832 62.0993 8.33832C62.0993 9.21209 62.0993 10.0858 62.0993 10.9596C53.7393 10.9596 45.3793 10.9596 37.0193 10.9596C37.0193 11.0688 37.0193 11.178 37.0193 11.2873C35.8264 11.3838 34.7592 11.2746 33.8175 10.9596C33.8175 10.0858 33.8175 9.21209 33.8175 8.33832C31.1495 8.33832 28.4814 8.33832 25.8133 8.33832C25.8133 9.21209 25.8133 10.0858 25.8133 10.9596C25.8133 11.0688 25.8133 11.178 25.8133 11.2873C24.0346 11.2873 22.2558 11.2873 20.4771 11.2873C20.4771 12.161 20.4771 13.0348 20.4771 13.9085C19.9578 13.1065 19.78 12.2327 19.9435 11.2873C19.232 11.2873 18.5205 11.2873 17.809 11.2873C17.9862 24.9954 17.8083 38.6478 17.2754 52.2447C17.2754 38.5921 17.2754 24.9397 17.2754 11.2873C17.2754 11.178 17.2754 11.0688 17.2754 10.9596C17.2754 9.21209 17.2754 7.46455 17.2754 5.71704C41.2882 5.71704 65.301 5.71704 89.3138 5.71704Z" fill="#6D4039"/>
<path fill-rule="evenodd" clip-rule="evenodd" d="M89.3137 5.71704C92.1595 5.71704 95.0058 5.71704 97.8516 5.71704C97.8516 6.59081 97.8516 7.46455 97.8516 8.33832C96.0731 8.33832 94.294 8.33832 92.5154 8.33832C91.4482 8.33832 90.381 8.33832 89.3137 8.33832C89.3137 7.46455 89.3137 6.59081 89.3137 5.71704Z" fill="#905D4F"/>
<path fill-rule="evenodd" clip-rule="evenodd" d="M278.214 5.71704C278.214 6.59081 278.214 7.46455 278.214 8.33832C258.827 8.33832 239.438 8.33832 220.05 8.33832C216.315 8.33832 212.579 8.33832 208.844 8.33832C208.844 9.21209 208.844 10.0858 208.844 10.9596C200.484 10.9596 192.124 10.9596 183.764 10.9596C183.764 10.0858 183.764 9.21209 183.764 8.33832C179.139 8.33832 174.515 8.33832 169.89 8.33832C157.973 8.33832 146.055 8.33832 134.138 8.33832C130.402 8.33832 126.667 8.33832 122.932 8.33832C122.042 8.33832 121.153 8.33832 120.264 8.33832C120.264 9.21209 120.264 10.0858 120.264 10.9596C118.307 10.9596 116.351 10.9596 114.394 10.9596C114.394 10.0858 114.394 9.21209 114.394 8.33832C113.504 8.33832 112.615 8.33832 111.726 8.33832C109.058 8.33832 106.39 8.33832 103.721 8.33832C103.721 7.46455 103.721 6.59081 103.721 5.71704C161.886 5.71704 220.05 5.71704 278.214 5.71704Z" fill="#6C3F39"/>
<path fill-rule="evenodd" clip-rule="evenodd" d="M278.215 5.71704C282.839 5.71704 287.464 5.71704 292.089 5.71704C292.089 6.59081 292.089 7.46455 292.089 8.33832C291.199 8.33832 290.31 8.33832 289.421 8.33832C288.531 8.33832 287.642 8.33832 286.752 8.33832C283.907 8.33832 281.06 8.33832 278.215 8.33832C278.215 7.46455 278.215 6.59081 278.215 5.71704Z" fill="#915D4F"/>
<path fill-rule="evenodd" clip-rule="evenodd" d="M414.287 8.33832C413.398 8.33832 412.509 8.33832 411.619 8.33832C410.729 8.33832 409.84 8.33832 408.951 8.33832C408.951 9.3213 408.951 10.3043 408.951 11.2873C406.994 11.2873 405.038 11.2873 403.081 11.2873C403.081 11.178 403.081 11.0688 403.081 10.9596C402.192 10.9596 401.303 10.9596 400.413 10.9596C400.413 10.0858 400.413 9.21209 400.413 8.33832C399.523 8.33832 398.634 8.33832 397.745 8.33832C395.966 8.33832 394.187 8.33832 392.409 8.33832C384.049 8.33832 375.689 8.33832 367.329 8.33832C363.593 8.33832 359.858 8.33832 356.123 8.33832C356.123 9.21209 356.123 10.0858 356.123 10.9596C341.359 10.9596 326.596 10.9596 311.832 10.9596C311.832 10.0858 311.832 9.21209 311.832 8.33832C310.765 8.33832 309.698 8.33832 308.631 8.33832C308.631 9.21209 308.631 10.0858 308.631 10.9596C307.919 10.9596 307.208 10.9596 306.496 10.9596C306.66 10.0142 306.482 9.1404 305.963 8.33832C305.963 7.46455 305.963 6.59081 305.963 5.71704C342.071 5.71704 378.179 5.71704 414.287 5.71704C414.287 6.59081 414.287 7.46455 414.287 8.33832Z" fill="#6C3F39"/>
<path fill-rule="evenodd" clip-rule="evenodd" d="M480.989 8.33832C480.1 8.33832 479.211 8.33832 478.321 8.33832C477.254 8.33832 476.187 8.33832 475.12 8.33832C473.341 8.33832 471.562 8.33832 469.783 8.33832C468.894 8.33832 468.005 8.33832 467.115 8.33832C467.115 9.21209 467.115 10.0858 467.115 10.9596C460.534 10.9596 453.952 10.9596 447.371 10.9596C440.968 10.9596 434.565 10.9596 428.161 10.9596C428.161 10.0858 428.161 9.21209 428.161 8.33832C427.272 8.33832 426.383 8.33832 425.493 8.33832C425.493 9.21209 425.493 10.0858 425.493 10.9596C424.603 10.9596 423.714 10.9596 422.825 10.9596C422.825 10.0858 422.825 9.21209 422.825 8.33832C422.825 7.46455 422.825 6.59081 422.825 5.71704C442.213 5.71704 461.601 5.71704 480.989 5.71704C480.989 6.59081 480.989 7.46455 480.989 8.33832Z" fill="#6B3E38"/>
<path fill-rule="evenodd" clip-rule="evenodd" d="M33.8175 10.9595C31.1494 10.9595 28.4813 10.9595 25.8132 10.9595C25.8132 10.0858 25.8132 9.21203 25.8132 8.33826C28.4813 8.33826 31.1494 8.33826 33.8175 8.33826C33.8175 9.21203 33.8175 10.0858 33.8175 10.9595Z" fill="#905D4F"/>
<path fill-rule="evenodd" clip-rule="evenodd" d="M37.0192 10.9595C36.1298 10.9595 35.2405 10.9595 34.3511 10.9595C34.3511 10.0858 34.3511 9.21203 34.3511 8.33826C35.2405 8.33826 36.1298 8.33826 37.0192 8.33826C37.0192 9.21203 37.0192 10.0858 37.0192 10.9595Z" fill="#523B3B"/>
<path fill-rule="evenodd" clip-rule="evenodd" d="M67.4355 8.33826C74.7285 8.33826 82.0209 8.33826 89.3139 8.33826C89.3139 9.32124 89.3139 10.3042 89.3139 11.2872C82.0209 11.2872 74.7285 11.2872 67.4355 11.2872C67.4355 10.3042 67.4355 9.32124 67.4355 8.33826Z" fill="#AF7959"/>
<path fill-rule="evenodd" clip-rule="evenodd" d="M89.3137 8.33826C90.381 8.33826 91.4482 8.33826 92.5154 8.33826C92.5154 9.32124 92.5154 10.3042 92.5154 11.2872C91.4482 11.2872 90.381 11.2872 89.3137 11.2872C89.3137 10.3042 89.3137 9.32124 89.3137 8.33826Z" fill="#B59B8F"/>
<path fill-rule="evenodd" clip-rule="evenodd" d="M97.8516 5.71704C98.7411 5.71704 99.6301 5.71704 100.52 5.71704C100.52 7.57379 100.52 9.43051 100.52 11.2873C100.52 12.161 100.52 13.0348 100.52 13.9085C99.6301 13.9085 98.7411 13.9085 97.8516 13.9085C97.8516 13.0348 97.8516 12.161 97.8516 11.2873C96.073 11.2873 94.2939 11.2873 92.5154 11.2873C92.5154 10.3043 92.5154 9.3213 92.5154 8.33832C94.2939 8.33832 96.073 8.33832 97.8516 8.33832C97.8516 7.46455 97.8516 6.59081 97.8516 5.71704Z" fill="#AD7657"/>
<path fill-rule="evenodd" clip-rule="evenodd" d="M111.726 8.33826C112.615 8.33826 113.504 8.33826 114.394 8.33826C114.394 9.21203 114.394 10.0858 114.394 10.9595C113.504 10.9595 112.615 10.9595 111.726 10.9595C111.726 10.0858 111.726 9.21203 111.726 8.33826Z" fill="#513A3B"/>
<path fill-rule="evenodd" clip-rule="evenodd" d="M169.89 10.9596C169.89 11.0688 169.89 11.1781 169.89 11.2873C162.597 11.2873 155.305 11.2873 148.012 11.2873C148.012 12.1611 148.012 13.0348 148.012 13.9086C139.651 13.9086 131.292 13.9086 122.932 13.9086C122.932 13.0348 122.932 12.1611 122.932 11.2873C128.446 11.2873 133.96 11.2873 139.474 11.2873C139.474 10.4135 139.474 9.53979 139.474 8.66602C147.834 8.66602 156.194 8.66602 164.554 8.66602C164.554 9.43054 164.554 10.1951 164.554 10.9596C166.332 10.9596 168.111 10.9596 169.89 10.9596Z" fill="#DC9C70"/>
<path fill-rule="evenodd" clip-rule="evenodd" d="M122.932 8.33826C122.932 9.21203 122.932 10.0858 122.932 10.9595C126.667 10.9595 130.402 10.9595 134.138 10.9595C134.138 10.0858 134.138 9.21203 134.138 8.33826C146.055 8.33826 157.973 8.33826 169.89 8.33826C169.89 9.21203 169.89 10.0858 169.89 10.9595C168.111 10.9595 166.332 10.9595 164.554 10.9595C164.554 10.195 164.554 9.43044 164.554 8.66592C156.194 8.66592 147.834 8.66592 139.474 8.66592C139.474 9.53969 139.474 10.4134 139.474 11.2872C133.96 11.2872 128.445 11.2872 122.932 11.2872C122.042 11.2872 121.153 11.2872 120.264 11.2872C114.75 11.2872 109.235 11.2872 103.721 11.2872C103.544 11.2872 103.365 11.2872 103.188 11.2872C105.931 10.9634 108.777 10.8542 111.726 10.9595C112.615 10.9595 113.504 10.9595 114.394 10.9595C116.35 10.9595 118.307 10.9595 120.264 10.9595C120.264 10.0858 120.264 9.21203 120.264 8.33826C121.153 8.33826 122.042 8.33826 122.932 8.33826Z" fill="#AC7557"/>
<path fill-rule="evenodd" clip-rule="evenodd" d="M122.932 8.33826C126.667 8.33826 130.402 8.33826 134.138 8.33826C134.138 9.21203 134.138 10.0858 134.138 10.9595C130.402 10.9595 126.667 10.9595 122.932 10.9595C122.932 10.0858 122.932 9.21203 122.932 8.33826Z" fill="#915D4F"/>
<path fill-rule="evenodd" clip-rule="evenodd" d="M169.89 8.33826C174.515 8.33826 179.139 8.33826 183.764 8.33826C183.764 9.21203 183.764 10.0858 183.764 10.9595C192.124 10.9595 200.484 10.9595 208.844 10.9595C208.844 10.0858 208.844 9.21203 208.844 8.33826C212.58 8.33826 216.315 8.33826 220.05 8.33826C220.05 9.32124 220.05 10.3042 220.05 11.2872C217.204 11.2872 214.358 11.2872 211.512 11.2872C209.734 11.2872 207.955 11.2872 206.176 11.2872C195.148 11.2872 184.12 11.2872 173.092 11.2872C172.025 11.2872 170.957 11.2872 169.89 11.2872C169.89 11.178 169.89 11.0687 169.89 10.9595C169.89 10.0858 169.89 9.21203 169.89 8.33826Z" fill="#935F4F"/>
<path fill-rule="evenodd" clip-rule="evenodd" d="M220.05 8.33826C239.438 8.33826 258.826 8.33826 278.214 8.33826C281.06 8.33826 283.907 8.33826 286.752 8.33826C286.752 9.32124 286.752 10.3042 286.752 11.2872C281.235 11.3417 275.721 11.2871 270.21 11.1234C269.711 10.3433 269.534 9.52419 269.677 8.66592C264.34 8.66592 259.004 8.66592 253.668 8.66592C253.786 9.57642 253.608 10.4502 253.134 11.2872C250.466 11.2872 247.798 11.2872 245.13 11.2872C236.77 11.2872 228.41 11.2872 220.05 11.2872C220.05 10.3042 220.05 9.32124 220.05 8.33826Z" fill="#AF7857"/>
<path fill-rule="evenodd" clip-rule="evenodd" d="M286.752 8.33826C287.642 8.33826 288.531 8.33826 289.421 8.33826C289.421 9.32124 289.421 10.3042 289.421 11.2872C288.531 11.2872 287.642 11.2872 286.752 11.2872C286.752 10.3042 286.752 9.32124 286.752 8.33826Z" fill="#563F3E"/>
<path fill-rule="evenodd" clip-rule="evenodd" d="M289.42 8.33826C290.31 8.33826 291.199 8.33826 292.088 8.33826C292.088 9.21203 292.088 10.0858 292.088 10.9595C292.978 10.9595 293.867 10.9595 294.757 10.9595C294.757 11.0687 294.757 11.178 294.757 11.2872C292.978 11.2872 291.199 11.2872 289.42 11.2872C289.42 10.3042 289.42 9.32124 289.42 8.33826Z" fill="#AF7858"/>
<path fill-rule="evenodd" clip-rule="evenodd" d="M292.089 8.33826C292.978 8.33826 293.867 8.33826 294.757 8.33826C294.757 9.21203 294.757 10.0858 294.757 10.9595C293.867 10.9595 292.978 10.9595 292.089 10.9595C292.089 10.0858 292.089 9.21203 292.089 8.33826Z" fill="#925E4F"/>
<path fill-rule="evenodd" clip-rule="evenodd" d="M305.963 11.2873C303.295 11.2873 300.627 11.2873 297.958 11.2873C297.958 11.1781 297.958 11.0688 297.958 10.9596C299.737 10.9596 301.516 10.9596 303.295 10.9596C303.295 10.1951 303.295 9.43054 303.295 8.66602C304.184 8.66602 305.073 8.66602 305.963 8.66602C305.963 9.53979 305.963 10.4135 305.963 11.2873Z" fill="#A87259"/>
<path fill-rule="evenodd" clip-rule="evenodd" d="M305.963 8.33826C306.482 9.14033 306.66 10.0141 306.496 10.9595C307.208 10.9595 307.92 10.9595 308.631 10.9595C309.698 10.9595 310.765 10.9595 311.833 10.9595C326.596 10.9595 341.359 10.9595 356.123 10.9595C356.123 10.0858 356.123 9.21203 356.123 8.33826C359.858 8.33826 363.593 8.33826 367.329 8.33826C367.329 9.21203 367.329 10.0858 367.329 10.9595C367.329 11.0687 367.329 11.178 367.329 11.2872C363.593 11.2872 359.858 11.2872 356.123 11.2872C351.498 11.2872 346.874 11.2872 342.249 11.2872C335.668 11.2872 329.086 11.2872 322.505 11.2872C319.837 11.2872 317.169 11.2872 314.501 11.2872C311.655 11.2872 308.809 11.2872 305.963 11.2872C305.963 10.4134 305.963 9.53969 305.963 8.66592C305.073 8.66592 304.184 8.66592 303.295 8.66592C303.295 9.43044 303.295 10.195 303.295 10.9595C301.516 10.9595 299.737 10.9595 297.958 10.9595C297.958 10.0858 297.958 9.21203 297.958 8.33826C300.627 8.33826 303.295 8.33826 305.963 8.33826Z" fill="#915E4E"/>
<path fill-rule="evenodd" clip-rule="evenodd" d="M311.833 10.9595C310.765 10.9595 309.698 10.9595 308.631 10.9595C308.631 10.0858 308.631 9.21203 308.631 8.33826C309.698 8.33826 310.765 8.33826 311.833 8.33826C311.833 9.21203 311.833 10.0858 311.833 10.9595Z" fill="#523B3B"/>
<path fill-rule="evenodd" clip-rule="evenodd" d="M386.539 13.9086C385.649 13.9086 384.76 13.9086 383.871 13.9086C383.871 13.0348 383.871 12.1611 383.871 11.2873C378.357 11.2873 372.842 11.2873 367.329 11.2873C367.329 11.1781 367.329 11.0688 367.329 10.9596C369.997 10.9596 372.665 10.9596 375.333 10.9596C375.333 10.1951 375.333 9.43054 375.333 8.66602C379.068 8.66602 382.804 8.66602 386.539 8.66602C386.539 10.4135 386.539 12.1611 386.539 13.9086Z" fill="#DB9C70"/>
<path fill-rule="evenodd" clip-rule="evenodd" d="M367.329 8.33826C375.689 8.33826 384.048 8.33826 392.409 8.33826C392.409 9.21203 392.409 10.0858 392.409 10.9595C394.187 10.9595 395.966 10.9595 397.745 10.9595C397.745 10.0858 397.745 9.21203 397.745 8.33826C398.634 8.33826 399.523 8.33826 400.413 8.33826C400.413 9.21203 400.413 10.0858 400.413 10.9595C401.302 10.9595 402.191 10.9595 403.081 10.9595C403.081 11.0687 403.081 11.178 403.081 11.2872C398.456 11.2872 393.832 11.2872 389.207 11.2872C389.207 12.161 389.207 13.0347 389.207 13.9085C388.317 13.9085 387.428 13.9085 386.539 13.9085C386.539 12.161 386.539 10.4134 386.539 8.66592C382.804 8.66592 379.068 8.66592 375.333 8.66592C375.333 9.43044 375.333 10.195 375.333 10.9595C372.665 10.9595 369.997 10.9595 367.329 10.9595C367.329 10.0858 367.329 9.21203 367.329 8.33826Z" fill="#AD7657"/>
<path fill-rule="evenodd" clip-rule="evenodd" d="M392.409 8.33826C394.187 8.33826 395.966 8.33826 397.745 8.33826C397.745 9.21203 397.745 10.0858 397.745 10.9595C395.966 10.9595 394.187 10.9595 392.409 10.9595C392.409 10.0858 392.409 9.21203 392.409 8.33826Z" fill="#915D4F"/>
<path fill-rule="evenodd" clip-rule="evenodd" d="M403.081 10.9595C403.081 10.0858 403.081 9.21203 403.081 8.33826C404.148 8.33826 405.216 8.33826 406.283 8.33826C406.283 9.21203 406.283 10.0858 406.283 10.9595C405.216 10.9595 404.148 10.9595 403.081 10.9595Z" fill="#523B3B"/>
<path fill-rule="evenodd" clip-rule="evenodd" d="M411.619 8.33826C412.508 8.33826 413.397 8.33826 414.287 8.33826C415.177 8.33826 416.066 8.33826 416.955 8.33826C416.955 10.195 416.955 12.0517 416.955 13.9085C416.066 13.9085 415.177 13.9085 414.287 13.9085C414.287 12.9255 414.287 11.9425 414.287 10.9595C413.397 10.9595 412.508 10.9595 411.619 10.9595C411.619 10.0858 411.619 9.21203 411.619 8.33826Z" fill="#915D4F"/>
<path fill-rule="evenodd" clip-rule="evenodd" d="M422.825 8.33826C422.825 9.21203 422.825 10.0858 422.825 10.9595C423.715 10.9595 424.604 10.9595 425.493 10.9595C426.383 10.9595 427.272 10.9595 428.161 10.9595C434.565 10.9595 440.968 10.9595 447.371 10.9595C447.371 11.0687 447.371 11.178 447.371 11.2872C445.593 11.2872 443.814 11.2872 442.035 11.2872C441.146 11.2872 440.257 11.2872 439.367 11.2872C437.589 11.2872 435.81 11.2872 434.031 11.2872C430.296 11.2872 426.56 11.2872 422.825 11.2872C422.825 12.161 422.825 13.0347 422.825 13.9085C421.758 13.9085 420.691 13.9085 419.623 13.9085C419.623 12.0517 419.623 10.195 419.623 8.33826C420.691 8.33826 421.758 8.33826 422.825 8.33826Z" fill="#8C594B"/>
<path fill-rule="evenodd" clip-rule="evenodd" d="M428.161 10.9595C427.272 10.9595 426.383 10.9595 425.493 10.9595C425.493 10.0858 425.493 9.21203 425.493 8.33826C426.383 8.33826 427.272 8.33826 428.161 8.33826C428.161 9.21203 428.161 10.0858 428.161 10.9595Z" fill="#503B3B"/>
<path fill-rule="evenodd" clip-rule="evenodd" d="M469.783 8.33826C471.562 8.33826 473.341 8.33826 475.12 8.33826C475.12 9.32124 475.12 10.3042 475.12 11.2872C474.23 11.2872 473.341 11.2872 472.452 11.2872C471.694 10.9756 470.805 10.8663 469.783 10.9595C469.783 10.0858 469.783 9.21203 469.783 8.33826Z" fill="#915D4F"/>
<path fill-rule="evenodd" clip-rule="evenodd" d="M67.4355 8.33826C67.4355 9.32124 67.4355 10.3042 67.4355 11.2872C63.7002 11.2872 59.9649 11.2872 56.2295 11.2872C55.34 11.2872 54.451 11.2872 53.5614 11.2872C49.8261 11.2872 46.0908 11.2872 42.3555 11.2872C40.5768 11.2872 38.798 11.2872 37.0193 11.2872C37.0193 11.178 37.0193 11.0687 37.0193 10.9595C45.3793 10.9595 53.7393 10.9595 62.0993 10.9595C62.0993 10.0858 62.0993 9.21203 62.0993 8.33826C63.8779 8.33826 65.657 8.33826 67.4355 8.33826Z" fill="#94604E"/>
<path fill-rule="evenodd" clip-rule="evenodd" d="M469.783 8.33826C469.783 9.21203 469.783 10.0858 469.783 10.9595C470.805 10.8663 471.694 10.9756 472.451 11.2872C469.783 11.2872 467.115 11.2872 464.447 11.2872C458.755 11.2872 453.063 11.2872 447.371 11.2872C447.371 11.178 447.371 11.0687 447.371 10.9595C453.952 10.9595 460.534 10.9595 467.115 10.9595C467.115 10.0858 467.115 9.21203 467.115 8.33826C468.005 8.33826 468.894 8.33826 469.783 8.33826Z" fill="#A1705D"/>
<path fill-rule="evenodd" clip-rule="evenodd" d="M25.8132 11.2872C25.8132 12.161 25.8132 13.0347 25.8132 13.9085C24.0345 13.9085 22.2558 13.9085 20.4771 13.9085C20.4771 13.0347 20.4771 12.161 20.4771 11.2872C22.2558 11.2872 24.0345 11.2872 25.8132 11.2872Z" fill="#925E50"/>
<path fill-rule="evenodd" clip-rule="evenodd" d="M25.8132 10.9596C28.4813 10.9596 31.1494 10.9596 33.8175 10.9596C34.7591 11.2746 35.8264 11.3838 37.0192 11.2873C38.7979 11.2873 40.5767 11.2873 42.3554 11.2873C42.3554 12.161 42.3554 13.0348 42.3554 13.9085C38.6201 13.9085 34.8847 13.9085 31.1494 13.9085C29.3707 13.9085 27.5919 13.9085 25.8132 13.9085C25.8132 13.0348 25.8132 12.161 25.8132 11.2873C25.8132 11.178 25.8132 11.0688 25.8132 10.9596Z" fill="#AD7656"/>
<path fill-rule="evenodd" clip-rule="evenodd" d="M42.3555 11.2872C46.0908 11.2872 49.8261 11.2872 53.5614 11.2872C53.5614 12.161 53.5614 13.0347 53.5614 13.9085C49.8261 13.9085 46.0908 13.9085 42.3555 13.9085C42.3555 13.0347 42.3555 12.161 42.3555 11.2872Z" fill="#DB9B6E"/>
<path fill-rule="evenodd" clip-rule="evenodd" d="M53.5613 11.2872C54.4508 11.2872 55.3398 11.2872 56.2294 11.2872C56.2294 12.161 56.2294 13.0347 56.2294 13.9085C55.3398 13.9085 54.4508 13.9085 53.5613 13.9085C53.5613 13.0347 53.5613 12.161 53.5613 11.2872Z" fill="#AE7856"/>
<path fill-rule="evenodd" clip-rule="evenodd" d="M56.2295 11.2872C59.9648 11.2872 63.7001 11.2872 67.4355 11.2872C67.4355 12.161 67.4355 13.0347 67.4355 13.9085C66.5459 13.9085 65.6569 13.9085 64.7674 13.9085C61.9216 13.9085 59.0753 13.9085 56.2295 13.9085C56.2295 13.0347 56.2295 12.161 56.2295 11.2872Z" fill="#DC9C6F"/>
<path fill-rule="evenodd" clip-rule="evenodd" d="M67.4355 11.2872C74.7285 11.2872 82.0209 11.2872 89.3139 11.2872C90.3811 11.2872 91.4484 11.2872 92.5156 11.2872C92.5156 12.161 92.5156 13.0347 92.5156 13.9085C85.0449 13.9085 77.5743 13.9085 70.1036 13.9085C69.2141 13.9085 68.3251 13.9085 67.4355 13.9085C67.4355 13.0347 67.4355 12.161 67.4355 11.2872Z" fill="#F6C9A9"/>
<path fill-rule="evenodd" clip-rule="evenodd" d="M92.5154 11.2872C94.2939 11.2872 96.073 11.2872 97.8516 11.2872C97.8516 12.161 97.8516 13.0347 97.8516 13.9085C96.073 13.9085 94.2939 13.9085 92.5154 13.9085C92.5154 13.0347 92.5154 12.161 92.5154 11.2872Z" fill="#DB9C6E"/>
<path fill-rule="evenodd" clip-rule="evenodd" d="M100.52 11.2872C101.409 11.2872 102.298 11.2872 103.188 11.2872C103.188 12.161 103.188 13.0347 103.188 13.9085C102.298 13.9085 101.409 13.9085 100.52 13.9085C100.52 13.0347 100.52 12.161 100.52 11.2872Z" fill="#8B5148"/>
<path fill-rule="evenodd" clip-rule="evenodd" d="M169.89 11.2872C170.957 11.2872 172.025 11.2872 173.092 11.2872C173.092 12.161 173.092 13.0347 173.092 13.9085C167.4 13.9085 161.708 13.9085 156.016 13.9085C153.348 13.9085 150.68 13.9085 148.012 13.9085C148.012 13.0347 148.012 12.161 148.012 11.2872C155.305 11.2872 162.597 11.2872 169.89 11.2872Z" fill="#F6C9A9"/>
<path fill-rule="evenodd" clip-rule="evenodd" d="M173.092 11.2872C184.12 11.2872 195.148 11.2872 206.176 11.2872C206.176 12.161 206.176 13.0347 206.176 13.9085C198.705 13.9085 191.235 13.9085 183.764 13.9085C180.207 13.9085 176.649 13.9085 173.092 13.9085C173.092 13.0347 173.092 12.161 173.092 11.2872Z" fill="#DB9C6E"/>
<path fill-rule="evenodd" clip-rule="evenodd" d="M206.176 11.2872C207.955 11.2872 209.734 11.2872 211.512 11.2872C211.512 12.161 211.512 13.0347 211.512 13.9085C209.734 13.9085 207.955 13.9085 206.176 13.9085C206.176 13.0347 206.176 12.161 206.176 11.2872Z" fill="#AE7856"/>
<path fill-rule="evenodd" clip-rule="evenodd" d="M211.512 11.2872C214.358 11.2872 217.204 11.2872 220.05 11.2872C228.41 11.2872 236.77 11.2872 245.13 11.2872C245.13 12.161 245.13 13.0347 245.13 13.9085C242.284 13.9085 239.438 13.9085 236.592 13.9085C228.232 13.9085 219.872 13.9085 211.512 13.9085C211.512 13.0347 211.512 12.161 211.512 11.2872Z" fill="#DB9B6F"/>
<path fill-rule="evenodd" clip-rule="evenodd" d="M245.13 11.2872C247.798 11.2872 250.466 11.2872 253.134 11.2872C258.648 11.2872 264.163 11.2872 269.677 11.2872C269.677 12.161 269.677 13.0347 269.677 13.9085C261.495 13.9085 253.312 13.9085 245.13 13.9085C245.13 13.0347 245.13 12.161 245.13 11.2872Z" fill="#F6CAA9"/>
<path fill-rule="evenodd" clip-rule="evenodd" d="M286.752 11.2873C287.642 11.2873 288.531 11.2873 289.421 11.2873C291.199 11.2873 292.978 11.2873 294.757 11.2873C294.757 12.1611 294.757 13.0348 294.757 13.9086C286.575 13.9086 278.392 13.9086 270.21 13.9086C270.033 13.9086 269.854 13.9086 269.677 13.9086C269.677 13.0348 269.677 12.1611 269.677 11.2873C264.163 11.2873 258.648 11.2873 253.135 11.2873C253.608 10.4503 253.786 9.57652 253.668 8.66602C259.004 8.66602 264.34 8.66602 269.677 8.66602C269.534 9.52429 269.711 10.3434 270.21 11.1235C275.722 11.2872 281.235 11.3418 286.752 11.2873Z" fill="#DC9C6F"/>
<path opacity="0.932" fill-rule="evenodd" clip-rule="evenodd" d="M294.757 11.2872C295.824 11.2872 296.891 11.2872 297.958 11.2872C297.958 12.161 297.958 13.0347 297.958 13.9085C303.472 13.9085 308.987 13.9085 314.5 13.9085C317.169 13.9085 319.837 13.9085 322.505 13.9085C328.197 13.9085 333.888 13.9085 339.581 13.9085C339.581 14.8915 339.581 15.8745 339.581 16.8574C316.457 16.8574 293.333 16.8574 270.21 16.8574C270.21 15.8745 270.21 14.8915 270.21 13.9085C278.392 13.9085 286.575 13.9085 294.757 13.9085C294.757 13.0347 294.757 12.161 294.757 11.2872Z" fill="#8A5048"/>
<path fill-rule="evenodd" clip-rule="evenodd" d="M297.958 11.2872C300.627 11.2872 303.295 11.2872 305.963 11.2872C308.809 11.2872 311.655 11.2872 314.501 11.2872C314.501 12.161 314.501 13.0347 314.501 13.9085C308.987 13.9085 303.472 13.9085 297.958 13.9085C297.958 13.0347 297.958 12.161 297.958 11.2872Z" fill="#DB9B6E"/>
<path fill-rule="evenodd" clip-rule="evenodd" d="M314.5 11.2872C317.169 11.2872 319.837 11.2872 322.505 11.2872C322.505 12.161 322.505 13.0347 322.505 13.9085C319.837 13.9085 317.169 13.9085 314.5 13.9085C314.5 13.0347 314.5 12.161 314.5 11.2872Z" fill="#AE7856"/>
<path fill-rule="evenodd" clip-rule="evenodd" d="M322.505 11.2872C329.086 11.2872 335.668 11.2872 342.249 11.2872C342.249 12.161 342.249 13.0347 342.249 13.9085C341.359 13.9085 340.47 13.9085 339.581 13.9085C333.889 13.9085 328.197 13.9085 322.505 13.9085C322.505 13.0347 322.505 12.161 322.505 11.2872Z" fill="#DB9B6E"/>
<path fill-rule="evenodd" clip-rule="evenodd" d="M342.249 11.2872C346.873 11.2872 351.498 11.2872 356.123 11.2872C356.123 12.161 356.123 13.0347 356.123 13.9085C353.277 13.9085 350.43 13.9085 347.585 13.9085C345.806 13.9085 344.027 13.9085 342.249 13.9085C342.249 13.0347 342.249 12.161 342.249 11.2872Z" fill="#AF7857"/>
<path fill-rule="evenodd" clip-rule="evenodd" d="M356.123 11.2872C359.858 11.2872 363.593 11.2872 367.329 11.2872C367.329 12.161 367.329 13.0347 367.329 13.9085C365.372 13.9085 363.416 13.9085 361.459 13.9085C359.68 13.9085 357.901 13.9085 356.123 13.9085C356.123 13.0347 356.123 12.161 356.123 11.2872Z" fill="#DC9C6F"/>
<path fill-rule="evenodd" clip-rule="evenodd" d="M367.329 11.2872C372.842 11.2872 378.357 11.2872 383.871 11.2872C383.871 12.161 383.871 13.0347 383.871 13.9085C378.357 13.9085 372.842 13.9085 367.329 13.9085C367.329 13.0347 367.329 12.161 367.329 11.2872Z" fill="#F6C9A9"/>
<path fill-rule="evenodd" clip-rule="evenodd" d="M403.081 11.2872C403.081 12.161 403.081 13.0347 403.081 13.9085C399.523 13.9085 395.966 13.9085 392.409 13.9085C391.342 13.9085 390.274 13.9085 389.207 13.9085C389.207 13.0347 389.207 12.161 389.207 11.2872C393.832 11.2872 398.456 11.2872 403.081 11.2872Z" fill="#DB9B6E"/>
<path fill-rule="evenodd" clip-rule="evenodd" d="M411.619 8.33826C411.619 9.21203 411.619 10.0858 411.619 10.9595C412.508 10.9595 413.397 10.9595 414.287 10.9595C414.287 11.9425 414.287 12.9255 414.287 13.9085C411.619 13.9085 408.951 13.9085 406.283 13.9085C405.216 13.9085 404.148 13.9085 403.081 13.9085C403.081 13.0347 403.081 12.161 403.081 11.2872C405.038 11.2872 406.994 11.2872 408.951 11.2872C408.951 10.3042 408.951 9.32124 408.951 8.33826C409.84 8.33826 410.729 8.33826 411.619 8.33826Z" fill="#AD7657"/>
<path fill-rule="evenodd" clip-rule="evenodd" d="M434.031 11.2872C434.031 12.161 434.031 13.0347 434.031 13.9085C430.296 13.9085 426.56 13.9085 422.825 13.9085C422.825 13.0347 422.825 12.161 422.825 11.2872C426.56 11.2872 430.296 11.2872 434.031 11.2872Z" fill="#AE7757"/>
<path fill-rule="evenodd" clip-rule="evenodd" d="M434.031 11.2872C435.81 11.2872 437.589 11.2872 439.367 11.2872C439.367 12.161 439.367 13.0347 439.367 13.9085C437.589 13.9085 435.81 13.9085 434.031 13.9085C434.031 13.0347 434.031 12.161 434.031 11.2872Z" fill="#DB9B6E"/>
<path fill-rule="evenodd" clip-rule="evenodd" d="M439.367 11.2872C440.257 11.2872 441.146 11.2872 442.035 11.2872C442.035 12.161 442.035 13.0347 442.035 13.9085C441.146 13.9085 440.257 13.9085 439.367 13.9085C439.367 13.0347 439.367 12.161 439.367 11.2872Z" fill="#AE7856"/>
<path fill-rule="evenodd" clip-rule="evenodd" d="M442.035 11.2872C443.814 11.2872 445.593 11.2872 447.371 11.2872C447.371 12.161 447.371 13.0347 447.371 13.9085C446.482 13.9085 445.593 13.9085 444.703 13.9085C443.814 13.9085 442.925 13.9085 442.035 13.9085C442.035 13.0347 442.035 12.161 442.035 11.2872Z" fill="#DB9B6E"/>
<path fill-rule="evenodd" clip-rule="evenodd" d="M447.371 11.2872C453.063 11.2872 458.755 11.2872 464.447 11.2872C464.447 12.161 464.447 13.0347 464.447 13.9085C459.822 13.9085 455.198 13.9085 450.573 13.9085C449.506 13.9085 448.439 13.9085 447.371 13.9085C447.371 13.0347 447.371 12.161 447.371 11.2872Z" fill="#F6C8A8"/>
<path fill-rule="evenodd" clip-rule="evenodd" d="M464.447 11.2872C467.115 11.2872 469.783 11.2872 472.452 11.2872C472.452 12.161 472.452 13.0347 472.452 13.9085C471.562 13.9085 470.673 13.9085 469.783 13.9085C468.005 13.9085 466.226 13.9085 464.447 13.9085C464.447 13.0347 464.447 12.161 464.447 11.2872Z" fill="#DB9C6E"/>
<path fill-rule="evenodd" clip-rule="evenodd" d="M472.451 11.2872C473.341 11.2872 474.23 11.2872 475.12 11.2872C476.187 11.2872 477.254 11.2872 478.321 11.2872C478.321 12.161 478.321 13.0347 478.321 13.9085C476.364 13.9085 474.408 13.9085 472.451 13.9085C472.451 13.0347 472.451 12.161 472.451 11.2872Z" fill="#AF7857"/>
<path opacity="0.93" fill-rule="evenodd" clip-rule="evenodd" d="M31.1494 13.9086C34.8847 13.9086 38.6201 13.9086 42.3554 13.9086C46.0907 13.9086 49.826 13.9086 53.5614 13.9086C54.4509 13.9086 55.3399 13.9086 56.2295 13.9086C59.0752 13.9086 61.9216 13.9086 64.7673 13.9086C64.7673 14.7823 64.7673 15.6561 64.7673 16.5298C64.7673 16.7483 64.5896 16.8575 64.2337 16.8575C53.2056 16.8575 42.1775 16.8575 31.1494 16.8575C31.1494 15.8745 31.1494 14.8915 31.1494 13.9086Z" fill="#894F47"/>
<path opacity="0.963" fill-rule="evenodd" clip-rule="evenodd" d="M64.7673 13.9086C65.6569 13.9086 66.5459 13.9086 67.4354 13.9086C68.325 13.9086 69.214 13.9086 70.1035 13.9086C70.1035 14.8915 70.1035 15.8745 70.1035 16.8575C69.214 16.8575 68.325 16.8575 67.4354 16.8575C66.6782 16.5459 65.7892 16.4366 64.7673 16.5298C64.7673 15.6561 64.7673 14.7823 64.7673 13.9086Z" fill="#5E302C"/>
<path fill-rule="evenodd" clip-rule="evenodd" d="M70.1035 13.9086C77.5742 13.9086 85.0448 13.9086 92.5155 13.9086C94.294 13.9086 96.0731 13.9086 97.8516 13.9086C97.8516 14.8915 97.8516 15.8745 97.8516 16.8575C88.6024 16.8575 79.3527 16.8575 70.1035 16.8575C70.1035 15.8745 70.1035 14.8915 70.1035 13.9086Z" fill="#B3764C"/>
<path opacity="0.93" fill-rule="evenodd" clip-rule="evenodd" d="M97.8516 13.9086C98.7411 13.9086 99.6301 13.9086 100.52 13.9086C100.52 14.8915 100.52 15.8745 100.52 16.8575C99.6301 16.8575 98.7411 16.8575 97.8516 16.8575C97.8516 15.8745 97.8516 14.8915 97.8516 13.9086Z" fill="#8B5048"/>
<path fill-rule="evenodd" clip-rule="evenodd" d="M103.188 11.2872C103.366 11.2872 103.544 11.2872 103.721 11.2872C103.721 12.161 103.721 13.0347 103.721 13.9085C109.235 13.9085 114.75 13.9085 120.264 13.9085C120.264 13.0347 120.264 12.161 120.264 11.2872C121.153 11.2872 122.042 11.2872 122.932 11.2872C122.932 12.161 122.932 13.0347 122.932 13.9085C131.292 13.9085 139.652 13.9085 148.012 13.9085C150.68 13.9085 153.348 13.9085 156.016 13.9085C156.016 14.7823 156.016 15.656 156.016 16.5298C154.994 16.4366 154.105 16.5458 153.348 16.8574C135.739 16.8574 118.129 16.8574 100.52 16.8574C100.52 15.8745 100.52 14.8915 100.52 13.9085C101.409 13.9085 102.298 13.9085 103.188 13.9085C103.188 13.0347 103.188 12.161 103.188 11.2872Z" fill="#B2764D"/>
<path fill-rule="evenodd" clip-rule="evenodd" d="M103.721 11.2872C109.235 11.2872 114.75 11.2872 120.264 11.2872C120.264 12.161 120.264 13.0347 120.264 13.9085C114.75 13.9085 109.235 13.9085 103.721 13.9085C103.721 13.0347 103.721 12.161 103.721 11.2872Z" fill="#DB9B6E"/>
<path opacity="0.93" fill-rule="evenodd" clip-rule="evenodd" d="M156.016 13.9086C161.708 13.9086 167.4 13.9086 173.092 13.9086C176.649 13.9086 180.206 13.9086 183.764 13.9086C183.764 14.8915 183.764 15.8745 183.764 16.8575C174.693 16.8575 165.621 16.8575 156.55 16.8575C155.482 16.8575 154.415 16.8575 153.348 16.8575C154.105 16.5459 154.994 16.4366 156.016 16.5298C156.016 15.6561 156.016 14.7823 156.016 13.9086Z" fill="#5E312C"/>
<path opacity="0.93" fill-rule="evenodd" clip-rule="evenodd" d="M183.764 13.9086C191.235 13.9086 198.705 13.9086 206.176 13.9086C207.955 13.9086 209.734 13.9086 211.512 13.9086C219.872 13.9086 228.232 13.9086 236.592 13.9086C236.592 14.8915 236.592 15.8745 236.592 16.8575C218.983 16.8575 201.374 16.8575 183.764 16.8575C183.764 15.8745 183.764 14.8915 183.764 13.9086Z" fill="#8A4F47"/>
<path opacity="0.93" fill-rule="evenodd" clip-rule="evenodd" d="M236.592 13.9086C239.438 13.9086 242.284 13.9086 245.13 13.9086C253.312 13.9086 261.495 13.9086 269.677 13.9086C269.854 13.9086 270.033 13.9086 270.21 13.9086C270.21 14.8915 270.21 15.8745 270.21 16.8575C259.004 16.8575 247.798 16.8575 236.592 16.8575C236.592 15.8745 236.592 14.8915 236.592 13.9086Z" fill="#5E312C"/>
<path opacity="0.952" fill-rule="evenodd" clip-rule="evenodd" d="M339.581 13.9086C340.47 13.9086 341.359 13.9086 342.249 13.9086C344.027 13.9086 345.806 13.9086 347.585 13.9086C347.585 14.7823 347.585 15.6561 347.585 16.5298C346.563 16.4366 345.674 16.5459 344.917 16.8575C343.138 16.8575 341.359 16.8575 339.581 16.8575C339.581 15.8745 339.581 14.8915 339.581 13.9086Z" fill="#5E302C"/>
<path opacity="0.93" fill-rule="evenodd" clip-rule="evenodd" d="M347.585 13.9086C350.431 13.9086 353.277 13.9086 356.123 13.9086C357.901 13.9086 359.68 13.9086 361.459 13.9086C361.459 14.8915 361.459 15.8745 361.459 16.8575C357.012 16.8575 352.565 16.8575 348.119 16.8575C347.763 16.8575 347.585 16.7483 347.585 16.5298C347.585 15.6561 347.585 14.7823 347.585 13.9086Z" fill="#894F47"/>
<path fill-rule="evenodd" clip-rule="evenodd" d="M361.459 13.9086C363.416 13.9086 365.372 13.9086 367.329 13.9086C372.843 13.9086 378.357 13.9086 383.871 13.9086C384.76 13.9086 385.649 13.9086 386.539 13.9086C387.429 13.9086 388.318 13.9086 389.207 13.9086C390.274 13.9086 391.342 13.9086 392.409 13.9086C392.409 14.8915 392.409 15.8745 392.409 16.8575C382.092 16.8575 371.775 16.8575 361.459 16.8575C361.459 15.8745 361.459 14.8915 361.459 13.9086Z" fill="#B2764C"/>
<path opacity="0.93" fill-rule="evenodd" clip-rule="evenodd" d="M392.409 13.9086C395.966 13.9086 399.523 13.9086 403.081 13.9086C404.148 13.9086 405.216 13.9086 406.283 13.9086C406.283 14.8915 406.283 15.8745 406.283 16.8575C401.658 16.8575 397.034 16.8575 392.409 16.8575C392.409 15.8745 392.409 14.8915 392.409 13.9086Z" fill="#894F47"/>
<path opacity="0.93" fill-rule="evenodd" clip-rule="evenodd" d="M444.703 13.9086C445.593 13.9086 446.482 13.9086 447.371 13.9086C448.439 13.9086 449.506 13.9086 450.573 13.9086C450.573 14.8915 450.573 15.8745 450.573 16.8575C448.616 16.8575 446.66 16.8575 444.703 16.8575C444.703 15.8745 444.703 14.8915 444.703 13.9086Z" fill="#894F47"/>
<path fill-rule="evenodd" clip-rule="evenodd" d="M450.573 13.9086C455.198 13.9086 459.822 13.9086 464.447 13.9086C466.226 13.9086 468.005 13.9086 469.783 13.9086C469.783 14.8915 469.783 15.8745 469.783 16.8575C463.38 16.8575 456.977 16.8575 450.573 16.8575C450.573 15.8745 450.573 14.8915 450.573 13.9086Z" fill="#B3764C"/>
<path opacity="0.94" fill-rule="evenodd" clip-rule="evenodd" d="M0.733154 8.33826C1.62252 8.33826 2.51188 8.33826 3.40124 8.33826C3.40124 23.8475 3.40124 39.3568 3.40124 54.8659C5.35785 54.8659 7.31442 54.8659 9.27104 54.8659C11.0498 54.8659 12.8285 54.8659 14.6072 54.8659C14.6072 53.992 14.6072 53.1185 14.6072 52.2446C15.4966 52.2446 16.3859 52.2446 17.2753 52.2446C17.8082 38.6478 17.9861 24.9954 17.8089 11.2872C18.5204 11.2872 19.2319 11.2872 19.9434 11.2872C19.7799 12.2326 19.9578 13.1064 20.477 13.9085C22.2557 13.9085 24.0345 13.9085 25.8132 13.9085C27.5919 13.9085 29.3707 13.9085 31.1494 13.9085C31.1494 14.8914 31.1494 15.8744 31.1494 16.8574C27.5919 16.8574 24.0345 16.8574 20.477 16.8574C20.477 27.6702 20.477 38.4829 20.477 49.2957C22.2557 49.2957 24.0345 49.2957 25.8132 49.2957C25.8132 50.2787 25.8132 51.2617 25.8132 52.2446C24.9238 52.2446 24.0345 52.2446 23.1451 52.2446C22.0779 52.2446 21.0106 52.2446 19.9434 52.2446C19.9434 54.1015 19.9434 55.958 19.9434 57.8149C18.1647 57.8149 16.3859 57.8149 14.6072 57.8149C13.7178 57.8149 12.8285 57.8149 11.9391 57.8149C11.0498 57.8149 10.1604 57.8149 9.27104 57.8149C9.27104 61.4191 9.27104 65.0234 9.27104 68.6276C24.0345 68.6276 38.7979 68.6276 53.5613 68.6276C61.032 68.6276 68.5026 68.6276 75.9733 68.6276C106.39 68.6276 136.806 68.6276 167.222 68.6276C167.222 67.7538 167.222 66.8802 167.222 66.0063C167.222 64.1495 167.222 62.293 167.222 60.4361C164.554 60.4361 161.886 60.4361 159.218 60.4361C159.218 59.5623 159.218 58.6887 159.218 57.8149C160.996 57.8149 162.775 57.8149 164.554 57.8149C164.554 56.8319 164.554 55.8489 164.554 54.8659C165.443 54.8659 166.332 54.8659 167.222 54.8659C167.222 55.8489 167.222 56.8319 167.222 57.8149C168.112 57.8149 169.001 57.8149 169.89 57.8149C169.89 60.5452 169.89 63.276 169.89 66.0063C169.89 66.8802 169.89 67.7538 169.89 68.6276C225.474 68.955 281.149 69.0644 336.912 68.9553C336.912 69.8291 336.912 70.7027 336.912 71.5766C227.521 71.5766 118.129 71.5766 8.73742 71.5766C8.73742 70.7027 8.73742 69.8291 8.73742 68.9553C7.84804 68.9553 6.95872 68.9553 6.06933 68.9553C6.06933 65.2419 6.06933 61.5282 6.06933 57.8149C4.29061 57.8149 2.51188 57.8149 0.733154 57.8149C0.733154 41.3228 0.733154 24.8304 0.733154 8.33826Z" fill="#5E312C"/>
<path fill-rule="evenodd" clip-rule="evenodd" d="M3.40137 8.33826C4.29073 8.33826 5.18009 8.33826 6.06946 8.33826C6.06946 10.195 6.06946 12.0517 6.06946 13.9085C6.06946 14.7822 6.06946 15.656 6.06946 16.5297C6.06946 18.3865 6.06946 20.2432 6.06946 22.1C6.95884 22.1 7.84817 22.1 8.73755 22.1C8.56092 30.3479 8.73877 38.5393 9.27116 46.6744C9.27116 49.4048 9.27116 52.1355 9.27116 54.8659C7.31455 54.8659 5.35797 54.8659 3.40137 54.8659C3.40137 39.3568 3.40137 23.8475 3.40137 8.33826Z" fill="#6B3E38"/>
<path fill-rule="evenodd" clip-rule="evenodd" d="M11.9391 8.33826C12.8285 8.33826 13.7178 8.33826 14.6072 8.33826C14.6072 9.21203 14.6072 10.0858 14.6072 10.9595C15.4966 10.9595 16.3859 10.9595 17.2753 10.9595C17.2753 11.0687 17.2753 11.178 17.2753 11.2872C16.3859 11.2872 15.4966 11.2872 14.6072 11.2872C14.6072 12.161 14.6072 13.0347 14.6072 13.9085C13.7178 13.9085 12.8285 13.9085 11.9391 13.9085C11.9391 14.7822 11.9391 15.656 11.9391 16.5297C11.9391 17.5127 11.9391 18.4957 11.9391 19.4787C12.8285 19.4787 13.7178 19.4787 14.6072 19.4787C14.6072 24.9397 14.6072 30.4007 14.6072 35.8617C13.7178 35.8617 12.8285 35.8617 11.9391 35.8617C11.9391 31.2744 11.9391 26.6872 11.9391 22.1C11.0497 22.1 10.1604 22.1 9.271 22.1C9.271 18.4957 9.271 14.8914 9.271 11.2872C10.1604 11.2872 11.0497 11.2872 11.9391 11.2872C11.9391 10.3042 11.9391 9.32124 11.9391 8.33826Z" fill="#AE7757"/>
<path fill-rule="evenodd" clip-rule="evenodd" d="M6.06934 8.33826C8.02595 8.33826 9.98252 8.33826 11.9391 8.33826C11.9391 9.32124 11.9391 10.3042 11.9391 11.2872C11.0498 11.2872 10.1604 11.2872 9.27104 11.2872C9.27104 14.8914 9.27104 18.4957 9.27104 22.1C10.1604 22.1 11.0498 22.1 11.9391 22.1C11.9391 26.6872 11.9391 31.2744 11.9391 35.8617C11.0498 35.8617 10.1604 35.8617 9.27104 35.8617C9.27104 39.4659 9.27104 43.0702 9.27104 46.6744C8.73865 38.5393 8.5608 30.3479 8.73743 22.1C7.84804 22.1 6.95872 22.1 6.06934 22.1C6.06934 20.2432 6.06934 18.3865 6.06934 16.5297C6.95872 16.5297 7.84804 16.5297 8.73743 16.5297C8.73743 15.656 8.73743 14.7822 8.73743 13.9085C7.84804 13.9085 6.95872 13.9085 6.06934 13.9085C6.06934 12.0517 6.06934 10.195 6.06934 8.33826Z" fill="#915D4E"/>
<path fill-rule="evenodd" clip-rule="evenodd" d="M11.9392 49.6234C12.8286 49.6234 13.7179 49.6234 14.6073 49.6234C14.6073 50.4973 14.6073 51.3708 14.6073 52.2447C13.7179 52.2447 12.8286 52.2447 11.9392 52.2447C11.9392 51.3708 11.9392 50.4973 11.9392 49.6234Z" fill="#AE7856"/>
<path fill-rule="evenodd" clip-rule="evenodd" d="M6.06934 49.2958C6.95872 49.2958 7.84804 49.2958 8.73743 49.2958C8.73743 50.2788 8.73743 51.2617 8.73743 52.2447C7.84804 52.2447 6.95872 52.2447 6.06934 52.2447C6.06934 51.2617 6.06934 50.2788 6.06934 49.2958Z" fill="#523B3B"/>
<path fill-rule="evenodd" clip-rule="evenodd" d="M11.9392 46.6744C12.8286 46.6744 13.7179 46.6744 14.6073 46.6744C14.6073 47.6574 14.6073 48.6404 14.6073 49.6234C13.7179 49.6234 12.8286 49.6234 11.9392 49.6234C11.9392 48.6404 11.9392 47.6574 11.9392 46.6744Z" fill="#B39C92"/>
<path fill-rule="evenodd" clip-rule="evenodd" d="M9.271 46.6744C10.1604 46.6744 11.0497 46.6744 11.9391 46.6744C11.9391 47.6574 11.9391 48.6404 11.9391 49.6234C11.9391 50.4972 11.9391 51.3708 11.9391 52.2447C12.8285 52.2447 13.7178 52.2447 14.6072 52.2447C14.6072 53.1185 14.6072 53.9921 14.6072 54.8659C12.8285 54.8659 11.0497 54.8659 9.271 54.8659C9.271 52.1355 9.271 49.4048 9.271 46.6744Z" fill="#925F50"/>
<path fill-rule="evenodd" clip-rule="evenodd" d="M11.9391 35.8617C11.9391 38.5921 11.9391 41.3228 11.9391 44.0532C12.8285 44.0532 13.7178 44.0532 14.6072 44.0532C14.6072 44.9271 14.6072 45.8006 14.6072 46.6745C13.7178 46.6745 12.8285 46.6745 11.9391 46.6745C11.0497 46.6745 10.1604 46.6745 9.271 46.6745C9.271 43.0702 9.271 39.4659 9.271 35.8617C10.1604 35.8617 11.0497 35.8617 11.9391 35.8617Z" fill="#B07857"/>
<path fill-rule="evenodd" clip-rule="evenodd" d="M14.6073 13.9086C14.6073 14.7823 14.6073 15.6561 14.6073 16.5298C13.7179 16.5298 12.8286 16.5298 11.9392 16.5298C11.9392 15.6561 11.9392 14.7823 11.9392 13.9086C12.8286 13.9086 13.7179 13.9086 14.6073 13.9086Z" fill="#B39F96"/>
<path fill-rule="evenodd" clip-rule="evenodd" d="M6.06934 13.9086C6.95872 13.9086 7.84804 13.9086 8.73743 13.9086C8.73743 14.7823 8.73743 15.6561 8.73743 16.5298C7.84804 16.5298 6.95872 16.5298 6.06934 16.5298C6.06934 15.6561 6.06934 14.7823 6.06934 13.9086Z" fill="#513B3B"/>
<path fill-rule="evenodd" clip-rule="evenodd" d="M17.2754 11.2872C17.2754 24.9397 17.2754 38.5921 17.2754 52.2447C16.386 52.2447 15.4967 52.2447 14.6073 52.2447C14.6073 51.3708 14.6073 50.4973 14.6073 49.6234C14.6073 48.6404 14.6073 47.6574 14.6073 46.6745C14.6073 45.8006 14.6073 44.9271 14.6073 44.0532C13.7179 44.0532 12.8286 44.0532 11.9392 44.0532C11.9392 41.3228 11.9392 38.5921 11.9392 35.8617C12.8286 35.8617 13.7179 35.8617 14.6073 35.8617C14.6073 30.4007 14.6073 24.9397 14.6073 19.4787C13.7179 19.4787 12.8286 19.4787 11.9392 19.4787C11.9392 18.4957 11.9392 17.5128 11.9392 16.5298C12.8286 16.5298 13.7179 16.5298 14.6073 16.5298C14.6073 15.656 14.6073 14.7823 14.6073 13.9085C14.6073 13.0347 14.6073 12.161 14.6073 11.2872C15.4967 11.2872 16.386 11.2872 17.2754 11.2872Z" fill="#DB9B6F"/>
<path opacity="0.885" fill-rule="evenodd" clip-rule="evenodd" d="M492.195 2.76813C491.128 2.76813 490.061 2.76813 488.994 2.76813C488.994 1.89437 488.994 1.02061 488.994 0.146851C490.061 0.146851 491.128 0.146851 492.195 0.146851C492.195 1.02061 492.195 1.89437 492.195 2.76813Z" fill="#5D302C"/>
<path opacity="0.943" fill-rule="evenodd" clip-rule="evenodd" d="M103.188 5.38934C167.222 5.38934 231.256 5.38934 295.29 5.38934C296.002 5.38934 296.714 5.38934 297.425 5.38934C297.425 4.51557 297.425 3.64184 297.425 2.76807C336.557 2.76807 375.689 2.76807 414.821 2.76807C414.821 3.64184 414.821 4.51557 414.821 5.38934C416.422 5.38934 418.022 5.38934 419.623 5.38934C419.623 4.51557 419.623 3.64184 419.623 2.76807C442.747 2.76807 465.87 2.76807 488.994 2.76807C488.994 3.75105 488.994 4.73402 488.994 5.717C488.282 5.717 487.571 5.717 486.859 5.717C485.792 5.717 484.725 5.717 483.657 5.717C483.657 7.57375 483.657 9.43047 483.657 11.2872C483.657 12.161 483.657 13.0347 483.657 13.9085C482.768 13.9085 481.879 13.9085 480.989 13.9085C480.989 12.0517 480.989 10.195 480.989 8.33828C480.989 7.46451 480.989 6.59077 480.989 5.717C461.601 5.717 442.213 5.717 422.825 5.717C422.825 6.59077 422.825 7.46451 422.825 8.33828C421.758 8.33828 420.691 8.33828 419.623 8.33828C419.623 10.195 419.623 12.0517 419.623 13.9085C420.691 13.9085 421.758 13.9085 422.825 13.9085C426.56 13.9085 430.296 13.9085 434.031 13.9085C435.81 13.9085 437.589 13.9085 439.367 13.9085C440.257 13.9085 441.146 13.9085 442.035 13.9085C442.925 13.9085 443.814 13.9085 444.703 13.9085C444.703 14.8915 444.703 15.8744 444.703 16.8574C431.897 16.8574 419.09 16.8574 406.283 16.8574C406.283 15.8744 406.283 14.8915 406.283 13.9085C408.951 13.9085 411.619 13.9085 414.287 13.9085C415.177 13.9085 416.066 13.9085 416.955 13.9085C416.955 12.0517 416.955 10.195 416.955 8.33828C416.066 8.33828 415.177 8.33828 414.287 8.33828C414.287 7.46451 414.287 6.59077 414.287 5.717C378.179 5.717 342.071 5.717 305.963 5.717C305.963 6.59077 305.963 7.46451 305.963 8.33828C303.295 8.33828 300.627 8.33828 297.958 8.33828C297.958 9.21205 297.958 10.0858 297.958 10.9596C297.958 11.0688 297.958 11.178 297.958 11.2872C296.891 11.2872 295.824 11.2872 294.757 11.2872C294.757 11.178 294.757 11.0688 294.757 10.9596C294.757 10.0858 294.757 9.21205 294.757 8.33828C293.867 8.33828 292.978 8.33828 292.089 8.33828C292.089 7.46451 292.089 6.59077 292.089 5.717C287.464 5.717 282.839 5.717 278.215 5.717C220.05 5.717 161.886 5.717 103.722 5.717C103.722 6.59077 103.722 7.46451 103.722 8.33828C106.39 8.33828 109.058 8.33828 111.726 8.33828C111.726 9.21205 111.726 10.0858 111.726 10.9596C108.777 10.8542 105.931 10.9635 103.188 11.2872C102.298 11.2872 101.409 11.2872 100.52 11.2872C100.52 9.43047 100.52 7.57375 100.52 5.717C99.6303 5.717 98.7413 5.717 97.8517 5.717C95.006 5.717 92.1596 5.717 89.3139 5.717C65.301 5.717 41.2882 5.717 17.2754 5.717C17.2754 7.46451 17.2754 9.21205 17.2754 10.9596C16.3861 10.9596 15.4967 10.9596 14.6073 10.9596C14.6073 10.0858 14.6073 9.21205 14.6073 8.33828C13.718 8.33828 12.8286 8.33828 11.9393 8.33828C9.98264 8.33828 8.02607 8.33828 6.06946 8.33828C5.18009 8.33828 4.29073 8.33828 3.40137 8.33828C3.40137 7.3553 3.40137 6.37232 3.40137 5.38934C8.02607 5.38934 12.6507 5.38934 17.2754 5.38934C17.2754 4.51557 17.2754 3.64184 17.2754 2.76807C45.2014 2.76807 73.1276 2.76807 101.053 2.76807C101.053 3.64184 101.053 4.51557 101.053 5.38934C101.765 5.38934 102.477 5.38934 103.188 5.38934Z" fill="#5E312C"/>
<path fill-rule="evenodd" clip-rule="evenodd" d="M488.994 2.76807C490.061 2.76807 491.128 2.76807 492.195 2.76807C492.195 3.75105 492.195 4.73402 492.195 5.717C492.195 6.59077 492.195 7.46451 492.195 8.33828C491.306 8.33828 490.417 8.33828 489.527 8.33828C489.527 9.32126 489.527 10.3042 489.527 11.2872C489.527 12.161 489.527 13.0347 489.527 13.9085C489.527 17.5127 489.527 21.117 489.527 24.7213C488.995 19.3176 488.818 13.8566 488.994 8.33828C488.282 8.33828 487.57 8.33828 486.859 8.33828C486.859 7.46451 486.859 6.59077 486.859 5.717C487.57 5.717 488.282 5.717 488.994 5.717C488.994 4.73402 488.994 3.75105 488.994 2.76807Z" fill="#8D5A4C"/>
<path fill-rule="evenodd" clip-rule="evenodd" d="M492.195 5.71704C493.085 5.71704 493.974 5.71704 494.863 5.71704C494.863 22.1 494.863 38.483 494.863 54.866C493.085 54.866 491.306 54.866 489.527 54.866C487.57 54.866 485.614 54.866 483.657 54.866C483.657 53.9921 483.657 53.1186 483.657 52.2447C484.547 52.2447 485.436 52.2447 486.326 52.2447C487.215 52.2447 488.104 52.2447 488.994 52.2447C489.521 50.4508 489.699 48.5939 489.527 46.6745C490.417 46.6745 491.306 46.6745 492.195 46.6745C492.195 45.8006 492.195 44.9271 492.195 44.0532C491.306 44.0532 490.417 44.0532 489.527 44.0532C489.527 42.1964 489.527 40.3398 489.527 38.483C490.417 38.483 491.306 38.483 492.195 38.483C492.195 33.8958 492.195 29.3085 492.195 24.7213C491.306 24.7213 490.417 24.7213 489.527 24.7213C489.527 21.117 489.527 17.5128 489.527 13.9085C490.417 13.9085 491.306 13.9085 492.195 13.9085C492.195 13.0348 492.195 12.161 492.195 11.2873C491.306 11.2873 490.417 11.2873 489.527 11.2873C489.527 10.3043 489.527 9.3213 489.527 8.33832C490.417 8.33832 491.306 8.33832 492.195 8.33832C492.195 7.46455 492.195 6.59081 492.195 5.71704Z" fill="#6B3E38"/>
<path fill-rule="evenodd" clip-rule="evenodd" d="M483.657 11.2872C484.547 11.2872 485.436 11.2872 486.326 11.2872C486.326 12.161 486.326 13.0347 486.326 13.9085C485.436 13.9085 484.547 13.9085 483.657 13.9085C483.657 13.0347 483.657 12.161 483.657 11.2872Z" fill="#B29C94"/>
<path fill-rule="evenodd" clip-rule="evenodd" d="M489.527 11.2872C490.417 11.2872 491.306 11.2872 492.195 11.2872C492.195 12.161 492.195 13.0347 492.195 13.9085C491.306 13.9085 490.417 13.9085 489.527 13.9085C489.527 13.0347 489.527 12.161 489.527 11.2872Z" fill="#513B3B"/>
<path opacity="0.964" fill-rule="evenodd" clip-rule="evenodd" d="M478.321 8.33826C479.211 8.33826 480.1 8.33826 480.989 8.33826C480.989 10.195 480.989 12.0517 480.989 13.9085C481.879 13.9085 482.768 13.9085 483.658 13.9085C483.658 14.7822 483.658 15.656 483.658 16.5297C483.658 19.2602 483.658 21.9908 483.658 24.7212C482.768 24.7212 481.879 24.7212 480.989 24.7212C480.989 22.1 480.989 19.4787 480.989 16.8574C477.254 16.8574 473.519 16.8574 469.783 16.8574C469.783 15.8744 469.783 14.8914 469.783 13.9085C470.673 13.9085 471.562 13.9085 472.452 13.9085C474.408 13.9085 476.365 13.9085 478.321 13.9085C478.321 13.0347 478.321 12.161 478.321 11.2872C478.321 10.3042 478.321 9.32124 478.321 8.33826Z" fill="#8B5249"/>
<path fill-rule="evenodd" clip-rule="evenodd" d="M486.859 5.71704C486.859 6.59081 486.859 7.46455 486.859 8.33832C487.57 8.33832 488.282 8.33832 488.994 8.33832C488.818 13.8567 488.995 19.3177 489.527 24.7213C489.527 29.3085 489.527 33.8958 489.527 38.483C488.638 38.483 487.749 38.483 486.859 38.483C486.681 38.483 486.503 38.483 486.326 38.483C486.326 33.8958 486.326 29.3085 486.326 24.7213C486.326 21.9908 486.326 19.2603 486.326 16.5298C485.436 16.5298 484.547 16.5298 483.657 16.5298C483.657 15.656 483.657 14.7823 483.657 13.9085C484.547 13.9085 485.436 13.9085 486.326 13.9085C486.326 13.0348 486.326 12.161 486.326 11.2873C485.436 11.2873 484.547 11.2873 483.657 11.2873C483.657 9.43051 483.657 7.57379 483.657 5.71704C484.725 5.71704 485.792 5.71704 486.859 5.71704Z" fill="#AE7859"/>
<path fill-rule="evenodd" clip-rule="evenodd" d="M483.657 16.5298C484.547 16.5298 485.436 16.5298 486.326 16.5298C486.326 19.2603 486.326 21.9908 486.326 24.7213C485.436 24.7213 484.547 24.7213 483.657 24.7213C483.657 21.9908 483.657 19.2603 483.657 16.5298Z" fill="#D9996D"/>
<path fill-rule="evenodd" clip-rule="evenodd" d="M480.989 24.7213C481.879 24.7213 482.768 24.7213 483.657 24.7213C483.657 30.2915 483.657 35.8617 483.657 41.432C483.657 42.3058 483.657 43.1794 483.657 44.0532C482.768 44.0532 481.879 44.0532 480.989 44.0532C480.989 37.6091 480.989 31.1653 480.989 24.7213Z" fill="#B2764C"/>
<path fill-rule="evenodd" clip-rule="evenodd" d="M483.657 24.7213C484.547 24.7213 485.436 24.7213 486.326 24.7213C486.326 29.3085 486.326 33.8958 486.326 38.483C486.326 39.466 486.326 40.449 486.326 41.432C485.436 41.432 484.547 41.432 483.657 41.432C483.657 35.8617 483.657 30.2915 483.657 24.7213Z" fill="#F5C7A7"/>
<path fill-rule="evenodd" clip-rule="evenodd" d="M489.527 24.7213C490.417 24.7213 491.306 24.7213 492.195 24.7213C492.195 29.3085 492.195 33.8958 492.195 38.483C491.306 38.483 490.417 38.483 489.527 38.483C489.527 33.8958 489.527 29.3085 489.527 24.7213Z" fill="#905C4E"/>
<path fill-rule="evenodd" clip-rule="evenodd" d="M486.859 38.483C487.749 38.483 488.638 38.483 489.527 38.483C489.527 40.3398 489.527 42.1963 489.527 44.0532C489.527 44.9271 489.527 45.8006 489.527 46.6745C489.699 48.5939 489.521 50.4507 488.994 52.2447C488.994 49.5143 488.994 46.7836 488.994 44.0532C488.282 44.0532 487.57 44.0532 486.859 44.0532C486.859 42.1963 486.859 40.3398 486.859 38.483Z" fill="#8E5B4D"/>
<path fill-rule="evenodd" clip-rule="evenodd" d="M483.657 41.4319C484.547 41.4319 485.436 41.4319 486.326 41.4319C486.326 42.3058 486.326 43.1793 486.326 44.0532C485.436 44.0532 484.547 44.0532 483.657 44.0532C483.657 43.1793 483.657 42.3058 483.657 41.4319Z" fill="#DB9B6E"/>
<path fill-rule="evenodd" clip-rule="evenodd" d="M480.989 44.0532C481.879 44.0532 482.768 44.0532 483.657 44.0532C483.657 44.9271 483.657 45.8006 483.657 46.6745C483.657 47.6575 483.657 48.6405 483.657 49.6234C482.635 49.7165 481.746 49.6074 480.989 49.2958C480.989 47.5484 480.989 45.8006 480.989 44.0532Z" fill="#894F47"/>
<path fill-rule="evenodd" clip-rule="evenodd" d="M483.657 44.0532C484.547 44.0532 485.436 44.0532 486.326 44.0532C486.326 44.9271 486.326 45.8006 486.326 46.6745C485.436 46.6745 484.547 46.6745 483.657 46.6745C483.657 45.8006 483.657 44.9271 483.657 44.0532Z" fill="#B39D95"/>
<path fill-rule="evenodd" clip-rule="evenodd" d="M486.325 38.483C486.503 38.483 486.681 38.483 486.859 38.483C486.859 40.3398 486.859 42.1963 486.859 44.0532C487.57 44.0532 488.282 44.0532 488.994 44.0532C488.994 46.7836 488.994 49.5143 488.994 52.2447C488.104 52.2447 487.215 52.2447 486.325 52.2447C486.325 50.3878 486.325 48.5313 486.325 46.6745C486.325 45.8006 486.325 44.9271 486.325 44.0532C486.325 43.1793 486.325 42.3058 486.325 41.4319C486.325 40.4489 486.325 39.4659 486.325 38.483Z" fill="#A9735A"/>
<path fill-rule="evenodd" clip-rule="evenodd" d="M489.527 44.0532C490.417 44.0532 491.306 44.0532 492.195 44.0532C492.195 44.9271 492.195 45.8006 492.195 46.6745C491.306 46.6745 490.417 46.6745 489.527 46.6745C489.527 45.8006 489.527 44.9271 489.527 44.0532Z" fill="#513B3B"/>
<path fill-rule="evenodd" clip-rule="evenodd" d="M483.657 46.6744C484.547 46.6744 485.436 46.6744 486.326 46.6744C486.326 48.5313 486.326 50.3878 486.326 52.2447C485.436 52.2447 484.547 52.2447 483.657 52.2447C483.657 51.3708 483.657 50.4972 483.657 49.6234C483.657 48.6404 483.657 47.6574 483.657 46.6744Z" fill="#D9996D"/>
<path opacity="0.952" fill-rule="evenodd" clip-rule="evenodd" d="M475.653 49.2958C477.432 49.2958 479.211 49.2958 480.989 49.2958C481.746 49.6074 482.635 49.7165 483.657 49.6234C483.657 50.4973 483.657 51.3708 483.657 52.2447C482.768 52.2447 481.879 52.2447 480.989 52.2447C479.211 52.2447 477.432 52.2447 475.653 52.2447C475.653 51.2617 475.653 50.2788 475.653 49.2958Z" fill="#5E302C"/>
<path fill-rule="evenodd" clip-rule="evenodd" d="M480.989 52.2447C481.879 52.2447 482.768 52.2447 483.657 52.2447C483.657 53.1186 483.657 53.9921 483.657 54.866C482.768 54.866 481.879 54.866 480.989 54.866C480.989 53.9921 480.989 53.1186 480.989 52.2447Z" fill="#AE7856"/>
<path fill-rule="evenodd" clip-rule="evenodd" d="M478.321 55.1936C478.321 56.0675 478.321 56.941 478.321 57.8149C479.211 57.8149 480.1 57.8149 480.989 57.8149C483.657 57.8149 486.325 57.8149 488.993 57.8149C488.993 59.5623 488.993 61.31 488.993 63.0574C487.972 62.9644 487.083 63.0735 486.325 63.3851C483.657 63.3851 480.989 63.3851 478.321 63.3851C470.027 63.1135 461.667 63.0044 453.241 63.0574C453.241 62.1836 453.241 61.31 453.241 60.4362C452.352 60.4362 451.463 60.4362 450.573 60.4362C437.588 60.4362 424.603 60.4362 411.619 60.4362C411.619 61.31 411.619 62.1836 411.619 63.0574C405.12 62.95 398.717 63.0591 392.409 63.3851C392.409 64.259 392.409 65.1325 392.409 66.0064C384.938 66.0064 377.467 66.0064 369.997 66.0064C369.997 65.0234 369.997 64.0404 369.997 63.0574C364.386 62.95 358.872 63.0594 353.455 63.3851C350.506 63.4903 347.659 63.3812 344.917 63.0574C344.917 62.1836 344.917 61.31 344.917 60.4362C344.027 60.4362 343.138 60.4362 342.249 60.4362C342.249 59.5623 342.249 58.6887 342.249 57.8149C343.138 57.8149 344.027 57.8149 344.917 57.8149C345.806 57.8149 346.695 57.8149 347.585 57.8149C347.762 57.8149 347.941 57.8149 348.118 57.8149C390.63 57.8149 433.141 57.8149 475.653 57.8149C475.653 56.941 475.653 56.0675 475.653 55.1936C476.543 55.1936 477.432 55.1936 478.321 55.1936Z" fill="#AE7756"/>
<path fill-rule="evenodd" clip-rule="evenodd" d="M480.989 54.866C481.879 54.866 482.768 54.866 483.657 54.866C485.325 55.1867 487.103 55.2962 488.994 55.1936C488.994 56.0675 488.994 56.941 488.994 57.8149C486.325 57.8149 483.657 57.8149 480.989 57.8149C480.989 56.8319 480.989 55.8489 480.989 54.866Z" fill="#DA9A6E"/>
<path fill-rule="evenodd" clip-rule="evenodd" d="M483.657 54.866C485.614 54.866 487.57 54.866 489.527 54.866C489.527 57.7058 489.527 60.5453 489.527 63.3851C488.46 63.3851 487.393 63.3851 486.326 63.3851C487.083 63.0735 487.972 62.9644 488.994 63.0575C488.994 61.31 488.994 59.5623 488.994 57.8149C488.994 56.941 488.994 56.0675 488.994 55.1936C487.104 55.2962 485.325 55.1867 483.657 54.866Z" fill="#8B5845"/>
<path fill-rule="evenodd" clip-rule="evenodd" d="M450.573 60.4362C450.573 61.4191 450.573 62.4021 450.573 63.3851C447.727 63.3851 444.881 63.3851 442.035 63.3851C442.035 64.259 442.035 65.1325 442.035 66.0064C447.727 66.0064 453.419 66.0064 459.111 66.0064C459.111 65.1325 459.111 64.259 459.111 63.3851C464.625 63.3851 470.139 63.3851 475.653 63.3851C475.653 64.259 475.653 65.1325 475.653 66.0064C476.543 66.0064 477.432 66.0064 478.321 66.0064C480.1 66.0064 481.879 66.0064 483.657 66.0064C483.657 66.8802 483.657 67.7538 483.657 68.6276C435.632 68.6276 387.606 68.6276 339.581 68.6276C339.581 67.7538 339.581 66.8802 339.581 66.0064C344.205 66.0064 348.83 66.0064 353.455 66.0064C353.455 65.1325 353.455 64.259 353.455 63.3851C354.344 63.3851 355.233 63.3851 356.123 63.3851C356.123 64.259 356.123 65.1325 356.123 66.0064C357.012 66.0064 357.901 66.0064 358.791 66.0064C358.791 65.1325 358.791 64.259 358.791 63.3851C359.68 63.3851 360.569 63.3851 361.459 63.3851C361.459 64.259 361.459 65.1325 361.459 66.0064C364.305 66.0064 367.151 66.0064 369.997 66.0064C377.467 66.0064 384.938 66.0064 392.409 66.0064C392.409 65.1325 392.409 64.259 392.409 63.3851C395.966 63.3851 399.523 63.3851 403.081 63.3851C403.081 64.259 403.081 65.1325 403.081 66.0064C405.927 66.0064 408.773 66.0064 411.619 66.0064C411.619 65.0234 411.619 64.0404 411.619 63.0574C411.619 62.1836 411.619 61.31 411.619 60.4362C424.604 60.4362 437.589 60.4362 450.573 60.4362Z" fill="#6C3F39"/>
<path opacity="0.937" fill-rule="evenodd" clip-rule="evenodd" d="M492.195 2.76807C494.152 2.76807 496.108 2.76807 498.065 2.76807C498.065 20.2432 498.065 37.7185 498.065 55.1936C496.998 55.1936 495.931 55.1936 494.863 55.1936C494.863 56.0675 494.863 56.941 494.863 57.8149C493.974 57.8149 493.085 57.8149 492.195 57.8149C492.195 60.5453 492.195 63.276 492.195 66.0064C490.417 66.0064 488.638 66.0064 486.859 66.0064C486.859 66.9893 486.859 67.9723 486.859 68.9553C485.97 68.9553 485.081 68.9553 484.191 68.9553C484.191 69.8292 484.191 70.7027 484.191 71.5766C435.81 71.5766 387.429 71.5766 339.047 71.5766C339.047 70.7027 339.047 69.8292 339.047 68.9553C338.336 68.9553 337.624 68.9553 336.913 68.9553C281.149 69.0644 225.474 68.955 169.89 68.6276C225.564 68.6276 281.239 68.6276 336.913 68.6276C336.913 66.8802 336.913 65.1325 336.913 63.3851C337.624 63.3851 338.336 63.3851 339.047 63.3851C338.884 64.3304 339.061 65.2043 339.581 66.0064C339.581 66.8802 339.581 67.7538 339.581 68.6276C387.606 68.6276 435.632 68.6276 483.658 68.6276C483.658 67.7538 483.658 66.8802 483.658 66.0064C484.547 66.0064 485.436 66.0064 486.326 66.0064C486.326 65.1325 486.326 64.259 486.326 63.3851C487.393 63.3851 488.46 63.3851 489.527 63.3851C489.527 60.5453 489.527 57.7058 489.527 54.8659C491.306 54.8659 493.085 54.8659 494.863 54.8659C494.863 38.483 494.863 22.1 494.863 5.717C493.974 5.717 493.085 5.717 492.195 5.717C492.195 4.73402 492.195 3.75105 492.195 2.76807Z" fill="#5E312C"/>
<path fill-rule="evenodd" clip-rule="evenodd" d="M478.321 63.3851C480.989 63.3851 483.657 63.3851 486.326 63.3851C486.326 64.259 486.326 65.1325 486.326 66.0064C485.436 66.0064 484.547 66.0064 483.657 66.0064C481.879 66.0064 480.1 66.0064 478.321 66.0064C478.321 65.1325 478.321 64.259 478.321 63.3851Z" fill="#915D4F"/>
<path opacity="0.931" fill-rule="evenodd" clip-rule="evenodd" d="M25.8132 49.2958C32.2166 49.2958 38.6201 49.2958 45.0235 49.2958C45.0235 50.2788 45.0235 51.2617 45.0235 52.2447C38.6201 52.2447 32.2166 52.2447 25.8132 52.2447C25.8132 51.2617 25.8132 50.2788 25.8132 49.2958Z" fill="#895047"/>
<path opacity="0.931" fill-rule="evenodd" clip-rule="evenodd" d="M89.8474 49.2958C99.9862 49.2958 110.125 49.2958 120.264 49.2958C120.264 50.2788 120.264 51.2617 120.264 52.2447C110.125 52.2447 99.9862 52.2447 89.8474 52.2447C89.8474 51.2617 89.8474 50.2788 89.8474 49.2958Z" fill="#8A5048"/>
<path opacity="0.944" fill-rule="evenodd" clip-rule="evenodd" d="M156.55 49.2958C159.218 49.2958 161.886 49.2958 164.554 49.2958C164.554 50.2788 164.554 51.2617 164.554 52.2447C160.819 52.2447 157.083 52.2447 153.348 52.2447C153.348 51.3708 153.348 50.4973 153.348 49.6234C154.541 49.7201 155.608 49.6107 156.55 49.2958Z" fill="#8A5048"/>
<path opacity="0.907" fill-rule="evenodd" clip-rule="evenodd" d="M169.89 49.2958C169.89 50.2788 169.89 51.2617 169.89 52.2447C169 52.2447 168.111 52.2447 167.222 52.2447C167.222 51.2617 167.222 50.2788 167.222 49.2958C168.111 49.2958 169 49.2958 169.89 49.2958Z" fill="#5E302C"/>
<path opacity="0.931" fill-rule="evenodd" clip-rule="evenodd" d="M169.89 49.2958C179.139 49.2958 188.389 49.2958 197.638 49.2958C197.638 50.2788 197.638 51.2617 197.638 52.2447C188.389 52.2447 179.139 52.2447 169.89 52.2447C169.89 51.2617 169.89 50.2788 169.89 49.2958Z" fill="#894F47"/>
<path opacity="0.931" fill-rule="evenodd" clip-rule="evenodd" d="M197.638 49.2958C216.137 49.2958 234.636 49.2958 253.134 49.2958C253.134 50.2788 253.134 51.2617 253.134 52.2447C234.636 52.2447 216.137 52.2447 197.638 52.2447C197.638 51.2617 197.638 50.2788 197.638 49.2958Z" fill="#5E302C"/>
<path opacity="0.931" fill-rule="evenodd" clip-rule="evenodd" d="M253.135 49.2958C259.716 49.2958 266.297 49.2958 272.878 49.2958C272.878 50.2788 272.878 51.2617 272.878 52.2447C266.297 52.2447 259.716 52.2447 253.135 52.2447C253.135 51.2617 253.135 50.2788 253.135 49.2958Z" fill="#894F47"/>
<path opacity="0.923" fill-rule="evenodd" clip-rule="evenodd" d="M305.963 49.2958C316.279 49.2958 326.596 49.2958 336.912 49.2958C336.912 50.2788 336.912 51.2617 336.912 52.2447C336.735 52.2447 336.557 52.2447 336.379 52.2447C333.711 52.2447 331.043 52.2447 328.375 52.2447C320.904 52.2447 313.433 52.2447 305.963 52.2447C305.963 51.2617 305.963 50.2788 305.963 49.2958Z" fill="#8A5048"/>
<path opacity="0.945" fill-rule="evenodd" clip-rule="evenodd" d="M344.917 49.2958C345.984 49.7325 347.051 49.7325 348.118 49.2958C348.83 49.2958 349.542 49.2958 350.253 49.2958C350.253 50.2788 350.253 51.2617 350.253 52.2447C346.695 52.2447 343.138 52.2447 339.58 52.2447C339.403 52.2447 339.225 52.2447 339.047 52.2447C339.047 51.2617 339.047 50.2788 339.047 49.2958C341.004 49.2958 342.96 49.2958 344.917 49.2958Z" fill="#5E302C"/>
<path opacity="0.931" fill-rule="evenodd" clip-rule="evenodd" d="M381.203 49.2958C390.452 49.2958 399.702 49.2958 408.951 49.2958C408.951 50.2788 408.951 51.2617 408.951 52.2447C408.061 52.2447 407.172 52.2447 406.283 52.2447C397.923 52.2447 389.563 52.2447 381.203 52.2447C381.203 51.2617 381.203 50.2788 381.203 49.2958Z" fill="#894F47"/>
<path opacity="0.931" fill-rule="evenodd" clip-rule="evenodd" d="M408.951 49.2958C420.868 49.2958 432.786 49.2958 444.703 49.2958C444.703 50.2788 444.703 51.2617 444.703 52.2447C432.786 52.2447 420.868 52.2447 408.951 52.2447C408.951 51.2617 408.951 50.2788 408.951 49.2958Z" fill="#5E302C"/>
<path opacity="0.931" fill-rule="evenodd" clip-rule="evenodd" d="M444.703 49.2958C448.439 49.2958 452.174 49.2958 455.909 49.2958C455.909 50.2788 455.909 51.2617 455.909 52.2447C452.174 52.2447 448.439 52.2447 444.703 52.2447C444.703 51.2617 444.703 50.2788 444.703 49.2958Z" fill="#894F47"/>
<path fill-rule="evenodd" clip-rule="evenodd" d="M45.0234 49.2958C51.4269 49.2958 57.8303 49.2958 64.2337 49.2958C65.3009 49.7325 66.3682 49.7325 67.4354 49.2958C74.906 49.2958 82.3767 49.2958 89.8473 49.2958C89.8473 50.2788 89.8473 51.2617 89.8473 52.2447C87.8906 52.2447 85.9343 52.2447 83.9775 52.2447C70.993 52.2447 58.008 52.2447 45.0234 52.2447C45.0234 51.2617 45.0234 50.2788 45.0234 49.2958Z" fill="#B2764C"/>
<path fill-rule="evenodd" clip-rule="evenodd" d="M120.264 49.2958C131.292 49.2958 142.32 49.2958 153.348 49.2958C153.348 49.4049 153.348 49.5143 153.348 49.6234C153.348 50.4973 153.348 51.3708 153.348 52.2447C152.458 52.2447 151.569 52.2447 150.68 52.2447C142.32 52.2447 133.96 52.2447 125.6 52.2447C123.821 52.2447 122.042 52.2447 120.264 52.2447C120.264 51.2617 120.264 50.2788 120.264 49.2958Z" fill="#B2774C"/>
<path fill-rule="evenodd" clip-rule="evenodd" d="M272.878 49.2958C283.907 49.2958 294.934 49.2958 305.963 49.2958C305.963 50.2788 305.963 51.2617 305.963 52.2447C297.781 52.2447 289.598 52.2447 281.416 52.2447C278.571 52.2447 275.724 52.2447 272.878 52.2447C272.878 51.2617 272.878 50.2788 272.878 49.2958Z" fill="#B2774C"/>
<path fill-rule="evenodd" clip-rule="evenodd" d="M350.253 49.2958C360.569 49.2958 370.886 49.2958 381.203 49.2958C381.203 50.2788 381.203 51.2617 381.203 52.2447C373.732 52.2447 366.261 52.2447 358.791 52.2447C355.945 52.2447 353.099 52.2447 350.253 52.2447C350.253 51.2617 350.253 50.2788 350.253 49.2958Z" fill="#B1764C"/>
<path fill-rule="evenodd" clip-rule="evenodd" d="M455.909 49.2958C462.49 49.2958 469.072 49.2958 475.653 49.2958C475.653 50.2788 475.653 51.2617 475.653 52.2447C469.072 52.2447 462.49 52.2447 455.909 52.2447C455.909 51.2617 455.909 50.2788 455.909 49.2958Z" fill="#B1764C"/>
<path fill-rule="evenodd" clip-rule="evenodd" d="M23.1451 52.2447C23.1451 53.1186 23.1451 53.9921 23.1451 54.866C24.0344 54.866 24.9238 54.866 25.8132 54.866C25.8132 55.8489 25.8132 56.8319 25.8132 57.8149C24.9238 57.8149 24.0344 57.8149 23.1451 57.8149C23.1451 58.6888 23.1451 59.5623 23.1451 60.4362C24.0344 60.4362 24.9238 60.4362 25.8132 60.4362C25.8132 61.31 25.8132 62.1836 25.8132 63.0575C27.5919 63.0575 29.3706 63.0575 31.1493 63.0575C31.1493 64.0404 31.1493 65.0234 31.1493 66.0064C36.6634 66.0064 42.1775 66.0064 47.6915 66.0064C49.6481 66.0064 51.6047 66.0064 53.5613 66.0064C53.5613 66.8803 53.5613 67.7538 53.5613 68.6277C38.7978 68.6277 24.0344 68.6277 9.271 68.6277C9.271 65.0234 9.271 61.4192 9.271 57.8149C10.1604 57.8149 11.0497 57.8149 11.9391 57.8149C11.9391 58.6888 11.9391 59.5623 11.9391 60.4362C12.8285 60.4362 13.7178 60.4362 14.6072 60.4362C14.6072 59.5623 14.6072 58.6888 14.6072 57.8149C16.3859 57.8149 18.1646 57.8149 19.9434 57.8149C19.9434 55.9581 19.9434 54.1015 19.9434 52.2447C21.0106 52.2447 22.0778 52.2447 23.1451 52.2447Z" fill="#6C3F39"/>
<path fill-rule="evenodd" clip-rule="evenodd" d="M23.1453 52.2447C24.0346 52.2447 24.924 52.2447 25.8134 52.2447C25.8134 53.1186 25.8134 53.9921 25.8134 54.866C24.924 54.866 24.0346 54.866 23.1453 54.866C23.1453 53.9921 23.1453 53.1186 23.1453 52.2447Z" fill="#935F50"/>
<path fill-rule="evenodd" clip-rule="evenodd" d="M25.8132 52.2447C32.2166 52.2447 38.6201 52.2447 45.0235 52.2447C45.0235 53.1186 45.0235 53.9921 45.0235 54.866C58.008 54.866 70.9931 54.866 83.9776 54.866C83.9776 53.9921 83.9776 53.1186 83.9776 52.2447C85.9344 52.2447 87.8906 52.2447 89.8474 52.2447C99.9861 52.2447 110.125 52.2447 120.264 52.2447C122.042 52.2447 123.821 52.2447 125.6 52.2447C125.6 53.1186 125.6 53.9921 125.6 54.866C133.96 54.866 142.32 54.866 150.68 54.866C150.68 53.9921 150.68 53.1186 150.68 52.2447C151.569 52.2447 152.458 52.2447 153.348 52.2447C157.083 52.2447 160.819 52.2447 164.554 52.2447C164.554 53.1186 164.554 53.9921 164.554 54.866C164.554 55.8489 164.554 56.8319 164.554 57.8149C162.775 57.8149 160.996 57.8149 159.218 57.8149C159.04 57.8149 158.862 57.8149 158.684 57.8149C155.126 57.8149 151.569 57.8149 148.012 57.8149C146.055 57.8149 144.099 57.8149 142.142 57.8149C142.142 58.6888 142.142 59.5623 142.142 60.4362C129.335 60.4362 116.528 60.4362 103.721 60.4362C103.721 59.5623 103.721 58.6888 103.721 57.8149C79.5309 57.8149 55.3399 57.8149 31.1494 57.8149C31.1494 56.8319 31.1494 55.8489 31.1494 54.866C29.3707 54.866 27.5919 54.866 25.8132 54.866C25.8132 53.9921 25.8132 53.1186 25.8132 52.2447Z" fill="#DB9C6F"/>
<path fill-rule="evenodd" clip-rule="evenodd" d="M45.0234 52.2447C58.008 52.2447 70.993 52.2447 83.9775 52.2447C83.9775 53.1186 83.9775 53.9921 83.9775 54.866C70.993 54.866 58.008 54.866 45.0234 54.866C45.0234 53.9921 45.0234 53.1186 45.0234 52.2447Z" fill="#F6C9A9"/>
<path fill-rule="evenodd" clip-rule="evenodd" d="M125.6 52.2447C133.96 52.2447 142.32 52.2447 150.68 52.2447C150.68 53.1186 150.68 53.9921 150.68 54.866C142.32 54.866 133.96 54.866 125.6 54.866C125.6 53.9921 125.6 53.1186 125.6 52.2447Z" fill="#F6C9A9"/>
<path fill-rule="evenodd" clip-rule="evenodd" d="M164.554 52.2447C165.443 52.2447 166.333 52.2447 167.222 52.2447C167.222 53.1186 167.222 53.9921 167.222 54.866C166.333 54.866 165.443 54.866 164.554 54.866C164.554 53.9921 164.554 53.1186 164.554 52.2447Z" fill="#895047"/>
<path fill-rule="evenodd" clip-rule="evenodd" d="M164 50C165.334 50 166.666 50 168 50C168 51.0001 168 51.9999 168 53C166.666 53 165.334 53 164 53C164 51.9999 164 51.0001 164 50Z" fill="#895047"/>
<path fill-rule="evenodd" clip-rule="evenodd" d="M167.222 52.2447C168.111 52.2447 169 52.2447 169.89 52.2447C179.139 52.2447 188.389 52.2447 197.638 52.2447C216.137 52.2447 234.635 52.2447 253.134 52.2447C259.716 52.2447 266.297 52.2447 272.878 52.2447C275.724 52.2447 278.57 52.2447 281.416 52.2447C281.416 53.1186 281.416 53.9921 281.416 54.866C297.069 54.866 312.722 54.866 328.375 54.866C320.108 55.1923 311.748 55.3018 303.294 55.1936C298.67 55.1936 294.045 55.1936 289.42 55.1936C289.42 55.9581 289.42 56.7228 289.42 57.4872C254.379 57.4872 219.339 57.4872 184.298 57.4872C184.461 56.5419 184.283 55.6681 183.764 54.866C182.875 54.866 181.986 54.866 181.096 54.866C176.471 54.866 171.847 54.866 167.222 54.866C167.222 53.9921 167.222 53.1186 167.222 52.2447Z" fill="#DC9C6F"/>
<path fill-rule="evenodd" clip-rule="evenodd" d="M281.416 52.2447C289.598 52.2447 297.781 52.2447 305.963 52.2447C313.433 52.2447 320.904 52.2447 328.375 52.2447C328.375 53.1186 328.375 53.9921 328.375 54.866C312.722 54.866 297.069 54.866 281.416 54.866C281.416 53.9921 281.416 53.1186 281.416 52.2447Z" fill="#F6C9A9"/>
<path fill-rule="evenodd" clip-rule="evenodd" d="M328.374 52.2447C331.043 52.2447 333.711 52.2447 336.379 52.2447C336.379 54.1015 336.379 55.9581 336.379 57.8149C325.35 57.8149 314.323 57.8149 303.294 57.8149C303.294 56.941 303.294 56.0675 303.294 55.1936C311.748 55.3018 320.108 55.1923 328.374 54.866C328.374 53.9921 328.374 53.1186 328.374 52.2447Z" fill="#DA9B6E"/>
<path fill-rule="evenodd" clip-rule="evenodd" d="M339.581 52.2447C343.138 52.2447 346.695 52.2447 350.253 52.2447C353.099 52.2447 355.945 52.2447 358.791 52.2447C358.791 53.1186 358.791 53.9921 358.791 54.866C374.622 54.866 390.452 54.866 406.283 54.866C406.283 53.9921 406.283 53.1186 406.283 52.2447C407.172 52.2447 408.061 52.2447 408.951 52.2447C420.868 52.2447 432.786 52.2447 444.703 52.2447C448.439 52.2447 452.174 52.2447 455.909 52.2447C462.49 52.2447 469.072 52.2447 475.653 52.2447C477.432 52.2447 479.211 52.2447 480.989 52.2447C480.989 53.1186 480.989 53.9921 480.989 54.866C480.1 54.866 479.211 54.866 478.321 54.866C477.254 54.866 476.187 54.866 475.12 54.866C475.12 55.7398 475.12 56.6134 475.12 57.4872C432.696 57.3781 390.362 57.4876 348.118 57.8149C347.941 57.8149 347.763 57.8149 347.585 57.8149C347.585 56.8319 347.585 55.8489 347.585 54.866C346.695 54.866 345.806 54.866 344.917 54.866C344.917 55.8489 344.917 56.8319 344.917 57.8149C344.027 57.8149 343.138 57.8149 342.249 57.8149C341.359 57.8149 340.47 57.8149 339.581 57.8149C339.581 55.9581 339.581 54.1015 339.581 52.2447Z" fill="#DC9C6F"/>
<path fill-rule="evenodd" clip-rule="evenodd" d="M358.791 52.2447C366.261 52.2447 373.732 52.2447 381.203 52.2447C389.563 52.2447 397.923 52.2447 406.283 52.2447C406.283 53.1186 406.283 53.9921 406.283 54.866C390.452 54.866 374.622 54.866 358.791 54.866C358.791 53.9921 358.791 53.1186 358.791 52.2447Z" fill="#F6C9A9"/>
<path fill-rule="evenodd" clip-rule="evenodd" d="M167.222 54.866C171.847 54.866 176.471 54.866 181.096 54.866C181.096 55.8489 181.096 56.8319 181.096 57.8149C181.986 57.8149 182.875 57.8149 183.764 57.8149C204.219 57.8149 224.675 57.8149 245.13 57.8149C245.13 58.6888 245.13 59.5623 245.13 60.4362C242.284 60.4362 239.438 60.4362 236.592 60.4362C233.924 60.4362 231.256 60.4362 228.588 60.4362C228.588 61.31 228.588 62.1836 228.588 63.0575C213.824 63.0575 199.061 63.0575 184.298 63.0575C184.461 62.1122 184.283 61.2383 183.764 60.4362C182.875 60.4362 181.986 60.4362 181.096 60.4362C181.096 61.31 181.096 62.1836 181.096 63.0575C180.206 63.0575 179.317 63.0575 178.428 63.0575C178.428 62.1836 178.428 61.31 178.428 60.4362C178.428 59.5623 178.428 58.6888 178.428 57.8149C175.76 57.8149 173.092 57.8149 170.424 57.8149C170.246 57.8149 170.068 57.8149 169.89 57.8149C169 57.8149 168.111 57.8149 167.222 57.8149C167.222 56.8319 167.222 55.8489 167.222 54.866Z" fill="#AE7757"/>
<path fill-rule="evenodd" clip-rule="evenodd" d="M181.096 54.866C181.985 54.866 182.874 54.866 183.764 54.866C183.764 55.8489 183.764 56.8319 183.764 57.8149C182.874 57.8149 181.985 57.8149 181.096 57.8149C181.096 56.8319 181.096 55.8489 181.096 54.866Z" fill="#D0BCB3"/>
<path fill-rule="evenodd" clip-rule="evenodd" d="M336.379 52.2447C336.557 52.2447 336.735 52.2447 336.913 52.2447C336.913 53.1186 336.913 53.9921 336.913 54.866C336.913 55.8489 336.913 56.8319 336.913 57.8149C337.624 57.8149 338.336 57.8149 339.047 57.8149C339.047 58.6888 339.047 59.5623 339.047 60.4362C337.268 60.4362 335.489 60.4362 333.711 60.4362C333.711 61.31 333.711 62.1836 333.711 63.0575C313.433 63.0575 293.156 63.0575 272.878 63.0575C272.878 62.1836 272.878 61.31 272.878 60.4362C268.254 60.4362 263.629 60.4362 259.004 60.4362C257.048 60.4362 255.091 60.4362 253.135 60.4362C253.135 59.5623 253.135 58.6888 253.135 57.8149C265.322 57.9234 277.417 57.8139 289.421 57.4872C289.421 56.7228 289.421 55.9581 289.421 55.1936C294.045 55.1936 298.67 55.1936 303.295 55.1936C303.295 56.0675 303.295 56.941 303.295 57.8149C314.323 57.8149 325.351 57.8149 336.379 57.8149C336.379 55.9581 336.379 54.1015 336.379 52.2447Z" fill="#AE7756"/>
<path fill-rule="evenodd" clip-rule="evenodd" d="M336.913 54.866C337.624 54.866 338.336 54.866 339.047 54.866C339.047 55.8489 339.047 56.8319 339.047 57.8149C338.336 57.8149 337.624 57.8149 336.913 57.8149C336.913 56.8319 336.913 55.8489 336.913 54.866Z" fill="#61332D"/>
<path fill-rule="evenodd" clip-rule="evenodd" d="M347.585 57.8149C346.695 57.8149 345.806 57.8149 344.917 57.8149C344.917 56.8319 344.917 55.8489 344.917 54.866C345.806 54.866 346.695 54.866 347.585 54.866C347.585 55.8489 347.585 56.8319 347.585 57.8149Z" fill="#D0BCB3"/>
<path fill-rule="evenodd" clip-rule="evenodd" d="M478.321 54.866C479.211 54.866 480.1 54.866 480.989 54.866C480.989 55.8489 480.989 56.8319 480.989 57.8149C480.1 57.8149 479.211 57.8149 478.321 57.8149C478.321 56.941 478.321 56.0675 478.321 55.1936C478.321 55.0845 478.321 54.9751 478.321 54.866Z" fill="#B59D93"/>
<path fill-rule="evenodd" clip-rule="evenodd" d="M183.764 54.866C184.283 55.6681 184.461 56.5419 184.298 57.4872C219.339 57.4872 254.379 57.4872 289.421 57.4872C277.417 57.8139 265.322 57.9234 253.134 57.8149C250.466 57.8149 247.798 57.8149 245.13 57.8149C224.675 57.8149 204.219 57.8149 183.764 57.8149C183.764 56.8319 183.764 55.8489 183.764 54.866Z" fill="#CF936A"/>
<path fill-rule="evenodd" clip-rule="evenodd" d="M478.321 54.866C478.321 54.9751 478.321 55.0845 478.321 55.1936C477.432 55.1936 476.543 55.1936 475.653 55.1936C475.653 56.0675 475.653 56.941 475.653 57.8149C433.141 57.8149 390.63 57.8149 348.118 57.8149C390.362 57.4876 432.696 57.3781 475.119 57.4872C475.119 56.6134 475.119 55.7398 475.119 54.866C476.187 54.866 477.254 54.866 478.321 54.866Z" fill="#CF9268"/>
<path fill-rule="evenodd" clip-rule="evenodd" d="M11.9392 57.8149C12.8286 57.8149 13.7179 57.8149 14.6073 57.8149C14.6073 58.6887 14.6073 59.5623 14.6073 60.4362C13.7179 60.4362 12.8286 60.4362 11.9392 60.4362C11.9392 59.5623 11.9392 58.6887 11.9392 57.8149Z" fill="#4F3B3B"/>
<path fill-rule="evenodd" clip-rule="evenodd" d="M25.8134 57.8149C26.7027 57.8149 27.5921 57.8149 28.4814 57.8149C28.4814 58.6887 28.4814 59.5623 28.4814 60.4362C33.1061 60.4362 37.7308 60.4362 42.3555 60.4362C42.3555 61.4191 42.3555 62.4021 42.3555 63.3851C44.1342 63.3851 45.913 63.3851 47.6917 63.3851C47.6917 64.259 47.6917 65.1325 47.6917 66.0064C42.1777 66.0064 36.6636 66.0064 31.1495 66.0064C31.1495 65.0234 31.1495 64.0404 31.1495 63.0574C29.3708 63.0574 27.5921 63.0574 25.8134 63.0574C25.8134 62.1836 25.8134 61.31 25.8134 60.4362C24.924 60.4362 24.0346 60.4362 23.1453 60.4362C23.1453 59.5623 23.1453 58.6887 23.1453 57.8149C24.0346 57.8149 24.924 57.8149 25.8134 57.8149Z" fill="#915D4F"/>
<path fill-rule="evenodd" clip-rule="evenodd" d="M25.8132 54.866C27.5919 54.866 29.3707 54.866 31.1494 54.866C31.1494 55.8489 31.1494 56.8319 31.1494 57.8149C55.3399 57.8149 79.5309 57.8149 103.721 57.8149C103.721 58.6888 103.721 59.5623 103.721 60.4362C116.528 60.4362 129.335 60.4362 142.142 60.4362C142.142 59.5623 142.142 58.6888 142.142 57.8149C144.099 57.8149 146.055 57.8149 148.012 57.8149C148.012 58.6888 148.012 59.5623 148.012 60.4362C150.68 60.4362 153.348 60.4362 156.016 60.4362C156.016 61.31 156.016 62.1836 156.016 63.0575C148.817 63.3838 141.525 63.4929 134.138 63.3851C131.292 63.3851 128.446 63.3851 125.6 63.3851C125.6 64.1495 125.6 64.9143 125.6 65.6787C100.697 65.6787 75.7956 65.6787 50.8933 65.6787C50.8933 64.8049 50.8933 63.9313 50.8933 63.0575C48.9367 63.0575 46.9801 63.0575 45.0235 63.0575C45.0235 62.1836 45.0235 61.31 45.0235 60.4362C44.1341 60.4362 43.2448 60.4362 42.3554 60.4362C37.7307 60.4362 33.106 60.4362 28.4813 60.4362C28.4813 59.5623 28.4813 58.6888 28.4813 57.8149C27.5919 57.8149 26.7026 57.8149 25.8132 57.8149C25.8132 56.8319 25.8132 55.8489 25.8132 54.866Z" fill="#AE7757"/>
<path fill-rule="evenodd" clip-rule="evenodd" d="M148.012 57.8149C151.569 57.8149 155.126 57.8149 158.684 57.8149C158.684 58.6887 158.684 59.5623 158.684 60.4362C157.973 60.4362 157.261 60.4362 156.55 60.4362C156.713 61.3815 156.535 62.2553 156.016 63.0574C156.016 62.1836 156.016 61.31 156.016 60.4362C153.348 60.4362 150.68 60.4362 148.012 60.4362C148.012 59.5623 148.012 58.6887 148.012 57.8149Z" fill="#A56F57"/>
<path fill-rule="evenodd" clip-rule="evenodd" d="M170.424 57.8149C173.092 57.8149 175.76 57.8149 178.428 57.8149C178.428 58.6887 178.428 59.5623 178.428 60.4362C175.76 60.4362 173.092 60.4362 170.424 60.4362C170.424 59.5623 170.424 58.6887 170.424 57.8149Z" fill="#A67058"/>
<path fill-rule="evenodd" clip-rule="evenodd" d="M245.13 57.8149C247.798 57.8149 250.466 57.8149 253.134 57.8149C253.134 58.6887 253.134 59.5623 253.134 60.4362C250.466 60.4362 247.798 60.4362 245.13 60.4362C245.13 59.5623 245.13 58.6887 245.13 57.8149Z" fill="#915E4F"/>
<path fill-rule="evenodd" clip-rule="evenodd" d="M339.581 57.8149C340.47 57.8149 341.359 57.8149 342.249 57.8149C342.249 58.6887 342.249 59.5623 342.249 60.4362C343.138 60.4362 344.027 60.4362 344.917 60.4362C344.917 61.31 344.917 62.1836 344.917 63.0574C343.138 63.0574 341.359 63.0574 339.581 63.0574C339.581 61.31 339.581 59.5623 339.581 57.8149Z" fill="#5F312C"/>
<path fill-rule="evenodd" clip-rule="evenodd" d="M158.684 57.8149C158.862 57.8149 159.04 57.8149 159.218 57.8149C159.218 58.6887 159.218 59.5623 159.218 60.4362C161.886 60.4362 164.554 60.4362 167.222 60.4362C167.222 62.293 167.222 64.1495 167.222 66.0064C156.194 66.0064 145.166 66.0064 134.138 66.0064C134.138 65.1325 134.138 64.259 134.138 63.3851C141.525 63.4929 148.818 63.3838 156.016 63.0574C156.535 62.2553 156.713 61.3815 156.55 60.4362C157.261 60.4362 157.973 60.4362 158.684 60.4362C158.684 59.5623 158.684 58.6887 158.684 57.8149Z" fill="#915D4F"/>
<path fill-rule="evenodd" clip-rule="evenodd" d="M169.89 57.8149C170.068 57.8149 170.246 57.8149 170.424 57.8149C170.424 58.6887 170.424 59.5623 170.424 60.4362C173.092 60.4362 175.76 60.4362 178.428 60.4362C178.428 61.31 178.428 62.1836 178.428 63.0574C179.318 63.0574 180.207 63.0574 181.096 63.0574C181.096 64.0404 181.096 65.0234 181.096 66.0064C177.361 66.0064 173.625 66.0064 169.89 66.0064C169.89 63.276 169.89 60.5453 169.89 57.8149Z" fill="#915D4F"/>
<path fill-rule="evenodd" clip-rule="evenodd" d="M236.592 60.4362C239.438 60.4362 242.284 60.4362 245.13 60.4362C247.798 60.4362 250.466 60.4362 253.135 60.4362C255.091 60.4362 257.048 60.4362 259.004 60.4362C259.004 61.4191 259.004 62.4021 259.004 63.3851C280.171 63.3851 301.338 63.3851 322.505 63.3851C322.505 64.259 322.505 65.1325 322.505 66.0064C327.13 66.0064 331.754 66.0064 336.379 66.0064C336.216 65.0611 336.393 64.1872 336.913 63.3851C336.913 65.1325 336.913 66.8802 336.913 68.6276C281.239 68.6276 225.564 68.6276 169.89 68.6276C169.89 67.7538 169.89 66.8802 169.89 66.0064C173.625 66.0064 177.361 66.0064 181.096 66.0064C181.986 66.0064 182.875 66.0064 183.764 66.0064C183.764 65.1325 183.764 64.259 183.764 63.3851C198.797 63.4935 213.739 63.3844 228.588 63.0574C231.256 63.0574 233.924 63.0574 236.592 63.0574C236.592 62.1836 236.592 61.31 236.592 60.4362Z" fill="#6C3F39"/>
<path fill-rule="evenodd" clip-rule="evenodd" d="M183.764 60.4362C183.764 61.31 183.764 62.1836 183.764 63.0574C182.874 63.0574 181.985 63.0574 181.096 63.0574C181.096 62.1836 181.096 61.31 181.096 60.4362C181.985 60.4362 182.874 60.4362 183.764 60.4362Z" fill="#6D4039"/>
<path fill-rule="evenodd" clip-rule="evenodd" d="M236.592 60.4362C236.592 61.31 236.592 62.1836 236.592 63.0574C233.924 63.0574 231.256 63.0574 228.588 63.0574C228.588 62.1836 228.588 61.31 228.588 60.4362C231.256 60.4362 233.924 60.4362 236.592 60.4362Z" fill="#925E50"/>
<path fill-rule="evenodd" clip-rule="evenodd" d="M336.913 52.2447C337.624 52.2447 338.336 52.2447 339.047 52.2447C339.225 52.2447 339.403 52.2447 339.581 52.2447C339.581 54.1015 339.581 55.9581 339.581 57.8149C339.581 59.5623 339.581 61.31 339.581 63.0575C341.359 63.0575 343.138 63.0575 344.917 63.0575C347.66 63.3812 350.506 63.4903 353.455 63.3851C353.455 64.259 353.455 65.1325 353.455 66.0064C348.83 66.0064 344.206 66.0064 339.581 66.0064C339.061 65.2043 338.884 64.3304 339.047 63.3851C338.336 63.3851 337.624 63.3851 336.913 63.3851C336.393 64.1872 336.216 65.0611 336.379 66.0064C331.754 66.0064 327.13 66.0064 322.505 66.0064C322.505 65.1325 322.505 64.259 322.505 63.3851C301.338 63.3851 280.171 63.3851 259.004 63.3851C259.004 62.4021 259.004 61.4192 259.004 60.4362C263.629 60.4362 268.254 60.4362 272.878 60.4362C272.878 61.31 272.878 62.1836 272.878 63.0575C293.156 63.0575 313.433 63.0575 333.711 63.0575C333.711 62.1836 333.711 61.31 333.711 60.4362C335.489 60.4362 337.269 60.4362 339.047 60.4362C339.047 59.5623 339.047 58.6888 339.047 57.8149C339.047 56.8319 339.047 55.8489 339.047 54.866C338.336 54.866 337.624 54.866 336.913 54.866C336.913 53.9921 336.913 53.1186 336.913 52.2447Z" fill="#8F5B4D"/>
<path fill-rule="evenodd" clip-rule="evenodd" d="M450.573 60.4362C451.463 60.4362 452.352 60.4362 453.241 60.4362C453.241 61.31 453.241 62.1836 453.241 63.0574C461.667 63.0044 470.027 63.1135 478.321 63.3851C477.432 63.3851 476.543 63.3851 475.653 63.3851C470.139 63.3851 464.625 63.3851 459.111 63.3851C459.111 64.259 459.111 65.1325 459.111 66.0064C453.419 66.0064 447.727 66.0064 442.035 66.0064C442.035 65.1325 442.035 64.259 442.035 63.3851C444.881 63.3851 447.727 63.3851 450.573 63.3851C450.573 62.4021 450.573 61.4191 450.573 60.4362Z" fill="#935F50"/>
<path fill-rule="evenodd" clip-rule="evenodd" d="M183.764 60.4362C184.283 61.2383 184.461 62.1121 184.298 63.0574C199.061 63.0574 213.824 63.0574 228.588 63.0574C213.739 63.3844 198.797 63.4935 183.764 63.3851C183.764 63.276 183.764 63.1665 183.764 63.0574C183.764 62.1836 183.764 61.31 183.764 60.4362Z" fill="#8D5B48"/>
<path fill-rule="evenodd" clip-rule="evenodd" d="M11.9392 63.3851C12.8286 63.3851 13.7179 63.3851 14.6073 63.3851C14.6073 64.259 14.6073 65.1325 14.6073 66.0064C13.7179 66.0064 12.8286 66.0064 11.9392 66.0064C11.9392 65.1325 11.9392 64.259 11.9392 63.3851Z" fill="#503B3B"/>
<path fill-rule="evenodd" clip-rule="evenodd" d="M181.096 63.0574C181.985 63.0574 182.874 63.0574 183.764 63.0574C183.764 63.1665 183.764 63.276 183.764 63.3851C183.764 64.259 183.764 65.1325 183.764 66.0064C182.874 66.0064 181.985 66.0064 181.096 66.0064C181.096 65.0234 181.096 64.0404 181.096 63.0574Z" fill="#523B3C"/>
<path fill-rule="evenodd" clip-rule="evenodd" d="M353.455 63.3851C358.872 63.0594 364.386 62.95 369.997 63.0575C369.997 64.0404 369.997 65.0234 369.997 66.0064C367.151 66.0064 364.305 66.0064 361.459 66.0064C361.459 65.1325 361.459 64.259 361.459 63.3851C360.569 63.3851 359.68 63.3851 358.791 63.3851C357.901 63.3851 357.012 63.3851 356.123 63.3851C355.233 63.3851 354.344 63.3851 353.455 63.3851Z" fill="#925E4F"/>
<path fill-rule="evenodd" clip-rule="evenodd" d="M392.409 63.3851C398.717 63.0591 405.121 62.95 411.619 63.0574C411.619 64.0404 411.619 65.0234 411.619 66.0064C408.773 66.0064 405.927 66.0064 403.081 66.0064C403.081 65.1325 403.081 64.259 403.081 63.3851C399.523 63.3851 395.966 63.3851 392.409 63.3851Z" fill="#925E4F"/>
<path fill-rule="evenodd" clip-rule="evenodd" d="M42.3555 60.4362C43.2448 60.4362 44.1342 60.4362 45.0236 60.4362C45.0236 61.31 45.0236 62.1836 45.0236 63.0574C46.9802 63.0574 48.9367 63.0574 50.8934 63.0574C50.8934 63.9313 50.8934 64.8048 50.8934 65.6787C75.7957 65.6787 100.698 65.6787 125.6 65.6787C125.6 64.9143 125.6 64.1495 125.6 63.3851C128.446 63.3851 131.292 63.3851 134.138 63.3851C134.138 64.259 134.138 65.1325 134.138 66.0064C114.75 66.0064 95.3613 66.0064 75.9734 66.0064C68.5027 66.0064 61.0321 66.0064 53.5614 66.0064C51.6048 66.0064 49.6483 66.0064 47.6916 66.0064C47.6916 65.1325 47.6916 64.259 47.6916 63.3851C45.9129 63.3851 44.1342 63.3851 42.3555 63.3851C42.3555 62.4021 42.3555 61.4191 42.3555 60.4362Z" fill="#A67055"/>
<path fill-rule="evenodd" clip-rule="evenodd" d="M53.5613 66.0063C61.0319 66.0063 68.5026 66.0063 75.9732 66.0063C75.9732 66.8802 75.9732 67.7538 75.9732 68.6276C68.5026 68.6276 61.0319 68.6276 53.5613 68.6276C53.5613 67.7538 53.5613 66.8802 53.5613 66.0063Z" fill="#915D4F"/>
<path fill-rule="evenodd" clip-rule="evenodd" d="M75.9734 66.0063C95.3613 66.0063 114.75 66.0063 134.138 66.0063C145.166 66.0063 156.194 66.0063 167.222 66.0063C167.222 66.8802 167.222 67.7538 167.222 68.6276C136.806 68.6276 106.39 68.6276 75.9734 68.6276C75.9734 67.7538 75.9734 66.8802 75.9734 66.0063Z" fill="#6B3F38"/>
<path fill-rule="evenodd" clip-rule="evenodd" d="M475.653 63.3851C476.543 63.3851 477.432 63.3851 478.321 63.3851C478.321 64.259 478.321 65.1325 478.321 66.0064C477.432 66.0064 476.543 66.0064 475.653 66.0064C475.653 65.1325 475.653 64.259 475.653 63.3851Z" fill="#533C3C"/>
<path fill-rule="evenodd" clip-rule="evenodd" d="M356.123 63.3851C357.012 63.3851 357.901 63.3851 358.791 63.3851C358.791 64.259 358.791 65.1325 358.791 66.0064C357.901 66.0064 357.012 66.0064 356.123 66.0064C356.123 65.1325 356.123 64.259 356.123 63.3851Z" fill="#503B3B"/>
</svg>
