<svg width="35" height="35" viewBox="0 0 35 35" fill="none" xmlns="http://www.w3.org/2000/svg">
<path d="M17.3555 32.9512C17.7155 32.9512 18.0074 33.2398 18.0074 33.5959C18.0074 33.952 17.7155 34.2408 17.3555 34.2408C16.9955 34.2408 16.7036 33.952 16.7036 33.5959C16.7036 33.2398 16.9955 32.9512 17.3555 32.9512ZM16.6473 2.15044C16.9658 2.17674 17.2232 2.41816 17.2663 2.73113L18.0416 8.36504C18.3021 10.2264 20.547 11.0329 21.9328 9.76798L29.7017 2.69689C29.8891 2.52632 30.1809 2.53814 30.3536 2.72329C30.512 2.89317 30.5167 3.15324 30.3647 3.32865L23.5901 11.1433C22.3429 12.5794 23.2631 14.8218 25.1643 14.982L31.1418 15.5582C31.4395 15.5869 31.6573 15.8486 31.6282 16.1427C31.6042 16.3853 31.4174 16.5812 31.1737 16.6192L24.8927 17.6C23.069 17.8486 22.2432 20.0081 23.4294 21.4111L25.6375 24.0142C25.8153 24.224 25.7875 24.5365 25.5752 24.7122C25.3954 24.8611 25.135 24.8669 24.9486 24.7261L22.2265 22.6704C20.7576 21.5657 18.6403 22.5046 18.485 24.3328L17.8852 31.4629C17.8605 31.7574 17.5987 31.9763 17.3006 31.9519C17.0476 31.9311 16.8432 31.7395 16.8089 31.491L15.8577 24.6035C15.6027 22.7422 13.3579 21.9357 11.9666 23.2006L3.70199 30.726C3.53092 30.8817 3.26442 30.871 3.10676 30.702C2.96212 30.5469 2.95772 30.3094 3.09652 30.1493L10.3093 21.8253C11.5565 20.3892 10.6419 18.1467 8.74055 17.9867L2.76178 17.4103C2.46408 17.3816 2.2463 17.1199 2.27534 16.8258C2.2993 16.5832 2.48613 16.3873 2.72979 16.3492L9.00666 15.3686C10.8303 15.12 11.6618 12.9605 10.4756 11.5575L8.97248 9.7855C8.75186 9.52545 8.78642 9.13795 9.04962 8.92001C9.27276 8.73529 9.5957 8.72822 9.82688 8.90298L11.6728 10.2982C13.1417 11.4029 15.2591 10.464 15.4143 8.63575L15.9108 2.76581C15.9422 2.39496 16.2719 2.11945 16.6473 2.15044ZM0.746642 16.1669C1.10669 16.1669 1.39856 16.4556 1.39856 16.8116C1.39856 17.1677 1.10669 17.4564 0.746642 17.4564C0.3866 17.4564 0.0947266 17.1677 0.0947266 16.8116C0.0947266 16.4556 0.3866 16.1669 0.746642 16.1669ZM33.4428 15.5121C33.8029 15.5121 34.0947 15.8008 34.0947 16.157C34.0947 16.5131 33.8029 16.8017 33.4428 16.8017C33.0828 16.8017 32.7909 16.5131 32.7909 16.157C32.7909 15.8008 33.0828 15.5121 33.4428 15.5121ZM16.5531 0.0968018C16.9132 0.0968018 17.205 0.385483 17.205 0.741586C17.205 1.09769 16.9132 1.38638 16.5531 1.38638C16.1931 1.38638 15.9012 1.09769 15.9012 0.741586C15.9012 0.385483 16.1931 0.0968018 16.5531 0.0968018Z" fill="white"/>
<path d="M16.9443 22.5748C20.3453 22.5748 23.1024 19.8479 23.1024 16.4841C23.1024 13.1202 20.3453 10.3933 16.9443 10.3933C13.5432 10.3933 10.7861 13.1202 10.7861 16.4841C10.7861 19.8479 13.5432 22.5748 16.9443 22.5748Z" fill="white"/>
</svg>
