<svg width="400" height="15" viewBox="0 0 400 15" fill="none" xmlns="http://www.w3.org/2000/svg">
<path fill-rule="evenodd" clip-rule="evenodd" d="M5.69312 -0.0968018C135.347 -0.0968018 265.001 -0.0968018 394.654 -0.0968018C394.654 0.548515 394.654 1.19383 394.654 1.83915C371.351 1.83915 348.047 1.83915 324.744 1.83915C218.394 1.83915 112.043 1.83915 5.69312 1.83915C5.69312 1.19383 5.69312 0.548515 5.69312 -0.0968018Z" fill="#6B3F38"/>
<path opacity="0.89" fill-rule="evenodd" clip-rule="evenodd" d="M0.76709 -0.0968018C0.830237 -0.0968018 0.893403 -0.0968018 0.95655 -0.0968018C0.95655 0.548515 0.95655 1.19383 0.95655 1.83915C2.47223 1.83915 3.98791 1.83915 5.50359 1.83915C5.50359 1.19383 5.50359 0.548515 5.50359 -0.0968018C5.56668 -0.0968018 5.62996 -0.0968018 5.69305 -0.0968018C5.69305 0.548515 5.69305 1.19383 5.69305 1.83915C5.69305 1.90368 5.69305 1.96822 5.69305 2.03275C4.051 2.03275 2.40908 2.03275 0.76709 2.03275C0.76709 1.96822 0.76709 1.90368 0.76709 1.83915C0.76709 1.19383 0.76709 0.548515 0.76709 -0.0968018Z" fill="#AE8D7B"/>
<path opacity="0.78" fill-rule="evenodd" clip-rule="evenodd" d="M0.956543 -0.0968018C2.47222 -0.0968018 3.9879 -0.0968018 5.50358 -0.0968018C5.50358 0.548515 5.50358 1.19383 5.50358 1.83915C3.9879 1.83915 2.47222 1.83915 0.956543 1.83915C0.956543 1.19383 0.956543 0.548515 0.956543 -0.0968018Z" fill="#E9D3B7"/>
<path fill-rule="evenodd" clip-rule="evenodd" d="M394.654 -0.0968018C395.475 -0.0968018 396.297 -0.0968018 397.117 -0.0968018C397.117 0.548515 397.117 1.19383 397.117 1.83915C397.938 1.83915 398.76 1.83915 399.58 1.83915C399.58 1.90368 399.58 1.96822 399.58 2.03275C398.76 2.03275 397.938 2.03275 397.117 2.03275C372.993 2.03275 348.868 2.03275 324.744 2.03275C324.744 1.96822 324.744 1.90368 324.744 1.83915C348.047 1.83915 371.351 1.83915 394.654 1.83915C394.654 1.19383 394.654 0.548515 394.654 -0.0968018Z" fill="#824F45"/>
<path fill-rule="evenodd" clip-rule="evenodd" d="M0.76709 2.03271C2.40908 2.03271 4.051 2.03271 5.69305 2.03271C5.69305 2.8071 5.69305 3.58148 5.69305 4.35586C4.87212 4.35586 4.051 4.35586 3.23007 4.35586C3.23007 6.8726 3.23007 9.38934 3.23007 11.9061C2.47223 11.9061 1.71439 11.9061 0.95655 11.9061C0.893403 11.9061 0.830237 11.9061 0.76709 11.9061C0.76709 11.8416 0.76709 11.777 0.76709 11.7125C0.76709 8.48589 0.76709 5.25931 0.76709 2.03271Z" fill="#6D4039"/>
<path fill-rule="evenodd" clip-rule="evenodd" d="M5.69312 1.83911C112.043 1.83911 218.394 1.83911 324.744 1.83911C324.744 1.90364 324.744 1.96818 324.744 2.03271C324.681 2.03271 324.617 2.03271 324.554 2.03271C307.692 2.03271 290.83 2.03271 273.968 2.03271C273.906 2.03271 273.841 2.03271 273.779 2.03271C261.78 2.03271 249.78 2.03271 237.782 2.03271C237.719 2.03271 237.655 2.03271 237.592 2.03271C227.172 2.03271 216.751 2.03271 206.331 2.03271C206.269 2.03271 206.204 2.03271 206.142 2.03271C172.355 2.03271 138.568 2.03271 104.781 2.03271C74.1512 2.03271 43.522 2.03271 12.8926 2.03271C12.8926 2.80709 12.8926 3.58147 12.8926 4.35585C10.4927 4.35585 8.093 4.35585 5.69312 4.35585C5.69312 3.58147 5.69312 2.80709 5.69312 2.03271C5.69312 1.96818 5.69312 1.90364 5.69312 1.83911Z" fill="#8A5849"/>
<path fill-rule="evenodd" clip-rule="evenodd" d="M104.781 2.03271C104.781 2.8071 104.781 3.58148 104.781 4.35586C138.599 4.5494 172.449 4.61392 206.331 4.54945C206.331 3.71055 206.331 2.87162 206.331 2.03271C216.751 2.03271 227.172 2.03271 237.592 2.03271C237.592 2.87162 237.592 3.71055 237.592 4.54945C249.718 4.54945 261.843 4.54945 273.968 4.54945C273.968 3.71055 273.968 2.87162 273.968 2.03271C290.83 2.03271 307.692 2.03271 324.554 2.03271C324.554 2.87162 324.554 3.71055 324.554 4.54945C348.743 4.54945 372.929 4.54945 397.117 4.54945C397.117 5.32384 397.117 6.09822 397.117 6.8726C396.297 6.8726 395.475 6.8726 394.654 6.8726C394.654 7.7115 394.654 8.55043 394.654 9.38934C377.792 9.38934 360.93 9.38934 344.069 9.38934C340.785 9.38934 337.5 9.38934 334.217 9.38934C325.375 9.38934 316.534 9.38934 307.692 9.38934C306.114 9.38934 304.534 9.38934 302.956 9.38934C302.956 8.55043 302.956 7.7115 302.956 6.8726C302.135 6.8726 301.313 6.8726 300.493 6.8726C299.672 6.8726 298.85 6.8726 298.03 6.8726C297.272 6.8726 296.514 6.8726 295.756 6.8726C295.694 6.8726 295.629 6.8726 295.567 6.8726C294.809 6.8726 294.051 6.8726 293.293 6.8726C293.108 7.60795 293.043 8.38233 293.104 9.19574C216.594 9.13124 140.115 9.19576 63.6679 9.38934C62.0891 9.38934 60.5101 9.38934 58.9314 9.38934C58.9314 10.1637 58.9314 10.9381 58.9314 11.7125C58.8683 11.7125 58.805 11.7125 58.7419 11.7125C58.7419 10.9381 58.7419 10.1637 58.7419 9.38934C49.9004 9.38934 41.059 9.38934 32.2175 9.38934C24.9549 9.38934 17.6922 9.38934 10.4296 9.38934C8.85084 9.38934 7.27188 9.38934 5.69312 9.38934C5.69312 7.7115 5.69312 6.03369 5.69312 4.35586C8.093 4.35586 10.4927 4.35586 12.8926 4.35586C12.8926 3.58148 12.8926 2.8071 12.8926 2.03271C43.522 2.03271 74.1512 2.03271 104.781 2.03271Z" fill="#AF7857"/>
<path fill-rule="evenodd" clip-rule="evenodd" d="M104.781 2.03271C138.568 2.03271 172.355 2.03271 206.142 2.03271C206.142 2.8071 206.142 3.58148 206.142 4.35586C172.355 4.35586 138.568 4.35586 104.781 4.35586C104.781 3.58148 104.781 2.8071 104.781 2.03271Z" fill="#915E4F"/>
<path fill-rule="evenodd" clip-rule="evenodd" d="M324.744 2.03271C348.868 2.03271 372.993 2.03271 397.117 2.03271C397.117 2.8071 397.117 3.58148 397.117 4.35586C372.993 4.35586 348.868 4.35586 324.744 4.35586C324.744 3.58148 324.744 2.8071 324.744 2.03271Z" fill="#915E4F"/>
<path fill-rule="evenodd" clip-rule="evenodd" d="M206.142 2.03271C206.204 2.03271 206.269 2.03271 206.331 2.03271C206.331 2.87162 206.331 3.71055 206.331 4.54945C172.449 4.61392 138.599 4.5494 104.781 4.35586C138.568 4.35586 172.355 4.35586 206.142 4.35586C206.142 3.58148 206.142 2.8071 206.142 2.03271Z" fill="#A36E53"/>
<path fill-rule="evenodd" clip-rule="evenodd" d="M237.592 2.03271C237.655 2.03271 237.719 2.03271 237.782 2.03271C237.782 2.8071 237.782 3.58148 237.782 4.35586C249.78 4.35586 261.78 4.35586 273.779 4.35586C273.779 3.58148 273.779 2.8071 273.779 2.03271C273.841 2.03271 273.906 2.03271 273.968 2.03271C273.968 2.87162 273.968 3.71055 273.968 4.54945C261.843 4.54945 249.717 4.54945 237.592 4.54945C237.592 3.71055 237.592 2.87162 237.592 2.03271Z" fill="#A36E53"/>
<path fill-rule="evenodd" clip-rule="evenodd" d="M237.781 2.03271C249.78 2.03271 261.78 2.03271 273.779 2.03271C273.779 2.8071 273.779 3.58148 273.779 4.35586C261.78 4.35586 249.78 4.35586 237.781 4.35586C237.781 3.58148 237.781 2.8071 237.781 2.03271Z" fill="#915E4F"/>
<path fill-rule="evenodd" clip-rule="evenodd" d="M324.554 2.03271C324.617 2.03271 324.681 2.03271 324.744 2.03271C324.744 2.8071 324.744 3.58148 324.744 4.35586C348.868 4.35586 372.993 4.35586 397.117 4.35586C397.117 4.42038 397.117 4.48493 397.117 4.54945C372.929 4.54945 348.743 4.54945 324.554 4.54945C324.554 3.71055 324.554 2.87162 324.554 2.03271Z" fill="#A36E53"/>
<path fill-rule="evenodd" clip-rule="evenodd" d="M5.6932 4.35583C5.6932 6.03367 5.6932 7.71148 5.6932 9.38931C5.6932 10.2282 5.6932 11.0671 5.6932 11.9061C4.87227 11.9061 4.05115 11.9061 3.23022 11.9061C3.23022 9.38931 3.23022 6.87257 3.23022 4.35583C4.05115 4.35583 4.87227 4.35583 5.6932 4.35583Z" fill="#8B5148"/>
<path fill-rule="evenodd" clip-rule="evenodd" d="M295.756 6.87268C296.514 6.87268 297.272 6.87268 298.03 6.87268C298.03 7.71159 298.03 8.55051 298.03 9.38942C297.272 9.38942 296.514 9.38942 295.756 9.38942C295.756 8.55051 295.756 7.71159 295.756 6.87268Z" fill="#B3774D"/>
<path fill-rule="evenodd" clip-rule="evenodd" d="M293.293 6.87268C294.051 6.87268 294.809 6.87268 295.567 6.87268C295.567 7.71159 295.567 8.55051 295.567 9.38942C294.809 9.38942 294.051 9.38942 293.293 9.38942C293.293 8.55051 293.293 7.71159 293.293 6.87268Z" fill="#F5C8A8"/>
<path fill-rule="evenodd" clip-rule="evenodd" d="M298.03 6.87268C298.85 6.87268 299.672 6.87268 300.493 6.87268C300.493 7.71159 300.493 8.55051 300.493 9.38942C299.735 9.38942 298.977 9.38942 298.219 9.38942C298.157 9.38942 298.092 9.38942 298.03 9.38942C298.03 8.55051 298.03 7.71159 298.03 6.87268Z" fill="#F4C7A7"/>
<path fill-rule="evenodd" clip-rule="evenodd" d="M300.493 6.87268C301.313 6.87268 302.136 6.87268 302.956 6.87268C302.956 7.71159 302.956 8.55051 302.956 9.38942C302.893 9.38942 302.829 9.38942 302.766 9.38942C302.009 9.38942 301.251 9.38942 300.493 9.38942C300.493 8.55051 300.493 7.71159 300.493 6.87268Z" fill="#DA9A6E"/>
<path fill-rule="evenodd" clip-rule="evenodd" d="M293.293 6.87268C293.293 7.71159 293.293 8.55051 293.293 9.38942C293.231 9.38942 293.166 9.38942 293.104 9.38942C286.725 9.38942 280.348 9.38942 273.968 9.38942C255.401 9.38942 236.834 9.38942 218.267 9.38942C209.425 9.38942 200.585 9.38942 191.743 9.38942C174.818 9.38942 157.893 9.38942 140.968 9.38942C128.905 9.38942 116.843 9.38942 104.781 9.38942C91.0766 9.38942 77.3722 9.38942 63.668 9.38942C140.115 9.19584 216.594 9.13132 293.104 9.19582C293.043 8.38241 293.108 7.60803 293.293 6.87268Z" fill="#B57D5B"/>
<path fill-rule="evenodd" clip-rule="evenodd" d="M5.69312 9.3894C7.27188 9.3894 8.85084 9.3894 10.4296 9.3894C10.4296 10.1638 10.4296 10.9382 10.4296 11.7125C10.4296 11.7771 10.4296 11.8416 10.4296 11.9061C8.85084 11.9061 7.27188 11.9061 5.69312 11.9061C5.69312 11.0672 5.69312 10.2283 5.69312 9.3894Z" fill="#DA9A6E"/>
<path fill-rule="evenodd" clip-rule="evenodd" d="M10.4297 9.3894C17.6923 9.3894 24.955 9.3894 32.2176 9.3894C32.2176 10.1638 32.2176 10.9382 32.2176 11.7125C24.955 11.7125 17.6923 11.7125 10.4297 11.7125C10.4297 10.9382 10.4297 10.1638 10.4297 9.3894Z" fill="#F6C9A9"/>
<path fill-rule="evenodd" clip-rule="evenodd" d="M32.2176 9.3894C41.0591 9.3894 49.9004 9.3894 58.742 9.3894C58.742 10.1638 58.742 10.9382 58.742 11.7125C58.742 11.7771 58.742 11.8416 58.742 11.9061C53.9424 11.9061 49.1426 11.9061 44.343 11.9061C33.0385 11.9061 21.7342 11.9061 10.4297 11.9061C10.4297 11.8416 10.4297 11.7771 10.4297 11.7125C17.6923 11.7125 24.955 11.7125 32.2176 11.7125C32.2176 10.9382 32.2176 10.1638 32.2176 9.3894Z" fill="#DA9B6F"/>
<path fill-rule="evenodd" clip-rule="evenodd" d="M63.6679 9.3894C63.6679 10.1638 63.6679 10.9382 63.6679 11.7125C62.0891 11.7125 60.5102 11.7125 58.9314 11.7125C58.9314 10.9382 58.9314 10.1638 58.9314 9.3894C60.5102 9.3894 62.0891 9.3894 63.6679 9.3894Z" fill="#8A5048"/>
<path fill-rule="evenodd" clip-rule="evenodd" d="M63.668 9.3894C77.3722 9.3894 91.0766 9.3894 104.781 9.3894C104.781 10.1638 104.781 10.9382 104.781 11.7125C116.843 11.7125 128.905 11.7125 140.968 11.7125C156.283 11.6482 171.566 11.7127 186.817 11.9061C167.492 11.9061 148.167 11.9061 128.842 11.9061C107.117 11.9061 85.3928 11.9061 63.668 11.9061C63.668 11.8416 63.668 11.7771 63.668 11.7125C63.668 10.9382 63.668 10.1638 63.668 9.3894Z" fill="#D8996E"/>
<path fill-rule="evenodd" clip-rule="evenodd" d="M104.781 9.3894C116.843 9.3894 128.905 9.3894 140.968 9.3894C140.968 10.1638 140.968 10.9382 140.968 11.7125C128.905 11.7125 116.843 11.7125 104.781 11.7125C104.781 10.9382 104.781 10.1638 104.781 9.3894Z" fill="#F6CAA9"/>
<path fill-rule="evenodd" clip-rule="evenodd" d="M140.968 9.3894C157.893 9.3894 174.818 9.3894 191.743 9.3894C191.743 10.1638 191.743 10.9382 191.743 11.7125C200.585 11.7125 209.425 11.7125 218.267 11.7125C218.267 11.7771 218.267 11.8416 218.267 11.9061C207.784 11.9061 197.3 11.9061 186.817 11.9061C171.566 11.7127 156.283 11.6482 140.968 11.7125C140.968 10.9382 140.968 10.1638 140.968 9.3894Z" fill="#DB9C6F"/>
<path fill-rule="evenodd" clip-rule="evenodd" d="M191.743 9.3894C200.585 9.3894 209.425 9.3894 218.267 9.3894C218.267 10.1638 218.267 10.9382 218.267 11.7125C209.425 11.7125 200.585 11.7125 191.743 11.7125C191.743 10.9382 191.743 10.1638 191.743 9.3894Z" fill="#F6CAA9"/>
<path fill-rule="evenodd" clip-rule="evenodd" d="M218.267 9.3894C236.834 9.3894 255.401 9.3894 273.968 9.3894C273.968 10.1638 273.968 10.9382 273.968 11.7125C273.968 11.7771 273.968 11.8416 273.968 11.9061C255.401 11.9061 236.834 11.9061 218.267 11.9061C218.267 11.8416 218.267 11.7771 218.267 11.7125C218.267 10.9382 218.267 10.1638 218.267 9.3894Z" fill="#DA9B6E"/>
<path fill-rule="evenodd" clip-rule="evenodd" d="M273.969 9.3894C280.348 9.3894 286.725 9.3894 293.104 9.3894C293.104 10.1638 293.104 10.9382 293.104 11.7125C286.725 11.7125 280.348 11.7125 273.969 11.7125C273.969 10.9382 273.969 10.1638 273.969 9.3894Z" fill="#F6CAA9"/>
<path fill-rule="evenodd" clip-rule="evenodd" d="M302.956 9.3894C304.534 9.3894 306.114 9.3894 307.692 9.3894C307.692 10.1638 307.692 10.9382 307.692 11.7125C306.114 11.7125 304.534 11.7125 302.956 11.7125C302.956 10.9382 302.956 10.1638 302.956 9.3894Z" fill="#F6CAA9"/>
<path fill-rule="evenodd" clip-rule="evenodd" d="M307.692 9.3894C316.534 9.3894 325.375 9.3894 334.217 9.3894C334.156 10.2028 334.221 10.9772 334.406 11.7125C334.406 11.7771 334.406 11.8416 334.406 11.9061C330.365 11.9061 326.322 11.9061 322.281 11.9061C317.417 11.9061 312.556 11.9061 307.692 11.9061C307.692 11.8416 307.692 11.7771 307.692 11.7125C307.692 10.9382 307.692 10.1638 307.692 9.3894Z" fill="#DA9A6E"/>
<path fill-rule="evenodd" clip-rule="evenodd" d="M334.217 9.3894C337.5 9.3894 340.785 9.3894 344.069 9.3894C344.069 10.1638 344.069 10.9382 344.069 11.7125C340.848 11.7125 337.627 11.7125 334.406 11.7125C334.22 10.9772 334.156 10.2028 334.217 9.3894Z" fill="#F6C9A8"/>
<path fill-rule="evenodd" clip-rule="evenodd" d="M344.069 9.3894C360.931 9.3894 377.792 9.3894 394.654 9.3894C394.654 10.1638 394.654 10.9382 394.654 11.7125C377.792 11.7125 360.931 11.7125 344.069 11.7125C344.069 10.9382 344.069 10.1638 344.069 9.3894Z" fill="#DB9C6E"/>
<path opacity="0.918" fill-rule="evenodd" clip-rule="evenodd" d="M58.7419 11.7125C58.805 11.7125 58.8683 11.7125 58.9314 11.7125C60.5102 11.7125 62.0891 11.7125 63.6679 11.7125C63.6679 11.777 63.6679 11.8416 63.6679 11.9061C62.0891 11.9061 60.5102 11.9061 58.9314 11.9061C58.9915 12.7195 58.9282 13.4939 58.7419 14.2293C58.7419 13.4549 58.7419 12.6805 58.7419 11.9061C58.7419 11.8416 58.7419 11.777 58.7419 11.7125Z" fill="#AE8172"/>
<path fill-rule="evenodd" clip-rule="evenodd" d="M295.567 6.87268C295.629 6.87268 295.694 6.87268 295.756 6.87268C295.756 7.71159 295.756 8.55051 295.756 9.38942C295.756 10.2283 295.756 11.0673 295.756 11.9062C294.936 11.9062 294.114 11.9062 293.293 11.9062C286.852 11.9062 280.41 11.9062 273.969 11.9062C273.969 11.8416 273.969 11.7771 273.969 11.7126C280.348 11.7126 286.725 11.7126 293.104 11.7126C293.104 10.9382 293.104 10.1638 293.104 9.38942C293.166 9.38942 293.231 9.38942 293.293 9.38942C293.293 10.1638 293.293 10.9382 293.293 11.7126C294.051 11.7126 294.809 11.7126 295.567 11.7126C295.567 10.9382 295.567 10.1638 295.567 9.38942C295.567 8.55051 295.567 7.71159 295.567 6.87268Z" fill="#DAA884"/>
<path fill-rule="evenodd" clip-rule="evenodd" d="M293.293 9.3894C294.051 9.3894 294.809 9.3894 295.567 9.3894C295.567 10.1638 295.567 10.9382 295.567 11.7125C294.809 11.7125 294.051 11.7125 293.293 11.7125C293.293 10.9382 293.293 10.1638 293.293 9.3894Z" fill="#B2774C"/>
<path opacity="0.918" fill-rule="evenodd" clip-rule="evenodd" d="M298.03 9.3894C298.092 9.3894 298.157 9.3894 298.219 9.3894C298.219 10.1638 298.219 10.9382 298.219 11.7125C299.735 11.7125 301.251 11.7125 302.766 11.7125C302.766 10.9382 302.766 10.1638 302.766 9.3894C302.829 9.3894 302.893 9.3894 302.956 9.3894C302.956 10.1638 302.956 10.9382 302.956 11.7125C304.534 11.7125 306.114 11.7125 307.692 11.7125C307.692 11.7771 307.692 11.8416 307.692 11.9061C306.114 11.9061 304.534 11.9061 302.956 11.9061C301.313 11.9061 299.672 11.9061 298.03 11.9061C298.03 11.0672 298.03 10.2283 298.03 9.3894Z" fill="#C99771"/>
<path fill-rule="evenodd" clip-rule="evenodd" d="M298.219 9.3894C298.977 9.3894 299.735 9.3894 300.493 9.3894C301.251 9.3894 302.008 9.3894 302.766 9.3894C302.766 10.1638 302.766 10.9382 302.766 11.7125C301.251 11.7125 299.735 11.7125 298.219 11.7125C298.219 10.9382 298.219 10.1638 298.219 9.3894Z" fill="#B2774C"/>
<path fill-rule="evenodd" clip-rule="evenodd" d="M394.655 9.3894C394.717 9.3894 394.781 9.3894 394.844 9.3894C394.844 10.1638 394.844 10.9382 394.844 11.7125C395.602 11.7125 396.36 11.7125 397.117 11.7125C396.398 11.9029 395.64 11.9675 394.844 11.9061C394.905 12.7196 394.84 13.4939 394.655 14.2293C394.655 13.4549 394.655 12.6805 394.655 11.9061C374.572 11.9061 354.489 11.9061 334.406 11.9061C334.406 11.8416 334.406 11.7771 334.406 11.7125C337.627 11.7125 340.848 11.7125 344.069 11.7125C360.931 11.7125 377.793 11.7125 394.655 11.7125C394.655 10.9382 394.655 10.1638 394.655 9.3894Z" fill="#BD8365"/>
<path fill-rule="evenodd" clip-rule="evenodd" d="M5.69312 11.9061C7.27188 11.9061 8.85084 11.9061 10.4296 11.9061C21.7341 11.9061 33.0384 11.9061 44.3429 11.9061C44.3429 12.6805 44.3429 13.4549 44.3429 14.2293C31.4597 14.2293 18.5764 14.2293 5.69312 14.2293C5.69312 13.4549 5.69312 12.6805 5.69312 11.9061Z" fill="#B2764C"/>
<path fill-rule="evenodd" clip-rule="evenodd" d="M44.343 11.9061C49.1426 11.9061 53.9424 11.9061 58.742 11.9061C58.742 12.6805 58.742 13.4549 58.742 14.2293C53.9424 14.2293 49.1426 14.2293 44.343 14.2293C44.343 13.4549 44.343 12.6805 44.343 11.9061Z" fill="#895047"/>
<path fill-rule="evenodd" clip-rule="evenodd" d="M63.668 11.9061C85.3928 11.9061 107.117 11.9061 128.842 11.9061C128.842 12.6805 128.842 13.4549 128.842 14.2293C107.117 14.2293 85.3928 14.2293 63.668 14.2293C63.668 13.4549 63.668 12.6805 63.668 11.9061Z" fill="#B2774C"/>
<path fill-rule="evenodd" clip-rule="evenodd" d="M128.842 11.9061C148.167 11.9061 167.492 11.9061 186.817 11.9061C186.817 12.6805 186.817 13.4549 186.817 14.2293C167.492 14.2293 148.167 14.2293 128.842 14.2293C128.842 13.4549 128.842 12.6805 128.842 11.9061Z" fill="#8A5048"/>
<path fill-rule="evenodd" clip-rule="evenodd" d="M186.817 11.9061C197.3 11.9061 207.784 11.9061 218.267 11.9061C236.834 11.9061 255.401 11.9061 273.968 11.9061C280.41 11.9061 286.852 11.9061 293.293 11.9061C293.293 12.6805 293.293 13.4549 293.293 14.2293C257.802 14.2293 222.308 14.2293 186.817 14.2293C186.817 13.4549 186.817 12.6805 186.817 11.9061Z" fill="#B2764D"/>
<path fill-rule="evenodd" clip-rule="evenodd" d="M302.956 11.9061C304.534 11.9061 306.114 11.9061 307.692 11.9061C312.556 11.9061 317.417 11.9061 322.281 11.9061C322.281 12.6805 322.281 13.4549 322.281 14.2293C315.839 14.2293 309.397 14.2293 302.956 14.2293C302.956 13.4549 302.956 12.6805 302.956 11.9061Z" fill="#B2764C"/>
<path fill-rule="evenodd" clip-rule="evenodd" d="M322.281 11.9061C326.322 11.9061 330.365 11.9061 334.406 11.9061C354.489 11.9061 374.572 11.9061 394.654 11.9061C394.654 12.6805 394.654 13.4549 394.654 14.2293C370.531 14.2293 346.405 14.2293 322.281 14.2293C322.281 13.4549 322.281 12.6805 322.281 11.9061Z" fill="#895047"/>
</svg>
