<svg width="481" height="70" viewBox="0 0 481 70" fill="none" xmlns="http://www.w3.org/2000/svg">
<path opacity="0.936" fill-rule="evenodd" clip-rule="evenodd" d="M295.29 3.38934C231.256 3.38934 167.222 3.38934 103.188 3.38934C103.188 2.51557 103.188 1.64184 103.188 0.768066C167.222 0.768066 231.256 0.768066 295.29 0.768066C295.29 1.64184 295.29 2.51557 295.29 3.38934Z" fill="#5D302B"/>
<path fill-rule="evenodd" clip-rule="evenodd" d="M89.3138 3.71704C89.3138 4.59081 89.3138 5.46455 89.3138 6.33832C82.0209 6.33832 74.7284 6.33832 67.4355 6.33832C65.6569 6.33832 63.8778 6.33832 62.0993 6.33832C62.0993 7.21209 62.0993 8.08582 62.0993 8.95959C53.7393 8.95959 45.3793 8.95959 37.0193 8.95959C37.0193 9.0688 37.0193 9.17804 37.0193 9.28725C35.8264 9.38382 34.7592 9.27461 33.8175 8.95959C33.8175 8.08582 33.8175 7.21209 33.8175 6.33832C31.1495 6.33832 28.4814 6.33832 25.8133 6.33832C25.8133 7.21209 25.8133 8.08582 25.8133 8.95959C25.8133 9.0688 25.8133 9.17804 25.8133 9.28725C24.0346 9.28725 22.2558 9.28725 20.4771 9.28725C20.4771 10.161 20.4771 11.0348 20.4771 11.9085C19.9578 11.1065 19.78 10.2327 19.9435 9.28725C19.232 9.28725 18.5205 9.28725 17.809 9.28725C17.9862 22.9954 17.8083 36.6478 17.2754 50.2447C17.2754 36.5921 17.2754 22.9397 17.2754 9.28725C17.2754 9.17804 17.2754 9.0688 17.2754 8.95959C17.2754 7.21209 17.2754 5.46455 17.2754 3.71704C41.2882 3.71704 65.301 3.71704 89.3138 3.71704Z" fill="#6D4039"/>
<path fill-rule="evenodd" clip-rule="evenodd" d="M89.3137 3.71704C92.1595 3.71704 95.0058 3.71704 97.8516 3.71704C97.8516 4.59081 97.8516 5.46455 97.8516 6.33832C96.0731 6.33832 94.294 6.33832 92.5154 6.33832C91.4482 6.33832 90.381 6.33832 89.3137 6.33832C89.3137 5.46455 89.3137 4.59081 89.3137 3.71704Z" fill="#905D4F"/>
<path fill-rule="evenodd" clip-rule="evenodd" d="M278.214 3.71704C278.214 4.59081 278.214 5.46455 278.214 6.33832C258.827 6.33832 239.438 6.33832 220.05 6.33832C216.315 6.33832 212.579 6.33832 208.844 6.33832C208.844 7.21209 208.844 8.08582 208.844 8.95959C200.484 8.95959 192.124 8.95959 183.764 8.95959C183.764 8.08582 183.764 7.21209 183.764 6.33832C179.139 6.33832 174.515 6.33832 169.89 6.33832C157.973 6.33832 146.055 6.33832 134.138 6.33832C130.402 6.33832 126.667 6.33832 122.932 6.33832C122.042 6.33832 121.153 6.33832 120.264 6.33832C120.264 7.21209 120.264 8.08582 120.264 8.95959C118.307 8.95959 116.351 8.95959 114.394 8.95959C114.394 8.08582 114.394 7.21209 114.394 6.33832C113.504 6.33832 112.615 6.33832 111.726 6.33832C109.058 6.33832 106.39 6.33832 103.721 6.33832C103.721 5.46455 103.721 4.59081 103.721 3.71704C161.886 3.71704 220.05 3.71704 278.214 3.71704Z" fill="#6C3F39"/>
<path fill-rule="evenodd" clip-rule="evenodd" d="M278.215 3.71704C282.839 3.71704 287.464 3.71704 292.089 3.71704C292.089 4.59081 292.089 5.46455 292.089 6.33832C291.199 6.33832 290.31 6.33832 289.421 6.33832C288.531 6.33832 287.642 6.33832 286.752 6.33832C283.907 6.33832 281.06 6.33832 278.215 6.33832C278.215 5.46455 278.215 4.59081 278.215 3.71704Z" fill="#915D4F"/>
<path fill-rule="evenodd" clip-rule="evenodd" d="M414.287 6.33832C413.398 6.33832 412.509 6.33832 411.619 6.33832C410.729 6.33832 409.84 6.33832 408.951 6.33832C408.951 7.3213 408.951 8.30427 408.951 9.28725C406.994 9.28725 405.038 9.28725 403.081 9.28725C403.081 9.17804 403.081 9.0688 403.081 8.95959C402.192 8.95959 401.303 8.95959 400.413 8.95959C400.413 8.08582 400.413 7.21209 400.413 6.33832C399.523 6.33832 398.634 6.33832 397.745 6.33832C395.966 6.33832 394.187 6.33832 392.409 6.33832C384.049 6.33832 375.689 6.33832 367.329 6.33832C363.593 6.33832 359.858 6.33832 356.123 6.33832C356.123 7.21209 356.123 8.08582 356.123 8.95959C341.359 8.95959 326.596 8.95959 311.832 8.95959C311.832 8.08582 311.832 7.21209 311.832 6.33832C310.765 6.33832 309.698 6.33832 308.631 6.33832C308.631 7.21209 308.631 8.08582 308.631 8.95959C307.919 8.95959 307.208 8.95959 306.496 8.95959C306.66 8.01416 306.482 7.1404 305.963 6.33832C305.963 5.46455 305.963 4.59081 305.963 3.71704C342.071 3.71704 378.179 3.71704 414.287 3.71704C414.287 4.59081 414.287 5.46455 414.287 6.33832Z" fill="#6C3F39"/>
<path fill-rule="evenodd" clip-rule="evenodd" d="M480.989 6.33832C480.1 6.33832 479.211 6.33832 478.321 6.33832C477.254 6.33832 476.187 6.33832 475.12 6.33832C473.341 6.33832 471.562 6.33832 469.783 6.33832C468.894 6.33832 468.005 6.33832 467.115 6.33832C467.115 7.21209 467.115 8.08582 467.115 8.95959C460.534 8.95959 453.952 8.95959 447.371 8.95959C440.968 8.95959 434.565 8.95959 428.161 8.95959C428.161 8.08582 428.161 7.21209 428.161 6.33832C427.272 6.33832 426.383 6.33832 425.493 6.33832C425.493 7.21209 425.493 8.08582 425.493 8.95959C424.603 8.95959 423.714 8.95959 422.825 8.95959C422.825 8.08582 422.825 7.21209 422.825 6.33832C422.825 5.46455 422.825 4.59081 422.825 3.71704C442.213 3.71704 461.601 3.71704 480.989 3.71704C480.989 4.59081 480.989 5.46455 480.989 6.33832Z" fill="#6B3E38"/>
<path fill-rule="evenodd" clip-rule="evenodd" d="M33.8175 8.95953C31.1494 8.95953 28.4813 8.95953 25.8132 8.95953C25.8132 8.08576 25.8132 7.21203 25.8132 6.33826C28.4813 6.33826 31.1494 6.33826 33.8175 6.33826C33.8175 7.21203 33.8175 8.08576 33.8175 8.95953Z" fill="#905D4F"/>
<path fill-rule="evenodd" clip-rule="evenodd" d="M37.0192 8.95953C36.1298 8.95953 35.2405 8.95953 34.3511 8.95953C34.3511 8.08576 34.3511 7.21203 34.3511 6.33826C35.2405 6.33826 36.1298 6.33826 37.0192 6.33826C37.0192 7.21203 37.0192 8.08576 37.0192 8.95953Z" fill="#523B3B"/>
<path fill-rule="evenodd" clip-rule="evenodd" d="M67.4355 6.33826C74.7285 6.33826 82.0209 6.33826 89.3139 6.33826C89.3139 7.32124 89.3139 8.30421 89.3139 9.28719C82.0209 9.28719 74.7285 9.28719 67.4355 9.28719C67.4355 8.30421 67.4355 7.32124 67.4355 6.33826Z" fill="#AF7959"/>
<path fill-rule="evenodd" clip-rule="evenodd" d="M89.3137 6.33826C90.381 6.33826 91.4482 6.33826 92.5154 6.33826C92.5154 7.32124 92.5154 8.30421 92.5154 9.28719C91.4482 9.28719 90.381 9.28719 89.3137 9.28719C89.3137 8.30421 89.3137 7.32124 89.3137 6.33826Z" fill="#B59B8F"/>
<path fill-rule="evenodd" clip-rule="evenodd" d="M97.8516 3.71704C98.7411 3.71704 99.6301 3.71704 100.52 3.71704C100.52 5.57379 100.52 7.43051 100.52 9.28725C100.52 10.161 100.52 11.0348 100.52 11.9085C99.6301 11.9085 98.7411 11.9085 97.8516 11.9085C97.8516 11.0348 97.8516 10.161 97.8516 9.28725C96.073 9.28725 94.2939 9.28725 92.5154 9.28725C92.5154 8.30428 92.5154 7.3213 92.5154 6.33832C94.2939 6.33832 96.073 6.33832 97.8516 6.33832C97.8516 5.46455 97.8516 4.59081 97.8516 3.71704Z" fill="#AD7657"/>
<path fill-rule="evenodd" clip-rule="evenodd" d="M111.726 6.33826C112.615 6.33826 113.504 6.33826 114.394 6.33826C114.394 7.21203 114.394 8.08576 114.394 8.95953C113.504 8.95953 112.615 8.95953 111.726 8.95953C111.726 8.08576 111.726 7.21203 111.726 6.33826Z" fill="#513A3B"/>
<path fill-rule="evenodd" clip-rule="evenodd" d="M169.89 8.95963C169.89 9.06884 169.89 9.17808 169.89 9.28729C162.597 9.28729 155.305 9.28729 148.012 9.28729C148.012 10.1611 148.012 11.0348 148.012 11.9086C139.651 11.9086 131.292 11.9086 122.932 11.9086C122.932 11.0348 122.932 10.1611 122.932 9.28729C128.446 9.28729 133.96 9.28729 139.474 9.28729C139.474 8.41352 139.474 7.53979 139.474 6.66602C147.834 6.66602 156.194 6.66602 164.554 6.66602C164.554 7.43054 164.554 8.1951 164.554 8.95963C166.332 8.95963 168.111 8.95963 169.89 8.95963Z" fill="#DC9C70"/>
<path fill-rule="evenodd" clip-rule="evenodd" d="M122.932 6.33826C122.932 7.21203 122.932 8.08576 122.932 8.95953C126.667 8.95953 130.402 8.95953 134.138 8.95953C134.138 8.08576 134.138 7.21203 134.138 6.33826C146.055 6.33826 157.973 6.33826 169.89 6.33826C169.89 7.21203 169.89 8.08576 169.89 8.95953C168.111 8.95953 166.332 8.95953 164.554 8.95953C164.554 8.19501 164.554 7.43044 164.554 6.66592C156.194 6.66592 147.834 6.66592 139.474 6.66592C139.474 7.53969 139.474 8.41342 139.474 9.28719C133.96 9.28719 128.445 9.28719 122.932 9.28719C122.042 9.28719 121.153 9.28719 120.264 9.28719C114.75 9.28719 109.235 9.28719 103.721 9.28719C103.544 9.28719 103.365 9.28719 103.188 9.28719C105.931 8.96343 108.777 8.85422 111.726 8.95953C112.615 8.95953 113.504 8.95953 114.394 8.95953C116.35 8.95953 118.307 8.95953 120.264 8.95953C120.264 8.08576 120.264 7.21203 120.264 6.33826C121.153 6.33826 122.042 6.33826 122.932 6.33826Z" fill="#AC7557"/>
<path fill-rule="evenodd" clip-rule="evenodd" d="M122.932 6.33826C126.667 6.33826 130.402 6.33826 134.138 6.33826C134.138 7.21203 134.138 8.08576 134.138 8.95953C130.402 8.95953 126.667 8.95953 122.932 8.95953C122.932 8.08576 122.932 7.21203 122.932 6.33826Z" fill="#915D4F"/>
<path fill-rule="evenodd" clip-rule="evenodd" d="M169.89 6.33826C174.515 6.33826 179.139 6.33826 183.764 6.33826C183.764 7.21203 183.764 8.08576 183.764 8.95953C192.124 8.95953 200.484 8.95953 208.844 8.95953C208.844 8.08576 208.844 7.21203 208.844 6.33826C212.58 6.33826 216.315 6.33826 220.05 6.33826C220.05 7.32124 220.05 8.30421 220.05 9.28719C217.204 9.28719 214.358 9.28719 211.512 9.28719C209.734 9.28719 207.955 9.28719 206.176 9.28719C195.148 9.28719 184.12 9.28719 173.092 9.28719C172.025 9.28719 170.957 9.28719 169.89 9.28719C169.89 9.17798 169.89 9.06874 169.89 8.95953C169.89 8.08576 169.89 7.21203 169.89 6.33826Z" fill="#935F4F"/>
<path fill-rule="evenodd" clip-rule="evenodd" d="M220.05 6.33826C239.438 6.33826 258.826 6.33826 278.214 6.33826C281.06 6.33826 283.907 6.33826 286.752 6.33826C286.752 7.32124 286.752 8.30421 286.752 9.28719C281.235 9.34175 275.721 9.28713 270.21 9.12336C269.711 8.34334 269.534 7.52419 269.677 6.66592C264.34 6.66592 259.004 6.66592 253.668 6.66592C253.786 7.57642 253.608 8.45019 253.134 9.28719C250.466 9.28719 247.798 9.28719 245.13 9.28719C236.77 9.28719 228.41 9.28719 220.05 9.28719C220.05 8.30421 220.05 7.32124 220.05 6.33826Z" fill="#AF7857"/>
<path fill-rule="evenodd" clip-rule="evenodd" d="M286.752 6.33826C287.642 6.33826 288.531 6.33826 289.421 6.33826C289.421 7.32124 289.421 8.30421 289.421 9.28719C288.531 9.28719 287.642 9.28719 286.752 9.28719C286.752 8.30421 286.752 7.32124 286.752 6.33826Z" fill="#563F3E"/>
<path fill-rule="evenodd" clip-rule="evenodd" d="M289.42 6.33826C290.31 6.33826 291.199 6.33826 292.088 6.33826C292.088 7.21203 292.088 8.08576 292.088 8.95953C292.978 8.95953 293.867 8.95953 294.757 8.95953C294.757 9.06874 294.757 9.17798 294.757 9.28719C292.978 9.28719 291.199 9.28719 289.42 9.28719C289.42 8.30421 289.42 7.32124 289.42 6.33826Z" fill="#AF7858"/>
<path fill-rule="evenodd" clip-rule="evenodd" d="M292.089 6.33826C292.978 6.33826 293.867 6.33826 294.757 6.33826C294.757 7.21203 294.757 8.08576 294.757 8.95953C293.867 8.95953 292.978 8.95953 292.089 8.95953C292.089 8.08576 292.089 7.21203 292.089 6.33826Z" fill="#925E4F"/>
<path fill-rule="evenodd" clip-rule="evenodd" d="M305.963 9.28729C303.295 9.28729 300.627 9.28729 297.958 9.28729C297.958 9.17808 297.958 9.06884 297.958 8.95963C299.737 8.95963 301.516 8.95963 303.295 8.95963C303.295 8.1951 303.295 7.43054 303.295 6.66602C304.184 6.66602 305.073 6.66602 305.963 6.66602C305.963 7.53979 305.963 8.41352 305.963 9.28729Z" fill="#A87259"/>
<path fill-rule="evenodd" clip-rule="evenodd" d="M305.963 6.33826C306.482 7.14033 306.66 8.0141 306.496 8.95953C307.208 8.95953 307.92 8.95953 308.631 8.95953C309.698 8.95953 310.765 8.95953 311.833 8.95953C326.596 8.95953 341.359 8.95953 356.123 8.95953C356.123 8.08576 356.123 7.21203 356.123 6.33826C359.858 6.33826 363.593 6.33826 367.329 6.33826C367.329 7.21203 367.329 8.08576 367.329 8.95953C367.329 9.06874 367.329 9.17798 367.329 9.28719C363.593 9.28719 359.858 9.28719 356.123 9.28719C351.498 9.28719 346.874 9.28719 342.249 9.28719C335.668 9.28719 329.086 9.28719 322.505 9.28719C319.837 9.28719 317.169 9.28719 314.501 9.28719C311.655 9.28719 308.809 9.28719 305.963 9.28719C305.963 8.41342 305.963 7.53969 305.963 6.66592C305.073 6.66592 304.184 6.66592 303.295 6.66592C303.295 7.43044 303.295 8.19501 303.295 8.95953C301.516 8.95953 299.737 8.95953 297.958 8.95953C297.958 8.08576 297.958 7.21203 297.958 6.33826C300.627 6.33826 303.295 6.33826 305.963 6.33826Z" fill="#915E4E"/>
<path fill-rule="evenodd" clip-rule="evenodd" d="M311.833 8.95953C310.765 8.95953 309.698 8.95953 308.631 8.95953C308.631 8.08576 308.631 7.21203 308.631 6.33826C309.698 6.33826 310.765 6.33826 311.833 6.33826C311.833 7.21203 311.833 8.08576 311.833 8.95953Z" fill="#523B3B"/>
<path fill-rule="evenodd" clip-rule="evenodd" d="M386.539 11.9086C385.649 11.9086 384.76 11.9086 383.871 11.9086C383.871 11.0348 383.871 10.1611 383.871 9.28729C378.357 9.28729 372.842 9.28729 367.329 9.28729C367.329 9.17808 367.329 9.06884 367.329 8.95963C369.997 8.95963 372.665 8.95963 375.333 8.95963C375.333 8.1951 375.333 7.43054 375.333 6.66602C379.068 6.66602 382.804 6.66602 386.539 6.66602C386.539 8.41352 386.539 10.1611 386.539 11.9086Z" fill="#DB9C70"/>
<path fill-rule="evenodd" clip-rule="evenodd" d="M367.329 6.33826C375.689 6.33826 384.048 6.33826 392.409 6.33826C392.409 7.21203 392.409 8.08576 392.409 8.95953C394.187 8.95953 395.966 8.95953 397.745 8.95953C397.745 8.08576 397.745 7.21203 397.745 6.33826C398.634 6.33826 399.523 6.33826 400.413 6.33826C400.413 7.21203 400.413 8.08576 400.413 8.95953C401.302 8.95953 402.191 8.95953 403.081 8.95953C403.081 9.06874 403.081 9.17798 403.081 9.28719C398.456 9.28719 393.832 9.28719 389.207 9.28719C389.207 10.161 389.207 11.0347 389.207 11.9085C388.317 11.9085 387.428 11.9085 386.539 11.9085C386.539 10.161 386.539 8.41342 386.539 6.66592C382.804 6.66592 379.068 6.66592 375.333 6.66592C375.333 7.43044 375.333 8.19501 375.333 8.95953C372.665 8.95953 369.997 8.95953 367.329 8.95953C367.329 8.08576 367.329 7.21203 367.329 6.33826Z" fill="#AD7657"/>
<path fill-rule="evenodd" clip-rule="evenodd" d="M392.409 6.33826C394.187 6.33826 395.966 6.33826 397.745 6.33826C397.745 7.21203 397.745 8.08576 397.745 8.95953C395.966 8.95953 394.187 8.95953 392.409 8.95953C392.409 8.08576 392.409 7.21203 392.409 6.33826Z" fill="#915D4F"/>
<path fill-rule="evenodd" clip-rule="evenodd" d="M403.081 8.95953C403.081 8.08576 403.081 7.21203 403.081 6.33826C404.148 6.33826 405.216 6.33826 406.283 6.33826C406.283 7.21203 406.283 8.08576 406.283 8.95953C405.216 8.95953 404.148 8.95953 403.081 8.95953Z" fill="#523B3B"/>
<path fill-rule="evenodd" clip-rule="evenodd" d="M411.619 6.33826C412.508 6.33826 413.397 6.33826 414.287 6.33826C415.177 6.33826 416.066 6.33826 416.955 6.33826C416.955 8.19501 416.955 10.0517 416.955 11.9085C416.066 11.9085 415.177 11.9085 414.287 11.9085C414.287 10.9255 414.287 9.94251 414.287 8.95953C413.397 8.95953 412.508 8.95953 411.619 8.95953C411.619 8.08576 411.619 7.21203 411.619 6.33826Z" fill="#915D4F"/>
<path fill-rule="evenodd" clip-rule="evenodd" d="M422.825 6.33826C422.825 7.21203 422.825 8.08576 422.825 8.95953C423.715 8.95953 424.604 8.95953 425.493 8.95953C426.383 8.95953 427.272 8.95953 428.161 8.95953C434.565 8.95953 440.968 8.95953 447.371 8.95953C447.371 9.06874 447.371 9.17798 447.371 9.28719C445.593 9.28719 443.814 9.28719 442.035 9.28719C441.146 9.28719 440.257 9.28719 439.367 9.28719C437.589 9.28719 435.81 9.28719 434.031 9.28719C430.296 9.28719 426.56 9.28719 422.825 9.28719C422.825 10.161 422.825 11.0347 422.825 11.9085C421.758 11.9085 420.691 11.9085 419.623 11.9085C419.623 10.0517 419.623 8.19501 419.623 6.33826C420.691 6.33826 421.758 6.33826 422.825 6.33826Z" fill="#8C594B"/>
<path fill-rule="evenodd" clip-rule="evenodd" d="M428.161 8.95953C427.272 8.95953 426.383 8.95953 425.493 8.95953C425.493 8.08576 425.493 7.21203 425.493 6.33826C426.383 6.33826 427.272 6.33826 428.161 6.33826C428.161 7.21203 428.161 8.08576 428.161 8.95953Z" fill="#503B3B"/>
<path fill-rule="evenodd" clip-rule="evenodd" d="M469.783 6.33826C471.562 6.33826 473.341 6.33826 475.12 6.33826C475.12 7.32124 475.12 8.30421 475.12 9.28719C474.23 9.28719 473.341 9.28719 472.452 9.28719C471.694 8.97556 470.805 8.86631 469.783 8.95953C469.783 8.08576 469.783 7.21203 469.783 6.33826Z" fill="#915D4F"/>
<path fill-rule="evenodd" clip-rule="evenodd" d="M67.4355 6.33826C67.4355 7.32124 67.4355 8.30421 67.4355 9.28719C63.7002 9.28719 59.9649 9.28719 56.2295 9.28719C55.34 9.28719 54.451 9.28719 53.5614 9.28719C49.8261 9.28719 46.0908 9.28719 42.3555 9.28719C40.5768 9.28719 38.798 9.28719 37.0193 9.28719C37.0193 9.17798 37.0193 9.06874 37.0193 8.95953C45.3793 8.95953 53.7393 8.95953 62.0993 8.95953C62.0993 8.08576 62.0993 7.21203 62.0993 6.33826C63.8779 6.33826 65.657 6.33826 67.4355 6.33826Z" fill="#94604E"/>
<path fill-rule="evenodd" clip-rule="evenodd" d="M469.783 6.33826C469.783 7.21203 469.783 8.08576 469.783 8.95953C470.805 8.86631 471.694 8.97556 472.451 9.28719C469.783 9.28719 467.115 9.28719 464.447 9.28719C458.755 9.28719 453.063 9.28719 447.371 9.28719C447.371 9.17798 447.371 9.06874 447.371 8.95953C453.952 8.95953 460.534 8.95953 467.115 8.95953C467.115 8.08576 467.115 7.21203 467.115 6.33826C468.005 6.33826 468.894 6.33826 469.783 6.33826Z" fill="#A1705D"/>
<path fill-rule="evenodd" clip-rule="evenodd" d="M25.8132 9.28723C25.8132 10.161 25.8132 11.0347 25.8132 11.9085C24.0345 11.9085 22.2558 11.9085 20.4771 11.9085C20.4771 11.0347 20.4771 10.161 20.4771 9.28723C22.2558 9.28723 24.0345 9.28723 25.8132 9.28723Z" fill="#925E50"/>
<path fill-rule="evenodd" clip-rule="evenodd" d="M25.8132 8.95959C28.4813 8.95959 31.1494 8.95959 33.8175 8.95959C34.7591 9.27461 35.8264 9.38382 37.0192 9.28725C38.7979 9.28725 40.5767 9.28725 42.3554 9.28725C42.3554 10.161 42.3554 11.0348 42.3554 11.9085C38.6201 11.9085 34.8847 11.9085 31.1494 11.9085C29.3707 11.9085 27.5919 11.9085 25.8132 11.9085C25.8132 11.0348 25.8132 10.161 25.8132 9.28725C25.8132 9.17805 25.8132 9.0688 25.8132 8.95959Z" fill="#AD7656"/>
<path fill-rule="evenodd" clip-rule="evenodd" d="M42.3555 9.28723C46.0908 9.28723 49.8261 9.28723 53.5614 9.28723C53.5614 10.161 53.5614 11.0347 53.5614 11.9085C49.8261 11.9085 46.0908 11.9085 42.3555 11.9085C42.3555 11.0347 42.3555 10.161 42.3555 9.28723Z" fill="#DB9B6E"/>
<path fill-rule="evenodd" clip-rule="evenodd" d="M53.5613 9.28723C54.4508 9.28723 55.3398 9.28723 56.2294 9.28723C56.2294 10.161 56.2294 11.0347 56.2294 11.9085C55.3398 11.9085 54.4508 11.9085 53.5613 11.9085C53.5613 11.0347 53.5613 10.161 53.5613 9.28723Z" fill="#AE7856"/>
<path fill-rule="evenodd" clip-rule="evenodd" d="M56.2295 9.28723C59.9648 9.28723 63.7001 9.28723 67.4355 9.28723C67.4355 10.161 67.4355 11.0347 67.4355 11.9085C66.5459 11.9085 65.6569 11.9085 64.7674 11.9085C61.9216 11.9085 59.0753 11.9085 56.2295 11.9085C56.2295 11.0347 56.2295 10.161 56.2295 9.28723Z" fill="#DC9C6F"/>
<path fill-rule="evenodd" clip-rule="evenodd" d="M67.4355 9.28723C74.7285 9.28723 82.0209 9.28723 89.3139 9.28723C90.3811 9.28723 91.4484 9.28723 92.5156 9.28723C92.5156 10.161 92.5156 11.0347 92.5156 11.9085C85.0449 11.9085 77.5743 11.9085 70.1036 11.9085C69.2141 11.9085 68.3251 11.9085 67.4355 11.9085C67.4355 11.0347 67.4355 10.161 67.4355 9.28723Z" fill="#F6C9A9"/>
<path fill-rule="evenodd" clip-rule="evenodd" d="M92.5154 9.28723C94.2939 9.28723 96.073 9.28723 97.8516 9.28723C97.8516 10.161 97.8516 11.0347 97.8516 11.9085C96.073 11.9085 94.2939 11.9085 92.5154 11.9085C92.5154 11.0347 92.5154 10.161 92.5154 9.28723Z" fill="#DB9C6E"/>
<path fill-rule="evenodd" clip-rule="evenodd" d="M100.52 9.28723C101.409 9.28723 102.298 9.28723 103.188 9.28723C103.188 10.161 103.188 11.0347 103.188 11.9085C102.298 11.9085 101.409 11.9085 100.52 11.9085C100.52 11.0347 100.52 10.161 100.52 9.28723Z" fill="#8B5148"/>
<path fill-rule="evenodd" clip-rule="evenodd" d="M169.89 9.28723C170.957 9.28723 172.025 9.28723 173.092 9.28723C173.092 10.161 173.092 11.0347 173.092 11.9085C167.4 11.9085 161.708 11.9085 156.016 11.9085C153.348 11.9085 150.68 11.9085 148.012 11.9085C148.012 11.0347 148.012 10.161 148.012 9.28723C155.305 9.28723 162.597 9.28723 169.89 9.28723Z" fill="#F6C9A9"/>
<path fill-rule="evenodd" clip-rule="evenodd" d="M173.092 9.28723C184.12 9.28723 195.148 9.28723 206.176 9.28723C206.176 10.161 206.176 11.0347 206.176 11.9085C198.705 11.9085 191.235 11.9085 183.764 11.9085C180.207 11.9085 176.649 11.9085 173.092 11.9085C173.092 11.0347 173.092 10.161 173.092 9.28723Z" fill="#DB9C6E"/>
<path fill-rule="evenodd" clip-rule="evenodd" d="M206.176 9.28723C207.955 9.28723 209.734 9.28723 211.512 9.28723C211.512 10.161 211.512 11.0347 211.512 11.9085C209.734 11.9085 207.955 11.9085 206.176 11.9085C206.176 11.0347 206.176 10.161 206.176 9.28723Z" fill="#AE7856"/>
<path fill-rule="evenodd" clip-rule="evenodd" d="M211.512 9.28723C214.358 9.28723 217.204 9.28723 220.05 9.28723C228.41 9.28723 236.77 9.28723 245.13 9.28723C245.13 10.161 245.13 11.0347 245.13 11.9085C242.284 11.9085 239.438 11.9085 236.592 11.9085C228.232 11.9085 219.872 11.9085 211.512 11.9085C211.512 11.0347 211.512 10.161 211.512 9.28723Z" fill="#DB9B6F"/>
<path fill-rule="evenodd" clip-rule="evenodd" d="M245.13 9.28723C247.798 9.28723 250.466 9.28723 253.134 9.28723C258.648 9.28723 264.163 9.28723 269.677 9.28723C269.677 10.161 269.677 11.0347 269.677 11.9085C261.495 11.9085 253.312 11.9085 245.13 11.9085C245.13 11.0347 245.13 10.161 245.13 9.28723Z" fill="#F6CAA9"/>
<path fill-rule="evenodd" clip-rule="evenodd" d="M286.752 9.28729C287.642 9.28729 288.531 9.28729 289.421 9.28729C291.199 9.28729 292.978 9.28729 294.757 9.28729C294.757 10.1611 294.757 11.0348 294.757 11.9086C286.575 11.9086 278.392 11.9086 270.21 11.9086C270.033 11.9086 269.854 11.9086 269.677 11.9086C269.677 11.0348 269.677 10.1611 269.677 9.28729C264.163 9.28729 258.648 9.28729 253.135 9.28729C253.608 8.45029 253.786 7.57652 253.668 6.66602C259.004 6.66602 264.34 6.66602 269.677 6.66602C269.534 7.52429 269.711 8.34344 270.21 9.12346C275.722 9.28723 281.235 9.34185 286.752 9.28729Z" fill="#DC9C6F"/>
<path opacity="0.932" fill-rule="evenodd" clip-rule="evenodd" d="M294.757 9.28723C295.824 9.28723 296.891 9.28723 297.958 9.28723C297.958 10.161 297.958 11.0347 297.958 11.9085C303.472 11.9085 308.987 11.9085 314.5 11.9085C317.169 11.9085 319.837 11.9085 322.505 11.9085C328.197 11.9085 333.888 11.9085 339.581 11.9085C339.581 12.8915 339.581 13.8745 339.581 14.8574C316.457 14.8574 293.333 14.8574 270.21 14.8574C270.21 13.8745 270.21 12.8915 270.21 11.9085C278.392 11.9085 286.575 11.9085 294.757 11.9085C294.757 11.0347 294.757 10.161 294.757 9.28723Z" fill="#8A5048"/>
<path fill-rule="evenodd" clip-rule="evenodd" d="M297.958 9.28723C300.627 9.28723 303.295 9.28723 305.963 9.28723C308.809 9.28723 311.655 9.28723 314.501 9.28723C314.501 10.161 314.501 11.0347 314.501 11.9085C308.987 11.9085 303.472 11.9085 297.958 11.9085C297.958 11.0347 297.958 10.161 297.958 9.28723Z" fill="#DB9B6E"/>
<path fill-rule="evenodd" clip-rule="evenodd" d="M314.5 9.28723C317.169 9.28723 319.837 9.28723 322.505 9.28723C322.505 10.161 322.505 11.0347 322.505 11.9085C319.837 11.9085 317.169 11.9085 314.5 11.9085C314.5 11.0347 314.5 10.161 314.5 9.28723Z" fill="#AE7856"/>
<path fill-rule="evenodd" clip-rule="evenodd" d="M322.505 9.28723C329.086 9.28723 335.668 9.28723 342.249 9.28723C342.249 10.161 342.249 11.0347 342.249 11.9085C341.359 11.9085 340.47 11.9085 339.581 11.9085C333.889 11.9085 328.197 11.9085 322.505 11.9085C322.505 11.0347 322.505 10.161 322.505 9.28723Z" fill="#DB9B6E"/>
<path fill-rule="evenodd" clip-rule="evenodd" d="M342.249 9.28723C346.873 9.28723 351.498 9.28723 356.123 9.28723C356.123 10.161 356.123 11.0347 356.123 11.9085C353.277 11.9085 350.43 11.9085 347.585 11.9085C345.806 11.9085 344.027 11.9085 342.249 11.9085C342.249 11.0347 342.249 10.161 342.249 9.28723Z" fill="#AF7857"/>
<path fill-rule="evenodd" clip-rule="evenodd" d="M356.123 9.28723C359.858 9.28723 363.593 9.28723 367.329 9.28723C367.329 10.161 367.329 11.0347 367.329 11.9085C365.372 11.9085 363.416 11.9085 361.459 11.9085C359.68 11.9085 357.901 11.9085 356.123 11.9085C356.123 11.0347 356.123 10.161 356.123 9.28723Z" fill="#DC9C6F"/>
<path fill-rule="evenodd" clip-rule="evenodd" d="M367.329 9.28723C372.842 9.28723 378.357 9.28723 383.871 9.28723C383.871 10.161 383.871 11.0347 383.871 11.9085C378.357 11.9085 372.842 11.9085 367.329 11.9085C367.329 11.0347 367.329 10.161 367.329 9.28723Z" fill="#F6C9A9"/>
<path fill-rule="evenodd" clip-rule="evenodd" d="M403.081 9.28723C403.081 10.161 403.081 11.0347 403.081 11.9085C399.523 11.9085 395.966 11.9085 392.409 11.9085C391.342 11.9085 390.274 11.9085 389.207 11.9085C389.207 11.0347 389.207 10.161 389.207 9.28723C393.832 9.28723 398.456 9.28723 403.081 9.28723Z" fill="#DB9B6E"/>
<path fill-rule="evenodd" clip-rule="evenodd" d="M411.619 6.33826C411.619 7.21203 411.619 8.08576 411.619 8.95953C412.508 8.95953 413.397 8.95953 414.287 8.95953C414.287 9.94251 414.287 10.9255 414.287 11.9085C411.619 11.9085 408.951 11.9085 406.283 11.9085C405.216 11.9085 404.148 11.9085 403.081 11.9085C403.081 11.0347 403.081 10.161 403.081 9.28719C405.038 9.28719 406.994 9.28719 408.951 9.28719C408.951 8.30421 408.951 7.32124 408.951 6.33826C409.84 6.33826 410.729 6.33826 411.619 6.33826Z" fill="#AD7657"/>
<path fill-rule="evenodd" clip-rule="evenodd" d="M434.031 9.28723C434.031 10.161 434.031 11.0347 434.031 11.9085C430.296 11.9085 426.56 11.9085 422.825 11.9085C422.825 11.0347 422.825 10.161 422.825 9.28723C426.56 9.28723 430.296 9.28723 434.031 9.28723Z" fill="#AE7757"/>
<path fill-rule="evenodd" clip-rule="evenodd" d="M434.031 9.28723C435.81 9.28723 437.589 9.28723 439.367 9.28723C439.367 10.161 439.367 11.0347 439.367 11.9085C437.589 11.9085 435.81 11.9085 434.031 11.9085C434.031 11.0347 434.031 10.161 434.031 9.28723Z" fill="#DB9B6E"/>
<path fill-rule="evenodd" clip-rule="evenodd" d="M439.367 9.28723C440.257 9.28723 441.146 9.28723 442.035 9.28723C442.035 10.161 442.035 11.0347 442.035 11.9085C441.146 11.9085 440.257 11.9085 439.367 11.9085C439.367 11.0347 439.367 10.161 439.367 9.28723Z" fill="#AE7856"/>
<path fill-rule="evenodd" clip-rule="evenodd" d="M442.035 9.28723C443.814 9.28723 445.593 9.28723 447.371 9.28723C447.371 10.161 447.371 11.0347 447.371 11.9085C446.482 11.9085 445.593 11.9085 444.703 11.9085C443.814 11.9085 442.925 11.9085 442.035 11.9085C442.035 11.0347 442.035 10.161 442.035 9.28723Z" fill="#DB9B6E"/>
<path fill-rule="evenodd" clip-rule="evenodd" d="M447.371 9.28723C453.063 9.28723 458.755 9.28723 464.447 9.28723C464.447 10.161 464.447 11.0347 464.447 11.9085C459.822 11.9085 455.198 11.9085 450.573 11.9085C449.506 11.9085 448.439 11.9085 447.371 11.9085C447.371 11.0347 447.371 10.161 447.371 9.28723Z" fill="#F6C8A8"/>
<path fill-rule="evenodd" clip-rule="evenodd" d="M464.447 9.28723C467.115 9.28723 469.783 9.28723 472.452 9.28723C472.452 10.161 472.452 11.0347 472.452 11.9085C471.562 11.9085 470.673 11.9085 469.783 11.9085C468.005 11.9085 466.226 11.9085 464.447 11.9085C464.447 11.0347 464.447 10.161 464.447 9.28723Z" fill="#DB9C6E"/>
<path fill-rule="evenodd" clip-rule="evenodd" d="M472.451 9.28723C473.341 9.28723 474.23 9.28723 475.12 9.28723C476.187 9.28723 477.254 9.28723 478.321 9.28723C478.321 10.161 478.321 11.0347 478.321 11.9085C476.364 11.9085 474.408 11.9085 472.451 11.9085C472.451 11.0347 472.451 10.161 472.451 9.28723Z" fill="#AF7857"/>
<path opacity="0.93" fill-rule="evenodd" clip-rule="evenodd" d="M31.1494 11.9086C34.8847 11.9086 38.6201 11.9086 42.3554 11.9086C46.0907 11.9086 49.826 11.9086 53.5614 11.9086C54.4509 11.9086 55.3399 11.9086 56.2295 11.9086C59.0752 11.9086 61.9216 11.9086 64.7673 11.9086C64.7673 12.7823 64.7673 13.6561 64.7673 14.5298C64.7673 14.7483 64.5896 14.8575 64.2337 14.8575C53.2056 14.8575 42.1775 14.8575 31.1494 14.8575C31.1494 13.8745 31.1494 12.8915 31.1494 11.9086Z" fill="#894F47"/>
<path opacity="0.963" fill-rule="evenodd" clip-rule="evenodd" d="M64.7673 11.9086C65.6569 11.9086 66.5459 11.9086 67.4354 11.9086C68.325 11.9086 69.214 11.9086 70.1035 11.9086C70.1035 12.8915 70.1035 13.8745 70.1035 14.8575C69.214 14.8575 68.325 14.8575 67.4354 14.8575C66.6782 14.5459 65.7892 14.4366 64.7673 14.5298C64.7673 13.6561 64.7673 12.7823 64.7673 11.9086Z" fill="#5E302C"/>
<path fill-rule="evenodd" clip-rule="evenodd" d="M70.1035 11.9086C77.5742 11.9086 85.0448 11.9086 92.5155 11.9086C94.294 11.9086 96.0731 11.9086 97.8516 11.9086C97.8516 12.8915 97.8516 13.8745 97.8516 14.8575C88.6024 14.8575 79.3527 14.8575 70.1035 14.8575C70.1035 13.8745 70.1035 12.8915 70.1035 11.9086Z" fill="#B3764C"/>
<path opacity="0.93" fill-rule="evenodd" clip-rule="evenodd" d="M97.8516 11.9086C98.7411 11.9086 99.6301 11.9086 100.52 11.9086C100.52 12.8915 100.52 13.8745 100.52 14.8575C99.6301 14.8575 98.7411 14.8575 97.8516 14.8575C97.8516 13.8745 97.8516 12.8915 97.8516 11.9086Z" fill="#8B5048"/>
<path fill-rule="evenodd" clip-rule="evenodd" d="M103.188 9.28723C103.366 9.28723 103.544 9.28723 103.721 9.28723C103.721 10.161 103.721 11.0347 103.721 11.9085C109.235 11.9085 114.75 11.9085 120.264 11.9085C120.264 11.0347 120.264 10.161 120.264 9.28723C121.153 9.28723 122.042 9.28723 122.932 9.28723C122.932 10.161 122.932 11.0347 122.932 11.9085C131.292 11.9085 139.652 11.9085 148.012 11.9085C150.68 11.9085 153.348 11.9085 156.016 11.9085C156.016 12.7823 156.016 13.656 156.016 14.5298C154.994 14.4366 154.105 14.5458 153.348 14.8574C135.739 14.8574 118.129 14.8574 100.52 14.8574C100.52 13.8745 100.52 12.8915 100.52 11.9085C101.409 11.9085 102.298 11.9085 103.188 11.9085C103.188 11.0347 103.188 10.161 103.188 9.28723Z" fill="#B2764D"/>
<path fill-rule="evenodd" clip-rule="evenodd" d="M103.721 9.28723C109.235 9.28723 114.75 9.28723 120.264 9.28723C120.264 10.161 120.264 11.0347 120.264 11.9085C114.75 11.9085 109.235 11.9085 103.721 11.9085C103.721 11.0347 103.721 10.161 103.721 9.28723Z" fill="#DB9B6E"/>
<path opacity="0.93" fill-rule="evenodd" clip-rule="evenodd" d="M156.016 11.9086C161.708 11.9086 167.4 11.9086 173.092 11.9086C176.649 11.9086 180.206 11.9086 183.764 11.9086C183.764 12.8915 183.764 13.8745 183.764 14.8575C174.693 14.8575 165.621 14.8575 156.55 14.8575C155.482 14.8575 154.415 14.8575 153.348 14.8575C154.105 14.5459 154.994 14.4366 156.016 14.5298C156.016 13.6561 156.016 12.7823 156.016 11.9086Z" fill="#5E312C"/>
<path opacity="0.93" fill-rule="evenodd" clip-rule="evenodd" d="M183.764 11.9086C191.235 11.9086 198.705 11.9086 206.176 11.9086C207.955 11.9086 209.734 11.9086 211.512 11.9086C219.872 11.9086 228.232 11.9086 236.592 11.9086C236.592 12.8915 236.592 13.8745 236.592 14.8575C218.983 14.8575 201.374 14.8575 183.764 14.8575C183.764 13.8745 183.764 12.8915 183.764 11.9086Z" fill="#8A4F47"/>
<path opacity="0.93" fill-rule="evenodd" clip-rule="evenodd" d="M236.592 11.9086C239.438 11.9086 242.284 11.9086 245.13 11.9086C253.312 11.9086 261.495 11.9086 269.677 11.9086C269.854 11.9086 270.033 11.9086 270.21 11.9086C270.21 12.8915 270.21 13.8745 270.21 14.8575C259.004 14.8575 247.798 14.8575 236.592 14.8575C236.592 13.8745 236.592 12.8915 236.592 11.9086Z" fill="#5E312C"/>
<path opacity="0.952" fill-rule="evenodd" clip-rule="evenodd" d="M339.581 11.9086C340.47 11.9086 341.359 11.9086 342.249 11.9086C344.027 11.9086 345.806 11.9086 347.585 11.9086C347.585 12.7823 347.585 13.6561 347.585 14.5298C346.563 14.4366 345.674 14.5459 344.917 14.8575C343.138 14.8575 341.359 14.8575 339.581 14.8575C339.581 13.8745 339.581 12.8915 339.581 11.9086Z" fill="#5E302C"/>
<path opacity="0.93" fill-rule="evenodd" clip-rule="evenodd" d="M347.585 11.9086C350.431 11.9086 353.277 11.9086 356.123 11.9086C357.901 11.9086 359.68 11.9086 361.459 11.9086C361.459 12.8915 361.459 13.8745 361.459 14.8575C357.012 14.8575 352.565 14.8575 348.119 14.8575C347.763 14.8575 347.585 14.7483 347.585 14.5298C347.585 13.6561 347.585 12.7823 347.585 11.9086Z" fill="#894F47"/>
<path fill-rule="evenodd" clip-rule="evenodd" d="M361.459 11.9086C363.416 11.9086 365.372 11.9086 367.329 11.9086C372.843 11.9086 378.357 11.9086 383.871 11.9086C384.76 11.9086 385.649 11.9086 386.539 11.9086C387.429 11.9086 388.318 11.9086 389.207 11.9086C390.274 11.9086 391.342 11.9086 392.409 11.9086C392.409 12.8915 392.409 13.8745 392.409 14.8575C382.092 14.8575 371.775 14.8575 361.459 14.8575C361.459 13.8745 361.459 12.8915 361.459 11.9086Z" fill="#B2764C"/>
<path opacity="0.93" fill-rule="evenodd" clip-rule="evenodd" d="M392.409 11.9086C395.966 11.9086 399.523 11.9086 403.081 11.9086C404.148 11.9086 405.216 11.9086 406.283 11.9086C406.283 12.8915 406.283 13.8745 406.283 14.8575C401.658 14.8575 397.034 14.8575 392.409 14.8575C392.409 13.8745 392.409 12.8915 392.409 11.9086Z" fill="#894F47"/>
<path opacity="0.93" fill-rule="evenodd" clip-rule="evenodd" d="M444.703 11.9086C445.593 11.9086 446.482 11.9086 447.371 11.9086C448.439 11.9086 449.506 11.9086 450.573 11.9086C450.573 12.8915 450.573 13.8745 450.573 14.8575C448.616 14.8575 446.66 14.8575 444.703 14.8575C444.703 13.8745 444.703 12.8915 444.703 11.9086Z" fill="#894F47"/>
<path fill-rule="evenodd" clip-rule="evenodd" d="M450.573 11.9086C455.198 11.9086 459.822 11.9086 464.447 11.9086C466.226 11.9086 468.005 11.9086 469.783 11.9086C469.783 12.8915 469.783 13.8745 469.783 14.8575C463.38 14.8575 456.977 14.8575 450.573 14.8575C450.573 13.8745 450.573 12.8915 450.573 11.9086Z" fill="#B3764C"/>
<path opacity="0.94" fill-rule="evenodd" clip-rule="evenodd" d="M0.733154 6.33826C1.62252 6.33826 2.51188 6.33826 3.40124 6.33826C3.40124 21.8475 3.40124 37.3568 3.40124 52.8659C5.35785 52.8659 7.31442 52.8659 9.27104 52.8659C11.0498 52.8659 12.8285 52.8659 14.6072 52.8659C14.6072 51.992 14.6072 51.1185 14.6072 50.2446C15.4966 50.2446 16.3859 50.2446 17.2753 50.2446C17.8082 36.6478 17.9861 22.9954 17.8089 9.28719C18.5204 9.28719 19.2319 9.28719 19.9434 9.28719C19.7799 10.2326 19.9578 11.1064 20.477 11.9085C22.2557 11.9085 24.0345 11.9085 25.8132 11.9085C27.5919 11.9085 29.3707 11.9085 31.1494 11.9085C31.1494 12.8914 31.1494 13.8744 31.1494 14.8574C27.5919 14.8574 24.0345 14.8574 20.477 14.8574C20.477 25.6702 20.477 36.4829 20.477 47.2957C22.2557 47.2957 24.0345 47.2957 25.8132 47.2957C25.8132 48.2787 25.8132 49.2617 25.8132 50.2446C24.9238 50.2446 24.0345 50.2446 23.1451 50.2446C22.0779 50.2446 21.0106 50.2446 19.9434 50.2446C19.9434 52.1015 19.9434 53.958 19.9434 55.8149C18.1647 55.8149 16.3859 55.8149 14.6072 55.8149C13.7178 55.8149 12.8285 55.8149 11.9391 55.8149C11.0498 55.8149 10.1604 55.8149 9.27104 55.8149C9.27104 59.4191 9.27104 63.0234 9.27104 66.6276C24.0345 66.6276 38.7979 66.6276 53.5613 66.6276C61.032 66.6276 68.5026 66.6276 75.9733 66.6276C106.39 66.6276 136.806 66.6276 167.222 66.6276C167.222 65.7538 167.222 64.8802 167.222 64.0063C167.222 62.1495 167.222 60.293 167.222 58.4361C164.554 58.4361 161.886 58.4361 159.218 58.4361C159.218 57.5623 159.218 56.6887 159.218 55.8149C160.996 55.8149 162.775 55.8149 164.554 55.8149C164.554 54.8319 164.554 53.8489 164.554 52.8659C165.443 52.8659 166.332 52.8659 167.222 52.8659C167.222 53.8489 167.222 54.8319 167.222 55.8149C168.112 55.8149 169.001 55.8149 169.89 55.8149C169.89 58.5452 169.89 61.276 169.89 64.0063C169.89 64.8802 169.89 65.7538 169.89 66.6276C225.474 66.955 281.149 67.0644 336.912 66.9553C336.912 67.8291 336.912 68.7027 336.912 69.5766C227.521 69.5766 118.129 69.5766 8.73742 69.5766C8.73742 68.7027 8.73742 67.8291 8.73742 66.9553C7.84804 66.9553 6.95872 66.9553 6.06933 66.9553C6.06933 63.2419 6.06933 59.5282 6.06933 55.8149C4.29061 55.8149 2.51188 55.8149 0.733154 55.8149C0.733154 39.3228 0.733154 22.8304 0.733154 6.33826Z" fill="#5E312C"/>
</svg>
