<svg width="16" height="16" viewBox="0 0 16 16" fill="none" xmlns="http://www.w3.org/2000/svg">
<path d="M4 7.33331C4 5.44798 4 4.50465 4.586 3.91931C5.17133 3.33331 6.11467 3.33331 8 3.33331H10C11.8853 3.33331 12.8287 3.33331 13.414 3.91931C14 4.50465 14 5.44798 14 7.33331V10.6666C14 12.552 14 13.4953 13.414 14.0806C12.8287 14.6666 11.8853 14.6666 10 14.6666H8C6.11467 14.6666 5.17133 14.6666 4.586 14.0806C4 13.4953 4 12.552 4 10.6666V7.33331Z" stroke="white"/>
<path d="M4 12.6666C3.46957 12.6666 2.96086 12.4559 2.58579 12.0809C2.21071 11.7058 2 11.1971 2 10.6666V6.66665C2 4.15265 2 2.89531 2.78133 2.11465C3.562 1.33331 4.81933 1.33331 7.33333 1.33331H10C10.5304 1.33331 11.0391 1.54403 11.4142 1.9191C11.7893 2.29417 12 2.80288 12 3.33331" stroke="white"/>
</svg>
